ISO-10303-21;
HEADER;
/* Generated by software containing ST-Developer
 * from STEP Tools, Inc. (www.steptools.com) 
 */

FILE_DESCRIPTION(
/* description */ ('KiCad electronic assembly'),
/* implementation_level */ '2;1');

FILE_NAME(
/* name */ 'Bottom Blank PCB.step',
/* time_stamp */ '2026-06-03T17:58:00-04:00',
/* author */ (''),
/* organization */ (''),
/* preprocessor_version */ 'ST-DEVELOPER v20.1',
/* originating_system */ 'Autodesk Translation Framework v15.8.0.0',
/* authorisation */ '');

FILE_SCHEMA (('AUTOMOTIVE_DESIGN { 1 0 10303 214 3 1 1 }'));
ENDSEC;

DATA;
#10=MECHANICAL_DESIGN_GEOMETRIC_PRESENTATION_REPRESENTATION('',(#17),#1039);
#11=ITEM_DEFINED_TRANSFORMATION($,$,#611,#676);
#12=(
REPRESENTATION_RELATIONSHIP($,$,#1050,#1049)
REPRESENTATION_RELATIONSHIP_WITH_TRANSFORMATION(#11)
SHAPE_REPRESENTATION_RELATIONSHIP()
);
#13=CONTEXT_DEPENDENT_SHAPE_REPRESENTATION(#12,#1048);
#14=NEXT_ASSEMBLY_USAGE_OCCURRENCE('bottompcb_PCB:1','bottompcb_PCB:1',
'bottompcb_PCB:1',#1052,#1053,'bottompcb_PCB:1');
#15=SHAPE_REPRESENTATION_RELATIONSHIP('SRR','None',#1050,#16);
#16=ADVANCED_BREP_SHAPE_REPRESENTATION('',(#18),#1038);
#17=STYLED_ITEM('',(#1064),#18);
#18=MANIFOLD_SOLID_BREP('Body1',#597);
#19=FACE_BOUND('',#74,.T.);
#20=FACE_BOUND('',#75,.T.);
#21=FACE_BOUND('',#76,.T.);
#22=FACE_BOUND('',#77,.T.);
#23=FACE_BOUND('',#79,.T.);
#24=FACE_BOUND('',#80,.T.);
#25=FACE_BOUND('',#81,.T.);
#26=FACE_BOUND('',#82,.T.);
#27=PLANE('',#615);
#28=PLANE('',#616);
#29=PLANE('',#617);
#30=PLANE('',#634);
#31=PLANE('',#653);
#32=PLANE('',#654);
#33=PLANE('',#657);
#34=PLANE('',#658);
#35=PLANE('',#661);
#36=PLANE('',#662);
#37=PLANE('',#665);
#38=PLANE('',#668);
#39=PLANE('',#671);
#40=FACE_OUTER_BOUND('',#70,.T.);
#41=FACE_OUTER_BOUND('',#71,.T.);
#42=FACE_OUTER_BOUND('',#72,.T.);
#43=FACE_OUTER_BOUND('',#73,.T.);
#44=FACE_OUTER_BOUND('',#78,.T.);
#45=FACE_OUTER_BOUND('',#83,.T.);
#46=FACE_OUTER_BOUND('',#84,.T.);
#47=FACE_OUTER_BOUND('',#85,.T.);
#48=FACE_OUTER_BOUND('',#86,.T.);
#49=FACE_OUTER_BOUND('',#87,.T.);
#50=FACE_OUTER_BOUND('',#88,.T.);
#51=FACE_OUTER_BOUND('',#89,.T.);
#52=FACE_OUTER_BOUND('',#90,.T.);
#53=FACE_OUTER_BOUND('',#91,.T.);
#54=FACE_OUTER_BOUND('',#92,.T.);
#55=FACE_OUTER_BOUND('',#93,.T.);
#56=FACE_OUTER_BOUND('',#94,.T.);
#57=FACE_OUTER_BOUND('',#95,.T.);
#58=FACE_OUTER_BOUND('',#96,.T.);
#59=FACE_OUTER_BOUND('',#97,.T.);
#60=FACE_OUTER_BOUND('',#98,.T.);
#61=FACE_OUTER_BOUND('',#99,.T.);
#62=FACE_OUTER_BOUND('',#100,.T.);
#63=FACE_OUTER_BOUND('',#101,.T.);
#64=FACE_OUTER_BOUND('',#102,.T.);
#65=FACE_OUTER_BOUND('',#103,.T.);
#66=FACE_OUTER_BOUND('',#104,.T.);
#67=FACE_OUTER_BOUND('',#105,.T.);
#68=FACE_OUTER_BOUND('',#106,.T.);
#69=FACE_OUTER_BOUND('',#107,.T.);
#70=EDGE_LOOP('',(#382,#383,#384,#385));
#71=EDGE_LOOP('',(#386,#387,#388,#389));
#72=EDGE_LOOP('',(#390,#391,#392,#393));
#73=EDGE_LOOP('',(#394,#395,#396,#397,#398,#399,#400,#401,#402,#403,#404,
#405,#406,#407,#408,#409,#410,#411,#412,#413,#414,#415,#416,#417));
#74=EDGE_LOOP('',(#418));
#75=EDGE_LOOP('',(#419));
#76=EDGE_LOOP('',(#420));
#77=EDGE_LOOP('',(#421));
#78=EDGE_LOOP('',(#422,#423,#424,#425,#426,#427,#428,#429,#430,#431,#432,
#433,#434,#435,#436,#437,#438,#439,#440,#441,#442,#443,#444,#445));
#79=EDGE_LOOP('',(#446));
#80=EDGE_LOOP('',(#447));
#81=EDGE_LOOP('',(#448));
#82=EDGE_LOOP('',(#449));
#83=EDGE_LOOP('',(#450,#451,#452,#453));
#84=EDGE_LOOP('',(#454,#455,#456,#457));
#85=EDGE_LOOP('',(#458,#459,#460,#461));
#86=EDGE_LOOP('',(#462,#463,#464,#465));
#87=EDGE_LOOP('',(#466,#467,#468,#469));
#88=EDGE_LOOP('',(#470,#471,#472,#473));
#89=EDGE_LOOP('',(#474,#475,#476,#477));
#90=EDGE_LOOP('',(#478,#479,#480,#481));
#91=EDGE_LOOP('',(#482,#483,#484,#485));
#92=EDGE_LOOP('',(#486,#487,#488,#489));
#93=EDGE_LOOP('',(#490,#491,#492,#493));
#94=EDGE_LOOP('',(#494,#495,#496,#497));
#95=EDGE_LOOP('',(#498,#499,#500,#501));
#96=EDGE_LOOP('',(#502,#503,#504,#505));
#97=EDGE_LOOP('',(#506,#507,#508,#509));
#98=EDGE_LOOP('',(#510,#511,#512,#513));
#99=EDGE_LOOP('',(#514,#515,#516,#517));
#100=EDGE_LOOP('',(#518,#519,#520,#521));
#101=EDGE_LOOP('',(#522,#523,#524,#525));
#102=EDGE_LOOP('',(#526,#527,#528,#529));
#103=EDGE_LOOP('',(#530,#531,#532,#533));
#104=EDGE_LOOP('',(#534,#535,#536,#537));
#105=EDGE_LOOP('',(#538,#539,#540,#541));
#106=EDGE_LOOP('',(#542,#543,#544,#545));
#107=EDGE_LOOP('',(#546,#547,#548,#549));
#108=CIRCLE('',#613,1.650999302616);
#109=CIRCLE('',#614,1.650999302616);
#110=CIRCLE('',#618,13.53820675458);
#111=CIRCLE('',#619,13.207992415378);
#112=CIRCLE('',#620,12.459161323231);
#113=CIRCLE('',#621,1.651016168587);
#114=CIRCLE('',#622,3.699112061403);
#115=CIRCLE('',#623,6.151469552209);
#116=CIRCLE('',#624,3.698931331364);
#117=CIRCLE('',#625,1.65100077302);
#118=CIRCLE('',#626,12.459166801643);
#119=CIRCLE('',#627,13.207994991134);
#120=CIRCLE('',#628,13.538480186269);
#121=CIRCLE('',#629,1.650992474237);
#122=CIRCLE('',#630,1.05);
#123=CIRCLE('',#631,1.05);
#124=CIRCLE('',#632,1.05);
#125=CIRCLE('',#633,1.05);
#126=CIRCLE('',#635,1.650992474237);
#127=CIRCLE('',#636,13.538480186269);
#128=CIRCLE('',#637,13.207994991134);
#129=CIRCLE('',#638,12.459166801643);
#130=CIRCLE('',#639,1.65100077302);
#131=CIRCLE('',#640,3.698931331364);
#132=CIRCLE('',#641,6.151469552209);
#133=CIRCLE('',#642,3.699112061403);
#134=CIRCLE('',#643,1.651016168587);
#135=CIRCLE('',#644,12.459161323231);
#136=CIRCLE('',#645,13.207992415378);
#137=CIRCLE('',#646,13.53820675458);
#138=CIRCLE('',#647,1.05);
#139=CIRCLE('',#648,1.05);
#140=CIRCLE('',#649,1.05);
#141=CIRCLE('',#650,1.05);
#142=LINE('',#866,#192);
#143=LINE('',#870,#193);
#144=LINE('',#875,#194);
#145=LINE('',#876,#195);
#146=LINE('',#877,#196);
#147=LINE('',#880,#197);
#148=LINE('',#882,#198);
#149=LINE('',#883,#199);
#150=LINE('',#888,#200);
#151=LINE('',#892,#201);
#152=LINE('',#896,#202);
#153=LINE('',#902,#203);
#154=LINE('',#906,#204);
#155=LINE('',#912,#205);
#156=LINE('',#916,#206);
#157=LINE('',#920,#207);
#158=LINE('',#924,#208);
#159=LINE('',#938,#209);
#160=LINE('',#942,#210);
#161=LINE('',#946,#211);
#162=LINE('',#950,#212);
#163=LINE('',#956,#213);
#164=LINE('',#960,#214);
#165=LINE('',#966,#215);
#166=LINE('',#970,#216);
#167=LINE('',#974,#217);
#168=LINE('',#985,#218);
#169=LINE('',#987,#219);
#170=LINE('',#989,#220);
#171=LINE('',#991,#221);
#172=LINE('',#993,#222);
#173=LINE('',#995,#223);
#174=LINE('',#997,#224);
#175=LINE('',#999,#225);
#176=LINE('',#1001,#226);
#177=LINE('',#1003,#227);
#178=LINE('',#1005,#228);
#179=LINE('',#1007,#229);
#180=LINE('',#1009,#230);
#181=LINE('',#1011,#231);
#182=LINE('',#1013,#232);
#183=LINE('',#1015,#233);
#184=LINE('',#1017,#234);
#185=LINE('',#1019,#235);
#186=LINE('',#1021,#236);
#187=LINE('',#1023,#237);
#188=LINE('',#1026,#238);
#189=LINE('',#1028,#239);
#190=LINE('',#1030,#240);
#191=LINE('',#1032,#241);
#192=VECTOR('',#683,1.);
#193=VECTOR('',#686,1.);
#194=VECTOR('',#691,1.);
#195=VECTOR('',#692,1.00000000000002);
#196=VECTOR('',#693,1.00000000000002);
#197=VECTOR('',#696,1.);
#198=VECTOR('',#697,1.);
#199=VECTOR('',#698,1.);
#200=VECTOR('',#703,0.999999999999526);
#201=VECTOR('',#706,1.00000000000025);
#202=VECTOR('',#709,1.0000000000002);
#203=VECTOR('',#714,1.00000000000032);
#204=VECTOR('',#717,0.999999999999869);
#205=VECTOR('',#722,1.00000000000031);
#206=VECTOR('',#725,1.00000000000025);
#207=VECTOR('',#728,0.999999999999648);
#208=VECTOR('',#731,1.);
#209=VECTOR('',#746,1.);
#210=VECTOR('',#749,0.999999999999648);
#211=VECTOR('',#752,1.00000000000025);
#212=VECTOR('',#755,1.00000000000031);
#213=VECTOR('',#760,0.999999999999869);
#214=VECTOR('',#763,1.00000000000032);
#215=VECTOR('',#768,1.0000000000002);
#216=VECTOR('',#771,1.00000000000025);
#217=VECTOR('',#774,0.999999999999526);
#218=VECTOR('',#787,1.);
#219=VECTOR('',#790,1.);
#220=VECTOR('',#793,1.);
#221=VECTOR('',#796,1.);
#222=VECTOR('',#799,1.);
#223=VECTOR('',#802,1.);
#224=VECTOR('',#805,1.);
#225=VECTOR('',#808,1.);
#226=VECTOR('',#811,1.);
#227=VECTOR('',#814,1.);
#228=VECTOR('',#817,1.);
#229=VECTOR('',#820,1.);
#230=VECTOR('',#823,1.);
#231=VECTOR('',#826,1.);
#232=VECTOR('',#829,1.);
#233=VECTOR('',#832,1.);
#234=VECTOR('',#835,1.);
#235=VECTOR('',#838,1.);
#236=VECTOR('',#841,1.);
#237=VECTOR('',#844,1.);
#238=VECTOR('',#849,1.05);
#239=VECTOR('',#852,1.05);
#240=VECTOR('',#855,1.05);
#241=VECTOR('',#858,1.05);
#242=VERTEX_POINT('',#864);
#243=VERTEX_POINT('',#865);
#244=VERTEX_POINT('',#867);
#245=VERTEX_POINT('',#869);
#246=VERTEX_POINT('',#873);
#247=VERTEX_POINT('',#874);
#248=VERTEX_POINT('',#879);
#249=VERTEX_POINT('',#881);
#250=VERTEX_POINT('',#885);
#251=VERTEX_POINT('',#887);
#252=VERTEX_POINT('',#889);
#253=VERTEX_POINT('',#891);
#254=VERTEX_POINT('',#893);
#255=VERTEX_POINT('',#895);
#256=VERTEX_POINT('',#897);
#257=VERTEX_POINT('',#899);
#258=VERTEX_POINT('',#901);
#259=VERTEX_POINT('',#903);
#260=VERTEX_POINT('',#905);
#261=VERTEX_POINT('',#907);
#262=VERTEX_POINT('',#909);
#263=VERTEX_POINT('',#911);
#264=VERTEX_POINT('',#913);
#265=VERTEX_POINT('',#915);
#266=VERTEX_POINT('',#917);
#267=VERTEX_POINT('',#919);
#268=VERTEX_POINT('',#921);
#269=VERTEX_POINT('',#923);
#270=VERTEX_POINT('',#926);
#271=VERTEX_POINT('',#928);
#272=VERTEX_POINT('',#930);
#273=VERTEX_POINT('',#932);
#274=VERTEX_POINT('',#935);
#275=VERTEX_POINT('',#937);
#276=VERTEX_POINT('',#939);
#277=VERTEX_POINT('',#941);
#278=VERTEX_POINT('',#943);
#279=VERTEX_POINT('',#945);
#280=VERTEX_POINT('',#947);
#281=VERTEX_POINT('',#949);
#282=VERTEX_POINT('',#951);
#283=VERTEX_POINT('',#953);
#284=VERTEX_POINT('',#955);
#285=VERTEX_POINT('',#957);
#286=VERTEX_POINT('',#959);
#287=VERTEX_POINT('',#961);
#288=VERTEX_POINT('',#963);
#289=VERTEX_POINT('',#965);
#290=VERTEX_POINT('',#967);
#291=VERTEX_POINT('',#969);
#292=VERTEX_POINT('',#971);
#293=VERTEX_POINT('',#973);
#294=VERTEX_POINT('',#976);
#295=VERTEX_POINT('',#978);
#296=VERTEX_POINT('',#980);
#297=VERTEX_POINT('',#982);
#298=EDGE_CURVE('',#242,#243,#142,.T.);
#299=EDGE_CURVE('',#243,#244,#108,.T.);
#300=EDGE_CURVE('',#245,#244,#143,.T.);
#301=EDGE_CURVE('',#242,#245,#109,.T.);
#302=EDGE_CURVE('',#246,#247,#144,.T.);
#303=EDGE_CURVE('',#247,#243,#145,.T.);
#304=EDGE_CURVE('',#246,#242,#146,.T.);
#305=EDGE_CURVE('',#244,#248,#147,.T.);
#306=EDGE_CURVE('',#249,#248,#148,.T.);
#307=EDGE_CURVE('',#245,#249,#149,.T.);
#308=EDGE_CURVE('',#249,#250,#110,.T.);
#309=EDGE_CURVE('',#250,#251,#150,.T.);
#310=EDGE_CURVE('',#251,#252,#111,.T.);
#311=EDGE_CURVE('',#252,#253,#151,.T.);
#312=EDGE_CURVE('',#253,#254,#112,.T.);
#313=EDGE_CURVE('',#254,#255,#152,.T.);
#314=EDGE_CURVE('',#255,#256,#113,.T.);
#315=EDGE_CURVE('',#256,#257,#114,.T.);
#316=EDGE_CURVE('',#257,#258,#153,.T.);
#317=EDGE_CURVE('',#258,#259,#115,.T.);
#318=EDGE_CURVE('',#259,#260,#154,.T.);
#319=EDGE_CURVE('',#260,#261,#116,.T.);
#320=EDGE_CURVE('',#261,#262,#117,.T.);
#321=EDGE_CURVE('',#262,#263,#155,.T.);
#322=EDGE_CURVE('',#263,#264,#118,.T.);
#323=EDGE_CURVE('',#264,#265,#156,.T.);
#324=EDGE_CURVE('',#265,#266,#119,.T.);
#325=EDGE_CURVE('',#266,#267,#157,.T.);
#326=EDGE_CURVE('',#267,#268,#120,.T.);
#327=EDGE_CURVE('',#268,#269,#158,.T.);
#328=EDGE_CURVE('',#269,#246,#121,.T.);
#329=EDGE_CURVE('',#270,#270,#122,.T.);
#330=EDGE_CURVE('',#271,#271,#123,.T.);
#331=EDGE_CURVE('',#272,#272,#124,.T.);
#332=EDGE_CURVE('',#273,#273,#125,.T.);
#333=EDGE_CURVE('',#274,#247,#126,.T.);
#334=EDGE_CURVE('',#275,#274,#159,.T.);
#335=EDGE_CURVE('',#276,#275,#127,.T.);
#336=EDGE_CURVE('',#277,#276,#160,.T.);
#337=EDGE_CURVE('',#278,#277,#128,.T.);
#338=EDGE_CURVE('',#279,#278,#161,.T.);
#339=EDGE_CURVE('',#280,#279,#129,.T.);
#340=EDGE_CURVE('',#281,#280,#162,.T.);
#341=EDGE_CURVE('',#282,#281,#130,.T.);
#342=EDGE_CURVE('',#283,#282,#131,.T.);
#343=EDGE_CURVE('',#284,#283,#163,.T.);
#344=EDGE_CURVE('',#285,#284,#132,.T.);
#345=EDGE_CURVE('',#286,#285,#164,.T.);
#346=EDGE_CURVE('',#287,#286,#133,.T.);
#347=EDGE_CURVE('',#288,#287,#134,.T.);
#348=EDGE_CURVE('',#289,#288,#165,.T.);
#349=EDGE_CURVE('',#290,#289,#135,.T.);
#350=EDGE_CURVE('',#291,#290,#166,.T.);
#351=EDGE_CURVE('',#292,#291,#136,.T.);
#352=EDGE_CURVE('',#293,#292,#167,.T.);
#353=EDGE_CURVE('',#248,#293,#137,.T.);
#354=EDGE_CURVE('',#294,#294,#138,.T.);
#355=EDGE_CURVE('',#295,#295,#139,.T.);
#356=EDGE_CURVE('',#296,#296,#140,.T.);
#357=EDGE_CURVE('',#297,#297,#141,.T.);
#358=EDGE_CURVE('',#269,#274,#168,.T.);
#359=EDGE_CURVE('',#250,#293,#169,.T.);
#360=EDGE_CURVE('',#268,#275,#170,.T.);
#361=EDGE_CURVE('',#251,#292,#171,.T.);
#362=EDGE_CURVE('',#267,#276,#172,.T.);
#363=EDGE_CURVE('',#252,#291,#173,.T.);
#364=EDGE_CURVE('',#266,#277,#174,.T.);
#365=EDGE_CURVE('',#253,#290,#175,.T.);
#366=EDGE_CURVE('',#265,#278,#176,.T.);
#367=EDGE_CURVE('',#254,#289,#177,.T.);
#368=EDGE_CURVE('',#264,#279,#178,.T.);
#369=EDGE_CURVE('',#255,#288,#179,.T.);
#370=EDGE_CURVE('',#263,#280,#180,.T.);
#371=EDGE_CURVE('',#256,#287,#181,.T.);
#372=EDGE_CURVE('',#262,#281,#182,.T.);
#373=EDGE_CURVE('',#257,#286,#183,.T.);
#374=EDGE_CURVE('',#261,#282,#184,.T.);
#375=EDGE_CURVE('',#258,#285,#185,.T.);
#376=EDGE_CURVE('',#260,#283,#186,.T.);
#377=EDGE_CURVE('',#259,#284,#187,.T.);
#378=EDGE_CURVE('',#294,#270,#188,.T.);
#379=EDGE_CURVE('',#295,#271,#189,.T.);
#380=EDGE_CURVE('',#296,#272,#190,.T.);
#381=EDGE_CURVE('',#297,#273,#191,.T.);
#382=ORIENTED_EDGE('',*,*,#298,.T.);
#383=ORIENTED_EDGE('',*,*,#299,.T.);
#384=ORIENTED_EDGE('',*,*,#300,.F.);
#385=ORIENTED_EDGE('',*,*,#301,.F.);
#386=ORIENTED_EDGE('',*,*,#302,.T.);
#387=ORIENTED_EDGE('',*,*,#303,.T.);
#388=ORIENTED_EDGE('',*,*,#298,.F.);
#389=ORIENTED_EDGE('',*,*,#304,.F.);
#390=ORIENTED_EDGE('',*,*,#300,.T.);
#391=ORIENTED_EDGE('',*,*,#305,.T.);
#392=ORIENTED_EDGE('',*,*,#306,.F.);
#393=ORIENTED_EDGE('',*,*,#307,.F.);
#394=ORIENTED_EDGE('',*,*,#301,.T.);
#395=ORIENTED_EDGE('',*,*,#307,.T.);
#396=ORIENTED_EDGE('',*,*,#308,.T.);
#397=ORIENTED_EDGE('',*,*,#309,.T.);
#398=ORIENTED_EDGE('',*,*,#310,.T.);
#399=ORIENTED_EDGE('',*,*,#311,.T.);
#400=ORIENTED_EDGE('',*,*,#312,.T.);
#401=ORIENTED_EDGE('',*,*,#313,.T.);
#402=ORIENTED_EDGE('',*,*,#314,.T.);
#403=ORIENTED_EDGE('',*,*,#315,.T.);
#404=ORIENTED_EDGE('',*,*,#316,.T.);
#405=ORIENTED_EDGE('',*,*,#317,.T.);
#406=ORIENTED_EDGE('',*,*,#318,.T.);
#407=ORIENTED_EDGE('',*,*,#319,.T.);
#408=ORIENTED_EDGE('',*,*,#320,.T.);
#409=ORIENTED_EDGE('',*,*,#321,.T.);
#410=ORIENTED_EDGE('',*,*,#322,.T.);
#411=ORIENTED_EDGE('',*,*,#323,.T.);
#412=ORIENTED_EDGE('',*,*,#324,.T.);
#413=ORIENTED_EDGE('',*,*,#325,.T.);
#414=ORIENTED_EDGE('',*,*,#326,.T.);
#415=ORIENTED_EDGE('',*,*,#327,.T.);
#416=ORIENTED_EDGE('',*,*,#328,.T.);
#417=ORIENTED_EDGE('',*,*,#304,.T.);
#418=ORIENTED_EDGE('',*,*,#329,.F.);
#419=ORIENTED_EDGE('',*,*,#330,.F.);
#420=ORIENTED_EDGE('',*,*,#331,.F.);
#421=ORIENTED_EDGE('',*,*,#332,.F.);
#422=ORIENTED_EDGE('',*,*,#299,.F.);
#423=ORIENTED_EDGE('',*,*,#303,.F.);
#424=ORIENTED_EDGE('',*,*,#333,.F.);
#425=ORIENTED_EDGE('',*,*,#334,.F.);
#426=ORIENTED_EDGE('',*,*,#335,.F.);
#427=ORIENTED_EDGE('',*,*,#336,.F.);
#428=ORIENTED_EDGE('',*,*,#337,.F.);
#429=ORIENTED_EDGE('',*,*,#338,.F.);
#430=ORIENTED_EDGE('',*,*,#339,.F.);
#431=ORIENTED_EDGE('',*,*,#340,.F.);
#432=ORIENTED_EDGE('',*,*,#341,.F.);
#433=ORIENTED_EDGE('',*,*,#342,.F.);
#434=ORIENTED_EDGE('',*,*,#343,.F.);
#435=ORIENTED_EDGE('',*,*,#344,.F.);
#436=ORIENTED_EDGE('',*,*,#345,.F.);
#437=ORIENTED_EDGE('',*,*,#346,.F.);
#438=ORIENTED_EDGE('',*,*,#347,.F.);
#439=ORIENTED_EDGE('',*,*,#348,.F.);
#440=ORIENTED_EDGE('',*,*,#349,.F.);
#441=ORIENTED_EDGE('',*,*,#350,.F.);
#442=ORIENTED_EDGE('',*,*,#351,.F.);
#443=ORIENTED_EDGE('',*,*,#352,.F.);
#444=ORIENTED_EDGE('',*,*,#353,.F.);
#445=ORIENTED_EDGE('',*,*,#305,.F.);
#446=ORIENTED_EDGE('',*,*,#354,.T.);
#447=ORIENTED_EDGE('',*,*,#355,.T.);
#448=ORIENTED_EDGE('',*,*,#356,.T.);
#449=ORIENTED_EDGE('',*,*,#357,.T.);
#450=ORIENTED_EDGE('',*,*,#358,.T.);
#451=ORIENTED_EDGE('',*,*,#333,.T.);
#452=ORIENTED_EDGE('',*,*,#302,.F.);
#453=ORIENTED_EDGE('',*,*,#328,.F.);
#454=ORIENTED_EDGE('',*,*,#306,.T.);
#455=ORIENTED_EDGE('',*,*,#353,.T.);
#456=ORIENTED_EDGE('',*,*,#359,.F.);
#457=ORIENTED_EDGE('',*,*,#308,.F.);
#458=ORIENTED_EDGE('',*,*,#360,.T.);
#459=ORIENTED_EDGE('',*,*,#334,.T.);
#460=ORIENTED_EDGE('',*,*,#358,.F.);
#461=ORIENTED_EDGE('',*,*,#327,.F.);
#462=ORIENTED_EDGE('',*,*,#359,.T.);
#463=ORIENTED_EDGE('',*,*,#352,.T.);
#464=ORIENTED_EDGE('',*,*,#361,.F.);
#465=ORIENTED_EDGE('',*,*,#309,.F.);
#466=ORIENTED_EDGE('',*,*,#362,.T.);
#467=ORIENTED_EDGE('',*,*,#335,.T.);
#468=ORIENTED_EDGE('',*,*,#360,.F.);
#469=ORIENTED_EDGE('',*,*,#326,.F.);
#470=ORIENTED_EDGE('',*,*,#361,.T.);
#471=ORIENTED_EDGE('',*,*,#351,.T.);
#472=ORIENTED_EDGE('',*,*,#363,.F.);
#473=ORIENTED_EDGE('',*,*,#310,.F.);
#474=ORIENTED_EDGE('',*,*,#364,.T.);
#475=ORIENTED_EDGE('',*,*,#336,.T.);
#476=ORIENTED_EDGE('',*,*,#362,.F.);
#477=ORIENTED_EDGE('',*,*,#325,.F.);
#478=ORIENTED_EDGE('',*,*,#363,.T.);
#479=ORIENTED_EDGE('',*,*,#350,.T.);
#480=ORIENTED_EDGE('',*,*,#365,.F.);
#481=ORIENTED_EDGE('',*,*,#311,.F.);
#482=ORIENTED_EDGE('',*,*,#366,.T.);
#483=ORIENTED_EDGE('',*,*,#337,.T.);
#484=ORIENTED_EDGE('',*,*,#364,.F.);
#485=ORIENTED_EDGE('',*,*,#324,.F.);
#486=ORIENTED_EDGE('',*,*,#365,.T.);
#487=ORIENTED_EDGE('',*,*,#349,.T.);
#488=ORIENTED_EDGE('',*,*,#367,.F.);
#489=ORIENTED_EDGE('',*,*,#312,.F.);
#490=ORIENTED_EDGE('',*,*,#368,.T.);
#491=ORIENTED_EDGE('',*,*,#338,.T.);
#492=ORIENTED_EDGE('',*,*,#366,.F.);
#493=ORIENTED_EDGE('',*,*,#323,.F.);
#494=ORIENTED_EDGE('',*,*,#367,.T.);
#495=ORIENTED_EDGE('',*,*,#348,.T.);
#496=ORIENTED_EDGE('',*,*,#369,.F.);
#497=ORIENTED_EDGE('',*,*,#313,.F.);
#498=ORIENTED_EDGE('',*,*,#370,.T.);
#499=ORIENTED_EDGE('',*,*,#339,.T.);
#500=ORIENTED_EDGE('',*,*,#368,.F.);
#501=ORIENTED_EDGE('',*,*,#322,.F.);
#502=ORIENTED_EDGE('',*,*,#369,.T.);
#503=ORIENTED_EDGE('',*,*,#347,.T.);
#504=ORIENTED_EDGE('',*,*,#371,.F.);
#505=ORIENTED_EDGE('',*,*,#314,.F.);
#506=ORIENTED_EDGE('',*,*,#372,.T.);
#507=ORIENTED_EDGE('',*,*,#340,.T.);
#508=ORIENTED_EDGE('',*,*,#370,.F.);
#509=ORIENTED_EDGE('',*,*,#321,.F.);
#510=ORIENTED_EDGE('',*,*,#371,.T.);
#511=ORIENTED_EDGE('',*,*,#346,.T.);
#512=ORIENTED_EDGE('',*,*,#373,.F.);
#513=ORIENTED_EDGE('',*,*,#315,.F.);
#514=ORIENTED_EDGE('',*,*,#374,.T.);
#515=ORIENTED_EDGE('',*,*,#341,.T.);
#516=ORIENTED_EDGE('',*,*,#372,.F.);
#517=ORIENTED_EDGE('',*,*,#320,.F.);
#518=ORIENTED_EDGE('',*,*,#373,.T.);
#519=ORIENTED_EDGE('',*,*,#345,.T.);
#520=ORIENTED_EDGE('',*,*,#375,.F.);
#521=ORIENTED_EDGE('',*,*,#316,.F.);
#522=ORIENTED_EDGE('',*,*,#376,.T.);
#523=ORIENTED_EDGE('',*,*,#342,.T.);
#524=ORIENTED_EDGE('',*,*,#374,.F.);
#525=ORIENTED_EDGE('',*,*,#319,.F.);
#526=ORIENTED_EDGE('',*,*,#375,.T.);
#527=ORIENTED_EDGE('',*,*,#344,.T.);
#528=ORIENTED_EDGE('',*,*,#377,.F.);
#529=ORIENTED_EDGE('',*,*,#317,.F.);
#530=ORIENTED_EDGE('',*,*,#377,.T.);
#531=ORIENTED_EDGE('',*,*,#343,.T.);
#532=ORIENTED_EDGE('',*,*,#376,.F.);
#533=ORIENTED_EDGE('',*,*,#318,.F.);
#534=ORIENTED_EDGE('',*,*,#354,.F.);
#535=ORIENTED_EDGE('',*,*,#378,.T.);
#536=ORIENTED_EDGE('',*,*,#329,.T.);
#537=ORIENTED_EDGE('',*,*,#378,.F.);
#538=ORIENTED_EDGE('',*,*,#355,.F.);
#539=ORIENTED_EDGE('',*,*,#379,.T.);
#540=ORIENTED_EDGE('',*,*,#330,.T.);
#541=ORIENTED_EDGE('',*,*,#379,.F.);
#542=ORIENTED_EDGE('',*,*,#356,.F.);
#543=ORIENTED_EDGE('',*,*,#380,.T.);
#544=ORIENTED_EDGE('',*,*,#331,.T.);
#545=ORIENTED_EDGE('',*,*,#380,.F.);
#546=ORIENTED_EDGE('',*,*,#357,.F.);
#547=ORIENTED_EDGE('',*,*,#381,.T.);
#548=ORIENTED_EDGE('',*,*,#332,.T.);
#549=ORIENTED_EDGE('',*,*,#381,.F.);
#550=CYLINDRICAL_SURFACE('',#612,1.650999302616);
#551=CYLINDRICAL_SURFACE('',#651,1.650992474237);
#552=CYLINDRICAL_SURFACE('',#652,13.53820675458);
#553=CYLINDRICAL_SURFACE('',#655,13.538480186269);
#554=CYLINDRICAL_SURFACE('',#656,13.207992415378);
#555=CYLINDRICAL_SURFACE('',#659,13.207994991134);
#556=CYLINDRICAL_SURFACE('',#660,12.459161323231);
#557=CYLINDRICAL_SURFACE('',#663,12.459166801643);
#558=CYLINDRICAL_SURFACE('',#664,1.651016168587);
#559=CYLINDRICAL_SURFACE('',#666,3.699112061403);
#560=CYLINDRICAL_SURFACE('',#667,1.65100077302);
#561=CYLINDRICAL_SURFACE('',#669,3.698931331364);
#562=CYLINDRICAL_SURFACE('',#670,6.151469552209);
#563=CYLINDRICAL_SURFACE('',#672,1.05);
#564=CYLINDRICAL_SURFACE('',#673,1.05);
#565=CYLINDRICAL_SURFACE('',#674,1.05);
#566=CYLINDRICAL_SURFACE('',#675,1.05);
#567=ADVANCED_FACE('',(#40),#550,.T.);
#568=ADVANCED_FACE('',(#41),#27,.T.);
#569=ADVANCED_FACE('',(#42),#28,.T.);
#570=ADVANCED_FACE('',(#43,#19,#20,#21,#22),#29,.F.);
#571=ADVANCED_FACE('',(#44,#23,#24,#25,#26),#30,.T.);
#572=ADVANCED_FACE('',(#45),#551,.T.);
#573=ADVANCED_FACE('',(#46),#552,.F.);
#574=ADVANCED_FACE('',(#47),#31,.T.);
#575=ADVANCED_FACE('',(#48),#32,.T.);
#576=ADVANCED_FACE('',(#49),#553,.F.);
#577=ADVANCED_FACE('',(#50),#554,.T.);
#578=ADVANCED_FACE('',(#51),#33,.T.);
#579=ADVANCED_FACE('',(#52),#34,.T.);
#580=ADVANCED_FACE('',(#53),#555,.T.);
#581=ADVANCED_FACE('',(#54),#556,.F.);
#582=ADVANCED_FACE('',(#55),#35,.T.);
#583=ADVANCED_FACE('',(#56),#36,.T.);
#584=ADVANCED_FACE('',(#57),#557,.F.);
#585=ADVANCED_FACE('',(#58),#558,.T.);
#586=ADVANCED_FACE('',(#59),#37,.T.);
#587=ADVANCED_FACE('',(#60),#559,.T.);
#588=ADVANCED_FACE('',(#61),#560,.T.);
#589=ADVANCED_FACE('',(#62),#38,.T.);
#590=ADVANCED_FACE('',(#63),#561,.T.);
#591=ADVANCED_FACE('',(#64),#562,.F.);
#592=ADVANCED_FACE('',(#65),#39,.T.);
#593=ADVANCED_FACE('',(#66),#563,.F.);
#594=ADVANCED_FACE('',(#67),#564,.F.);
#595=ADVANCED_FACE('',(#68),#565,.F.);
#596=ADVANCED_FACE('',(#69),#566,.F.);
#597=CLOSED_SHELL('',(#567,#568,#569,#570,#571,#572,#573,#574,#575,#576,
#577,#578,#579,#580,#581,#582,#583,#584,#585,#586,#587,#588,#589,#590,#591,
#592,#593,#594,#595,#596));
#598=DERIVED_UNIT_ELEMENT(#600,1.);
#599=DERIVED_UNIT_ELEMENT(#1041,-3.);
#600=(
MASS_UNIT()
NAMED_UNIT(*)
SI_UNIT(.KILO.,.GRAM.)
);
#601=DERIVED_UNIT((#598,#599));
#602=MEASURE_REPRESENTATION_ITEM('density measure',
POSITIVE_RATIO_MEASURE(7850.),#601);
#603=PROPERTY_DEFINITION_REPRESENTATION(#608,#605);
#604=PROPERTY_DEFINITION_REPRESENTATION(#609,#606);
#605=REPRESENTATION('material name',(#607),#1038);
#606=REPRESENTATION('density',(#602),#1038);
#607=DESCRIPTIVE_REPRESENTATION_ITEM('Steel','Steel');
#608=PROPERTY_DEFINITION('material property','material name',#1053);
#609=PROPERTY_DEFINITION('material property','density of part',#1053);
#610=AXIS2_PLACEMENT_3D('',#861,#677,#678);
#611=AXIS2_PLACEMENT_3D('',#862,#679,#680);
#612=AXIS2_PLACEMENT_3D('',#863,#681,#682);
#613=AXIS2_PLACEMENT_3D('',#868,#684,#685);
#614=AXIS2_PLACEMENT_3D('',#871,#687,#688);
#615=AXIS2_PLACEMENT_3D('',#872,#689,#690);
#616=AXIS2_PLACEMENT_3D('',#878,#694,#695);
#617=AXIS2_PLACEMENT_3D('',#884,#699,#700);
#618=AXIS2_PLACEMENT_3D('',#886,#701,#702);
#619=AXIS2_PLACEMENT_3D('',#890,#704,#705);
#620=AXIS2_PLACEMENT_3D('',#894,#707,#708);
#621=AXIS2_PLACEMENT_3D('',#898,#710,#711);
#622=AXIS2_PLACEMENT_3D('',#900,#712,#713);
#623=AXIS2_PLACEMENT_3D('',#904,#715,#716);
#624=AXIS2_PLACEMENT_3D('',#908,#718,#719);
#625=AXIS2_PLACEMENT_3D('',#910,#720,#721);
#626=AXIS2_PLACEMENT_3D('',#914,#723,#724);
#627=AXIS2_PLACEMENT_3D('',#918,#726,#727);
#628=AXIS2_PLACEMENT_3D('',#922,#729,#730);
#629=AXIS2_PLACEMENT_3D('',#925,#732,#733);
#630=AXIS2_PLACEMENT_3D('',#927,#734,#735);
#631=AXIS2_PLACEMENT_3D('',#929,#736,#737);
#632=AXIS2_PLACEMENT_3D('',#931,#738,#739);
#633=AXIS2_PLACEMENT_3D('',#933,#740,#741);
#634=AXIS2_PLACEMENT_3D('',#934,#742,#743);
#635=AXIS2_PLACEMENT_3D('',#936,#744,#745);
#636=AXIS2_PLACEMENT_3D('',#940,#747,#748);
#637=AXIS2_PLACEMENT_3D('',#944,#750,#751);
#638=AXIS2_PLACEMENT_3D('',#948,#753,#754);
#639=AXIS2_PLACEMENT_3D('',#952,#756,#757);
#640=AXIS2_PLACEMENT_3D('',#954,#758,#759);
#641=AXIS2_PLACEMENT_3D('',#958,#761,#762);
#642=AXIS2_PLACEMENT_3D('',#962,#764,#765);
#643=AXIS2_PLACEMENT_3D('',#964,#766,#767);
#644=AXIS2_PLACEMENT_3D('',#968,#769,#770);
#645=AXIS2_PLACEMENT_3D('',#972,#772,#773);
#646=AXIS2_PLACEMENT_3D('',#975,#775,#776);
#647=AXIS2_PLACEMENT_3D('',#977,#777,#778);
#648=AXIS2_PLACEMENT_3D('',#979,#779,#780);
#649=AXIS2_PLACEMENT_3D('',#981,#781,#782);
#650=AXIS2_PLACEMENT_3D('',#983,#783,#784);
#651=AXIS2_PLACEMENT_3D('',#984,#785,#786);
#652=AXIS2_PLACEMENT_3D('',#986,#788,#789);
#653=AXIS2_PLACEMENT_3D('',#988,#791,#792);
#654=AXIS2_PLACEMENT_3D('',#990,#794,#795);
#655=AXIS2_PLACEMENT_3D('',#992,#797,#798);
#656=AXIS2_PLACEMENT_3D('',#994,#800,#801);
#657=AXIS2_PLACEMENT_3D('',#996,#803,#804);
#658=AXIS2_PLACEMENT_3D('',#998,#806,#807);
#659=AXIS2_PLACEMENT_3D('',#1000,#809,#810);
#660=AXIS2_PLACEMENT_3D('',#1002,#812,#813);
#661=AXIS2_PLACEMENT_3D('',#1004,#815,#816);
#662=AXIS2_PLACEMENT_3D('',#1006,#818,#819);
#663=AXIS2_PLACEMENT_3D('',#1008,#821,#822);
#664=AXIS2_PLACEMENT_3D('',#1010,#824,#825);
#665=AXIS2_PLACEMENT_3D('',#1012,#827,#828);
#666=AXIS2_PLACEMENT_3D('',#1014,#830,#831);
#667=AXIS2_PLACEMENT_3D('',#1016,#833,#834);
#668=AXIS2_PLACEMENT_3D('',#1018,#836,#837);
#669=AXIS2_PLACEMENT_3D('',#1020,#839,#840);
#670=AXIS2_PLACEMENT_3D('',#1022,#842,#843);
#671=AXIS2_PLACEMENT_3D('',#1024,#845,#846);
#672=AXIS2_PLACEMENT_3D('',#1025,#847,#848);
#673=AXIS2_PLACEMENT_3D('',#1027,#850,#851);
#674=AXIS2_PLACEMENT_3D('',#1029,#853,#854);
#675=AXIS2_PLACEMENT_3D('',#1031,#856,#857);
#676=AXIS2_PLACEMENT_3D('',#1033,#859,#860);
#677=DIRECTION('axis',(0.,0.,1.));
#678=DIRECTION('refdir',(1.,0.,0.));
#679=DIRECTION('axis',(0.,0.,1.));
#680=DIRECTION('refdir',(1.,0.,0.));
#681=DIRECTION('center_axis',(0.,0.,-1.));
#682=DIRECTION('ref_axis',(-4.22403503474262E-7,0.999999999999911,0.));
#683=DIRECTION('',(0.,0.,1.));
#684=DIRECTION('center_axis',(0.,0.,-1.));
#685=DIRECTION('ref_axis',(-4.22403503474262E-7,0.999999999999911,0.));
#686=DIRECTION('',(0.,0.,1.));
#687=DIRECTION('center_axis',(0.,0.,-1.));
#688=DIRECTION('ref_axis',(-4.22403503474262E-7,0.999999999999911,0.));
#689=DIRECTION('center_axis',(-1.81708055695397E-7,0.999999999999984,0.));
#690=DIRECTION('ref_axis',(0.999999999999983,1.81708055695397E-7,0.));
#691=DIRECTION('',(0.,0.,1.));
#692=DIRECTION('',(0.999999999999984,1.81708055695397E-7,0.));
#693=DIRECTION('',(0.999999999999984,1.81708055695397E-7,0.));
#694=DIRECTION('center_axis',(1.,0.,0.));
#695=DIRECTION('ref_axis',(0.,-1.,0.));
#696=DIRECTION('',(0.,-1.,0.));
#697=DIRECTION('',(0.,0.,1.));
#698=DIRECTION('',(0.,-1.,0.));
#699=DIRECTION('center_axis',(0.,0.,1.));
#700=DIRECTION('ref_axis',(1.,0.,0.));
#701=DIRECTION('center_axis',(0.,0.,1.));
#702=DIRECTION('ref_axis',(-0.999999999999978,2.07624087370695E-7,0.));
#703=DIRECTION('',(0.422885456907201,-0.90618314392643,0.));
#704=DIRECTION('center_axis',(0.,0.,-1.));
#705=DIRECTION('ref_axis',(0.906183319839183,0.422885079951086,0.));
#706=DIRECTION('',(-0.422885466632894,-0.906183139387773,0.));
#707=DIRECTION('center_axis',(0.,0.,1.));
#708=DIRECTION('ref_axis',(-0.906183054140809,0.422885649304911,0.));
#709=DIRECTION('',(0.496139091384903,-0.86824305467983,0.));
#710=DIRECTION('center_axis',(0.,0.,-1.));
#711=DIRECTION('ref_axis',(0.868243354384195,0.496138566902111,0.));
#712=DIRECTION('center_axis',(0.,0.,-1.));
#713=DIRECTION('ref_axis',(0.900843702675429,-0.434143551547207,0.));
#714=DIRECTION('',(-0.919665346630708,0.392703005089875,0.));
#715=DIRECTION('center_axis',(0.,0.,1.));
#716=DIRECTION('ref_axis',(0.392702938776056,0.919665374947132,0.));
#717=DIRECTION('',(-0.91966534583512,-0.392703006953051,0.));
#718=DIRECTION('center_axis',(0.,0.,-1.));
#719=DIRECTION('ref_axis',(0.392714370101844,-0.919660493614634,0.));
#720=DIRECTION('center_axis',(0.,0.,-1.));
#721=DIRECTION('ref_axis',(-0.900851445377748,-0.434127485147879,0.));
#722=DIRECTION('',(0.496139046376845,0.86824308039873,0.));
#723=DIRECTION('center_axis',(0.,0.,1.));
#724=DIRECTION('ref_axis',(0.868243159240951,-0.496138908402972,0.));
#725=DIRECTION('',(-0.422885466632894,0.906183139387773,0.));
#726=DIRECTION('center_axis',(0.,0.,-1.));
#727=DIRECTION('ref_axis',(-0.906183338134892,-0.42288504074595,0.));
#728=DIRECTION('',(0.422885429213149,0.906183156850319,0.));
#729=DIRECTION('center_axis',(0.,0.,1.));
#730=DIRECTION('ref_axis',(0.905595311849066,-0.424142819292031,0.));
#731=DIRECTION('',(0.,1.,0.));
#732=DIRECTION('center_axis',(0.,0.,-1.));
#733=DIRECTION('ref_axis',(-0.999999999989611,-4.55833677766523E-6,0.));
#734=DIRECTION('center_axis',(0.,0.,-1.));
#735=DIRECTION('ref_axis',(0.,-1.,0.));
#736=DIRECTION('center_axis',(0.,0.,-1.));
#737=DIRECTION('ref_axis',(0.,-1.,0.));
#738=DIRECTION('center_axis',(0.,0.,-1.));
#739=DIRECTION('ref_axis',(0.,-1.,0.));
#740=DIRECTION('center_axis',(0.,0.,-1.));
#741=DIRECTION('ref_axis',(0.,-1.,0.));
#742=DIRECTION('center_axis',(0.,0.,1.));
#743=DIRECTION('ref_axis',(1.,0.,0.));
#744=DIRECTION('center_axis',(0.,0.,-1.));
#745=DIRECTION('ref_axis',(-0.999999999989611,-4.55833677766523E-6,0.));
#746=DIRECTION('',(0.,1.,0.));
#747=DIRECTION('center_axis',(0.,0.,1.));
#748=DIRECTION('ref_axis',(0.905595311849066,-0.424142819292031,0.));
#749=DIRECTION('',(0.422885429213149,0.906183156850319,0.));
#750=DIRECTION('center_axis',(0.,0.,-1.));
#751=DIRECTION('ref_axis',(-0.906183338134892,-0.42288504074595,0.));
#752=DIRECTION('',(-0.422885466632894,0.906183139387773,0.));
#753=DIRECTION('center_axis',(0.,0.,1.));
#754=DIRECTION('ref_axis',(0.868243159240951,-0.496138908402972,0.));
#755=DIRECTION('',(0.496139046376845,0.86824308039873,0.));
#756=DIRECTION('center_axis',(0.,0.,-1.));
#757=DIRECTION('ref_axis',(-0.900851445377748,-0.434127485147879,0.));
#758=DIRECTION('center_axis',(0.,0.,-1.));
#759=DIRECTION('ref_axis',(0.392714370101844,-0.919660493614634,0.));
#760=DIRECTION('',(-0.91966534583512,-0.392703006953051,0.));
#761=DIRECTION('center_axis',(0.,0.,1.));
#762=DIRECTION('ref_axis',(0.392702938776056,0.919665374947132,0.));
#763=DIRECTION('',(-0.919665346630708,0.392703005089875,0.));
#764=DIRECTION('center_axis',(0.,0.,-1.));
#765=DIRECTION('ref_axis',(0.900843702675429,-0.434143551547207,0.));
#766=DIRECTION('center_axis',(0.,0.,-1.));
#767=DIRECTION('ref_axis',(0.868243354384195,0.496138566902111,0.));
#768=DIRECTION('',(0.496139091384903,-0.86824305467983,0.));
#769=DIRECTION('center_axis',(0.,0.,1.));
#770=DIRECTION('ref_axis',(-0.906183054140809,0.422885649304911,0.));
#771=DIRECTION('',(-0.422885466632894,-0.906183139387773,0.));
#772=DIRECTION('center_axis',(0.,0.,-1.));
#773=DIRECTION('ref_axis',(0.906183319839183,0.422885079951086,0.));
#774=DIRECTION('',(0.422885456907201,-0.90618314392643,0.));
#775=DIRECTION('center_axis',(0.,0.,1.));
#776=DIRECTION('ref_axis',(-0.999999999999978,2.07624087370695E-7,0.));
#777=DIRECTION('center_axis',(0.,0.,-1.));
#778=DIRECTION('ref_axis',(0.,-1.,0.));
#779=DIRECTION('center_axis',(0.,0.,-1.));
#780=DIRECTION('ref_axis',(0.,-1.,0.));
#781=DIRECTION('center_axis',(0.,0.,-1.));
#782=DIRECTION('ref_axis',(0.,-1.,0.));
#783=DIRECTION('center_axis',(0.,0.,-1.));
#784=DIRECTION('ref_axis',(0.,-1.,0.));
#785=DIRECTION('center_axis',(0.,0.,-1.));
#786=DIRECTION('ref_axis',(-0.999999999989611,-4.55833677766523E-6,0.));
#787=DIRECTION('',(0.,0.,1.));
#788=DIRECTION('center_axis',(0.,0.,-1.));
#789=DIRECTION('ref_axis',(-0.999999999999978,2.07624087370695E-7,0.));
#790=DIRECTION('',(0.,0.,1.));
#791=DIRECTION('center_axis',(-1.,0.,0.));
#792=DIRECTION('ref_axis',(0.,1.,0.));
#793=DIRECTION('',(0.,0.,1.));
#794=DIRECTION('center_axis',(0.90618314392643,0.422885456907201,0.));
#795=DIRECTION('ref_axis',(0.422885456907201,-0.90618314392643,0.));
#796=DIRECTION('',(0.,0.,1.));
#797=DIRECTION('center_axis',(0.,0.,-1.));
#798=DIRECTION('ref_axis',(0.905595311849066,-0.424142819292031,0.));
#799=DIRECTION('',(0.,0.,1.));
#800=DIRECTION('center_axis',(0.,0.,-1.));
#801=DIRECTION('ref_axis',(0.906183319839183,0.422885079951086,0.));
#802=DIRECTION('',(0.,0.,1.));
#803=DIRECTION('center_axis',(-0.906183156850319,0.422885429213149,0.));
#804=DIRECTION('ref_axis',(0.422885429213149,0.90618315685032,0.));
#805=DIRECTION('',(0.,0.,1.));
#806=DIRECTION('center_axis',(0.906183139387773,-0.422885466632894,0.));
#807=DIRECTION('ref_axis',(-0.422885466632894,-0.906183139387773,0.));
#808=DIRECTION('',(0.,0.,1.));
#809=DIRECTION('center_axis',(0.,0.,-1.));
#810=DIRECTION('ref_axis',(-0.906183338134892,-0.42288504074595,0.));
#811=DIRECTION('',(0.,0.,1.));
#812=DIRECTION('center_axis',(0.,0.,-1.));
#813=DIRECTION('ref_axis',(-0.906183054140809,0.422885649304911,0.));
#814=DIRECTION('',(0.,0.,1.));
#815=DIRECTION('center_axis',(-0.906183139387773,-0.422885466632894,0.));
#816=DIRECTION('ref_axis',(-0.422885466632894,0.906183139387773,0.));
#817=DIRECTION('',(0.,0.,1.));
#818=DIRECTION('center_axis',(0.86824305467983,0.496139091384903,0.));
#819=DIRECTION('ref_axis',(0.496139091384903,-0.86824305467983,0.));
#820=DIRECTION('',(0.,0.,1.));
#821=DIRECTION('center_axis',(0.,0.,-1.));
#822=DIRECTION('ref_axis',(0.868243159240951,-0.496138908402972,0.));
#823=DIRECTION('',(0.,0.,1.));
#824=DIRECTION('center_axis',(0.,0.,-1.));
#825=DIRECTION('ref_axis',(0.868243354384195,0.496138566902111,0.));
#826=DIRECTION('',(0.,0.,1.));
#827=DIRECTION('center_axis',(-0.868243080398729,0.496139046376845,0.));
#828=DIRECTION('ref_axis',(0.496139046376845,0.86824308039873,0.));
#829=DIRECTION('',(0.,0.,1.));
#830=DIRECTION('center_axis',(0.,0.,-1.));
#831=DIRECTION('ref_axis',(0.900843702675429,-0.434143551547207,0.));
#832=DIRECTION('',(0.,0.,1.));
#833=DIRECTION('center_axis',(0.,0.,-1.));
#834=DIRECTION('ref_axis',(-0.900851445377748,-0.434127485147879,0.));
#835=DIRECTION('',(0.,0.,1.));
#836=DIRECTION('center_axis',(-0.392703005089876,-0.919665346630709,0.));
#837=DIRECTION('ref_axis',(-0.919665346630709,0.392703005089876,0.));
#838=DIRECTION('',(0.,0.,1.));
#839=DIRECTION('center_axis',(0.,0.,-1.));
#840=DIRECTION('ref_axis',(0.392714370101844,-0.919660493614634,0.));
#841=DIRECTION('',(0.,0.,1.));
#842=DIRECTION('center_axis',(0.,0.,-1.));
#843=DIRECTION('ref_axis',(0.392702938776056,0.919665374947132,0.));
#844=DIRECTION('',(0.,0.,1.));
#845=DIRECTION('center_axis',(0.392703006953051,-0.91966534583512,0.));
#846=DIRECTION('ref_axis',(-0.91966534583512,-0.392703006953051,0.));
#847=DIRECTION('center_axis',(0.,0.,-1.));
#848=DIRECTION('ref_axis',(0.,-1.,0.));
#849=DIRECTION('',(0.,0.,-1.));
#850=DIRECTION('center_axis',(0.,0.,-1.));
#851=DIRECTION('ref_axis',(0.,-1.,0.));
#852=DIRECTION('',(0.,0.,-1.));
#853=DIRECTION('center_axis',(0.,0.,-1.));
#854=DIRECTION('ref_axis',(0.,-1.,0.));
#855=DIRECTION('',(0.,0.,-1.));
#856=DIRECTION('center_axis',(0.,0.,-1.));
#857=DIRECTION('ref_axis',(0.,-1.,0.));
#858=DIRECTION('',(0.,0.,-1.));
#859=DIRECTION('',(0.,0.,1.));
#860=DIRECTION('',(1.,0.,0.));
#861=CARTESIAN_POINT('',(0.,0.,0.));
#862=CARTESIAN_POINT('',(0.,0.,0.));
#863=CARTESIAN_POINT('Origin',(73.755000697388,-37.38499630261,0.));
#864=CARTESIAN_POINT('',(73.755,-35.733997,0.));
#865=CARTESIAN_POINT('',(73.755,-35.733997,1.51));
#866=CARTESIAN_POINT('',(73.755,-35.733997,0.));
#867=CARTESIAN_POINT('',(75.406,-37.385,1.51));
#868=CARTESIAN_POINT('Origin',(73.755000697388,-37.38499630261,1.51));
#869=CARTESIAN_POINT('',(75.406,-37.385,0.));
#870=CARTESIAN_POINT('',(75.406,-37.385,0.));
#871=CARTESIAN_POINT('Origin',(73.755000697388,-37.38499630261,0.));
#872=CARTESIAN_POINT('Origin',(57.245,-35.734,0.));
#873=CARTESIAN_POINT('',(57.245,-35.734,0.));
#874=CARTESIAN_POINT('',(57.245,-35.734,1.51));
#875=CARTESIAN_POINT('',(57.245,-35.734,0.));
#876=CARTESIAN_POINT('',(57.245,-35.734,1.51));
#877=CARTESIAN_POINT('',(57.245,-35.734,0.));
#878=CARTESIAN_POINT('Origin',(75.406,-37.385,0.));
#879=CARTESIAN_POINT('',(75.406,-42.63655,1.51));
#880=CARTESIAN_POINT('',(75.406,-37.385,1.51));
#881=CARTESIAN_POINT('',(75.406,-42.63655,0.));
#882=CARTESIAN_POINT('',(75.406,-42.63655,0.));
#883=CARTESIAN_POINT('',(75.406,-37.385,0.));
#884=CARTESIAN_POINT('Origin',(0.,0.,0.));
#885=CARTESIAN_POINT('',(76.676129,-48.3617,0.));
#886=CARTESIAN_POINT('Origin',(88.94420675458,-42.63655281085,0.));
#887=CARTESIAN_POINT('',(95.913452,-89.584536,0.));
#888=CARTESIAN_POINT('',(76.676129,-48.3617,0.));
#889=CARTESIAN_POINT('',(95.913451,-100.755464,0.));
#890=CARTESIAN_POINT('Origin',(83.944589584622,-95.16999892857,0.));
#891=CARTESIAN_POINT('',(78.134857,-138.852451,0.));
#892=CARTESIAN_POINT('',(95.913451,-100.755464,0.));
#893=CARTESIAN_POINT('',(78.607555,-150.302724,0.));
#894=CARTESIAN_POINT('Origin',(89.425137859916,-144.1212515259,0.));
#895=CARTESIAN_POINT('',(84.543182,-160.690067,0.));
#896=CARTESIAN_POINT('',(78.607555,-150.302724,0.));
#897=CARTESIAN_POINT('',(84.597022,-162.225944,0.));
#898=CARTESIAN_POINT('Origin',(83.109698183643,-161.5091997958,0.));
#899=CARTESIAN_POINT('',(79.837843,-164.032843,0.));
#900=CARTESIAN_POINT('Origin',(81.264700193995,-160.619998352,0.));
#901=CARTESIAN_POINT('',(67.915699,-158.942011,0.));
#902=CARTESIAN_POINT('',(79.837843,-164.032843,0.));
#903=CARTESIAN_POINT('',(63.084301,-158.94201,0.));
#904=CARTESIAN_POINT('Origin',(65.499998829057,-164.5993045522,0.));
#905=CARTESIAN_POINT('',(51.187789,-164.021897,0.));
#906=CARTESIAN_POINT('',(63.084301,-158.94201,0.));
#907=CARTESIAN_POINT('',(46.402978,-162.225944,0.));
#908=CARTESIAN_POINT('Origin',(49.735165512155,-160.6201359859,0.));
#909=CARTESIAN_POINT('',(46.456818,-160.690067,0.));
#910=CARTESIAN_POINT('Origin',(47.890284432695,-161.5091991864,0.));
#911=CARTESIAN_POINT('',(52.392442,-150.302728,0.));
#912=CARTESIAN_POINT('',(46.456818,-160.690067,0.));
#913=CARTESIAN_POINT('',(52.865143,-138.852451,0.));
#914=CARTESIAN_POINT('Origin',(41.574855654634,-144.1212505834,0.));
#915=CARTESIAN_POINT('',(35.086549,-100.755464,0.));
#916=CARTESIAN_POINT('',(52.865143,-138.852451,0.));
#917=CARTESIAN_POINT('',(35.086549,-89.584537,0.));
#918=CARTESIAN_POINT('Origin',(47.055413991133,-95.1700005,0.));
#919=CARTESIAN_POINT('',(54.315904,-48.378772,0.));
#920=CARTESIAN_POINT('',(35.086549,-89.584537,0.));
#921=CARTESIAN_POINT('',(55.594,-42.6365,0.));
#922=CARTESIAN_POINT('Origin',(42.05551981375,-42.63652284487,0.));
#923=CARTESIAN_POINT('',(55.594,-37.385,0.));
#924=CARTESIAN_POINT('',(55.594,-42.6365,0.));
#925=CARTESIAN_POINT('Origin',(57.24499247422,-37.38499247422,0.));
#926=CARTESIAN_POINT('',(65.3,-144.45,0.));
#927=CARTESIAN_POINT('Origin',(65.3,-145.5,0.));
#928=CARTESIAN_POINT('',(38.2,-94.55,0.));
#929=CARTESIAN_POINT('Origin',(38.2,-95.6,0.));
#930=CARTESIAN_POINT('',(65.5,-54.45,0.));
#931=CARTESIAN_POINT('Origin',(65.5,-55.5,0.));
#932=CARTESIAN_POINT('',(93.2,-94.25,0.));
#933=CARTESIAN_POINT('Origin',(93.2,-95.3,0.));
#934=CARTESIAN_POINT('Origin',(0.,0.,1.51));
#935=CARTESIAN_POINT('',(55.594,-37.385,1.51));
#936=CARTESIAN_POINT('Origin',(57.24499247422,-37.38499247422,1.51));
#937=CARTESIAN_POINT('',(55.594,-42.6365,1.51));
#938=CARTESIAN_POINT('',(55.594,-42.6365,1.51));
#939=CARTESIAN_POINT('',(54.315904,-48.378772,1.51));
#940=CARTESIAN_POINT('Origin',(42.05551981375,-42.63652284487,1.51));
#941=CARTESIAN_POINT('',(35.086549,-89.584537,1.51));
#942=CARTESIAN_POINT('',(35.086549,-89.584537,1.51));
#943=CARTESIAN_POINT('',(35.086549,-100.755464,1.51));
#944=CARTESIAN_POINT('Origin',(47.055413991133,-95.1700005,1.51));
#945=CARTESIAN_POINT('',(52.865143,-138.852451,1.51));
#946=CARTESIAN_POINT('',(52.865143,-138.852451,1.51));
#947=CARTESIAN_POINT('',(52.392442,-150.302728,1.51));
#948=CARTESIAN_POINT('Origin',(41.574855654634,-144.1212505834,1.51));
#949=CARTESIAN_POINT('',(46.456818,-160.690067,1.51));
#950=CARTESIAN_POINT('',(46.456818,-160.690067,1.51));
#951=CARTESIAN_POINT('',(46.402978,-162.225944,1.51));
#952=CARTESIAN_POINT('Origin',(47.890284432695,-161.5091991864,1.51));
#953=CARTESIAN_POINT('',(51.187789,-164.021897,1.51));
#954=CARTESIAN_POINT('Origin',(49.735165512155,-160.6201359859,1.51));
#955=CARTESIAN_POINT('',(63.084301,-158.94201,1.51));
#956=CARTESIAN_POINT('',(63.084301,-158.94201,1.51));
#957=CARTESIAN_POINT('',(67.915699,-158.942011,1.51));
#958=CARTESIAN_POINT('Origin',(65.499998829057,-164.5993045522,1.51));
#959=CARTESIAN_POINT('',(79.837843,-164.032843,1.51));
#960=CARTESIAN_POINT('',(79.837843,-164.032843,1.51));
#961=CARTESIAN_POINT('',(84.597022,-162.225944,1.51));
#962=CARTESIAN_POINT('Origin',(81.264700193995,-160.619998352,1.51));
#963=CARTESIAN_POINT('',(84.543182,-160.690067,1.51));
#964=CARTESIAN_POINT('Origin',(83.109698183643,-161.5091997958,1.51));
#965=CARTESIAN_POINT('',(78.607555,-150.302724,1.51));
#966=CARTESIAN_POINT('',(78.607555,-150.302724,1.51));
#967=CARTESIAN_POINT('',(78.134857,-138.852451,1.51));
#968=CARTESIAN_POINT('Origin',(89.425137859916,-144.1212515259,1.51));
#969=CARTESIAN_POINT('',(95.913451,-100.755464,1.51));
#970=CARTESIAN_POINT('',(95.913451,-100.755464,1.51));
#971=CARTESIAN_POINT('',(95.913452,-89.584536,1.51));
#972=CARTESIAN_POINT('Origin',(83.944589584622,-95.16999892857,1.51));
#973=CARTESIAN_POINT('',(76.676129,-48.3617,1.51));
#974=CARTESIAN_POINT('',(76.676129,-48.3617,1.51));
#975=CARTESIAN_POINT('Origin',(88.94420675458,-42.63655281085,1.51));
#976=CARTESIAN_POINT('',(65.3,-144.45,1.51));
#977=CARTESIAN_POINT('Origin',(65.3,-145.5,1.51));
#978=CARTESIAN_POINT('',(38.2,-94.55,1.51));
#979=CARTESIAN_POINT('Origin',(38.2,-95.6,1.51));
#980=CARTESIAN_POINT('',(65.5,-54.45,1.51));
#981=CARTESIAN_POINT('Origin',(65.5,-55.5,1.51));
#982=CARTESIAN_POINT('',(93.2,-94.25,1.51));
#983=CARTESIAN_POINT('Origin',(93.2,-95.3,1.51));
#984=CARTESIAN_POINT('Origin',(57.24499247422,-37.38499247422,0.));
#985=CARTESIAN_POINT('',(55.594,-37.385,0.));
#986=CARTESIAN_POINT('Origin',(88.94420675458,-42.63655281085,0.));
#987=CARTESIAN_POINT('',(76.676129,-48.3617,0.));
#988=CARTESIAN_POINT('Origin',(55.594,-42.6365,0.));
#989=CARTESIAN_POINT('',(55.594,-42.6365,0.));
#990=CARTESIAN_POINT('Origin',(76.676129,-48.3617,0.));
#991=CARTESIAN_POINT('',(95.913452,-89.584536,0.));
#992=CARTESIAN_POINT('Origin',(42.05551981375,-42.63652284487,0.));
#993=CARTESIAN_POINT('',(54.315904,-48.378772,0.));
#994=CARTESIAN_POINT('Origin',(83.944589584622,-95.16999892857,0.));
#995=CARTESIAN_POINT('',(95.913451,-100.755464,0.));
#996=CARTESIAN_POINT('Origin',(35.086549,-89.584537,0.));
#997=CARTESIAN_POINT('',(35.086549,-89.584537,0.));
#998=CARTESIAN_POINT('Origin',(95.913451,-100.755464,0.));
#999=CARTESIAN_POINT('',(78.134857,-138.852451,0.));
#1000=CARTESIAN_POINT('Origin',(47.055413991133,-95.1700005,0.));
#1001=CARTESIAN_POINT('',(35.086549,-100.755464,0.));
#1002=CARTESIAN_POINT('Origin',(89.425137859916,-144.1212515259,0.));
#1003=CARTESIAN_POINT('',(78.607555,-150.302724,0.));
#1004=CARTESIAN_POINT('Origin',(52.865143,-138.852451,0.));
#1005=CARTESIAN_POINT('',(52.865143,-138.852451,0.));
#1006=CARTESIAN_POINT('Origin',(78.607555,-150.302724,0.));
#1007=CARTESIAN_POINT('',(84.543182,-160.690067,0.));
#1008=CARTESIAN_POINT('Origin',(41.574855654634,-144.1212505834,0.));
#1009=CARTESIAN_POINT('',(52.392442,-150.302728,0.));
#1010=CARTESIAN_POINT('Origin',(83.109698183643,-161.5091997958,0.));
#1011=CARTESIAN_POINT('',(84.597022,-162.225944,0.));
#1012=CARTESIAN_POINT('Origin',(46.456818,-160.690067,0.));
#1013=CARTESIAN_POINT('',(46.456818,-160.690067,0.));
#1014=CARTESIAN_POINT('Origin',(81.264700193995,-160.619998352,0.));
#1015=CARTESIAN_POINT('',(79.837843,-164.032843,0.));
#1016=CARTESIAN_POINT('Origin',(47.890284432695,-161.5091991864,0.));
#1017=CARTESIAN_POINT('',(46.402978,-162.225944,0.));
#1018=CARTESIAN_POINT('Origin',(79.837843,-164.032843,0.));
#1019=CARTESIAN_POINT('',(67.915699,-158.942011,0.));
#1020=CARTESIAN_POINT('Origin',(49.735165512155,-160.6201359859,0.));
#1021=CARTESIAN_POINT('',(51.187789,-164.021897,0.));
#1022=CARTESIAN_POINT('Origin',(65.499998829057,-164.5993045522,0.));
#1023=CARTESIAN_POINT('',(63.084301,-158.94201,0.));
#1024=CARTESIAN_POINT('Origin',(63.084301,-158.94201,0.));
#1025=CARTESIAN_POINT('Origin',(65.3,-145.5,-0.046));
#1026=CARTESIAN_POINT('',(65.3,-144.45,-0.046));
#1027=CARTESIAN_POINT('Origin',(38.2,-95.6,-0.046));
#1028=CARTESIAN_POINT('',(38.2,-94.55,-0.046));
#1029=CARTESIAN_POINT('Origin',(65.5,-55.5,-0.046));
#1030=CARTESIAN_POINT('',(65.5,-54.45,-0.046));
#1031=CARTESIAN_POINT('Origin',(93.2,-95.3,-0.046));
#1032=CARTESIAN_POINT('',(93.2,-94.25,-0.046));
#1033=CARTESIAN_POINT('',(0.,0.,0.));
#1034=UNCERTAINTY_MEASURE_WITH_UNIT(LENGTH_MEASURE(0.01),#1040,
'DISTANCE_ACCURACY_VALUE',
'Maximum model space distance between geometric entities at asserted c
onnectivities');
#1035=UNCERTAINTY_MEASURE_WITH_UNIT(LENGTH_MEASURE(0.01),#1040,
'DISTANCE_ACCURACY_VALUE',
'Maximum model space distance between geometric entities at asserted c
onnectivities');
#1036=UNCERTAINTY_MEASURE_WITH_UNIT(LENGTH_MEASURE(0.01),#1040,
'DISTANCE_ACCURACY_VALUE',
'Maximum model space distance between geometric entities at asserted c
onnectivities');
#1037=(
GEOMETRIC_REPRESENTATION_CONTEXT(3)
GLOBAL_UNCERTAINTY_ASSIGNED_CONTEXT((#1034))
GLOBAL_UNIT_ASSIGNED_CONTEXT((#1040,#1042,#1043))
REPRESENTATION_CONTEXT('','3D')
);
#1038=(
GEOMETRIC_REPRESENTATION_CONTEXT(3)
GLOBAL_UNCERTAINTY_ASSIGNED_CONTEXT((#1035))
GLOBAL_UNIT_ASSIGNED_CONTEXT((#1040,#1042,#1043))
REPRESENTATION_CONTEXT('','3D')
);
#1039=(
GEOMETRIC_REPRESENTATION_CONTEXT(3)
GLOBAL_UNCERTAINTY_ASSIGNED_CONTEXT((#1036))
GLOBAL_UNIT_ASSIGNED_CONTEXT((#1040,#1042,#1043))
REPRESENTATION_CONTEXT('','3D')
);
#1040=(
LENGTH_UNIT()
NAMED_UNIT(*)
SI_UNIT(.MILLI.,.METRE.)
);
#1041=(
LENGTH_UNIT()
NAMED_UNIT(*)
SI_UNIT($,.METRE.)
);
#1042=(
NAMED_UNIT(*)
PLANE_ANGLE_UNIT()
SI_UNIT($,.RADIAN.)
);
#1043=(
NAMED_UNIT(*)
SI_UNIT($,.STERADIAN.)
SOLID_ANGLE_UNIT()
);
#1044=SHAPE_DEFINITION_REPRESENTATION(#1046,#1049);
#1045=SHAPE_DEFINITION_REPRESENTATION(#1047,#1050);
#1046=PRODUCT_DEFINITION_SHAPE('',$,#1052);
#1047=PRODUCT_DEFINITION_SHAPE('',$,#1053);
#1048=PRODUCT_DEFINITION_SHAPE($,$,#14);
#1049=SHAPE_REPRESENTATION('',(#610,#676),#1037);
#1050=SHAPE_REPRESENTATION('',(#611),#1038);
#1051=PRODUCT_DEFINITION_CONTEXT('part definition',#1059,'design');
#1052=PRODUCT_DEFINITION('2026-06-01-17-03-11-863','bottompcbv2',#1054,
#1051);
#1053=PRODUCT_DEFINITION('2026-06-01-17-03-11-864','bottompcb_PCB',#1055,
#1051);
#1054=PRODUCT_DEFINITION_FORMATION('',$,#1061);
#1055=PRODUCT_DEFINITION_FORMATION('',$,#1062);
#1056=PRODUCT_RELATED_PRODUCT_CATEGORY('bottompcbv2','bottompcbv2',(#1061));
#1057=PRODUCT_RELATED_PRODUCT_CATEGORY('bottompcb_PCB','bottompcb_PCB',
(#1062));
#1058=APPLICATION_PROTOCOL_DEFINITION('international standard',
'automotive_design',2009,#1059);
#1059=APPLICATION_CONTEXT(
'Core Data for Automotive Mechanical Design Process');
#1060=PRODUCT_CONTEXT('part definition',#1059,'mechanical');
#1061=PRODUCT('2026-06-01-17-03-11-863','bottompcbv2',
'KiCad electronic assembly',(#1060));
#1062=PRODUCT('2026-06-01-17-03-11-864','bottompcb_PCB',$,(#1060));
#1063=PRESENTATION_STYLE_ASSIGNMENT((#1065));
#1064=PRESENTATION_STYLE_ASSIGNMENT((#1066));
#1065=SURFACE_STYLE_USAGE(.BOTH.,#1067);
#1066=SURFACE_STYLE_USAGE(.BOTH.,#1068);
#1067=SURFACE_SIDE_STYLE('',(#1069));
#1068=SURFACE_SIDE_STYLE('',(#1070));
#1069=SURFACE_STYLE_FILL_AREA(#1071);
#1070=SURFACE_STYLE_FILL_AREA(#1072);
#1071=FILL_AREA_STYLE('Steel - Satin',(#1073));
#1072=FILL_AREA_STYLE('Opaque(80,124,105)',(#1074));
#1073=FILL_AREA_STYLE_COLOUR('Steel - Satin',#1075);
#1074=FILL_AREA_STYLE_COLOUR('Opaque(80,124,105)',#1076);
#1075=COLOUR_RGB('Steel - Satin',0.627450980392157,0.627450980392157,0.627450980392157);
#1076=COLOUR_RGB('Opaque(80,124,105)',0.313725490196078,0.486274509803922,
0.411764705882353);
ENDSEC;
END-ISO-10303-21;
