ISO-10303-21;
HEADER;
/* Generated by software containing ST-Developer
 * from STEP Tools, Inc. (www.steptools.com) 
 */

FILE_DESCRIPTION(
/* description */ (''),
/* implementation_level */ '2;1');

FILE_NAME(
/* name */ 'Tactile Buttons.step',
/* time_stamp */ '2026-06-03T17:56:30-04:00',
/* author */ (''),
/* organization */ (''),
/* preprocessor_version */ 'ST-DEVELOPER v20.1',
/* originating_system */ 'Autodesk Translation Framework v15.8.0.0',
/* authorisation */ '');

FILE_SCHEMA (('AUTOMOTIVE_DESIGN { 1 0 10303 214 3 1 1 }'));
ENDSEC;

DATA;
#10=MECHANICAL_DESIGN_GEOMETRIC_PRESENTATION_REPRESENTATION('',(#13),#167);
#11=SHAPE_REPRESENTATION_RELATIONSHIP('SRR','None',#177,#12);
#12=ADVANCED_BREP_SHAPE_REPRESENTATION('',(#14),#166);
#13=STYLED_ITEM('',(#187),#14);
#14=MANIFOLD_SOLID_BREP('Body2',#85);
#15=FACE_BOUND('',#35,.T.);
#16=LINE('',#154,#18);
#17=LINE('',#163,#19);
#18=VECTOR('',#128,0.0885);
#19=VECTOR('',#141,0.0392688043098042);
#20=CYLINDRICAL_SURFACE('',#105,0.0885);
#21=CYLINDRICAL_SURFACE('',#111,0.0392688043098042);
#22=PLANE('',#104);
#23=PLANE('',#107);
#24=PLANE('',#109);
#25=FACE_OUTER_BOUND('',#31,.T.);
#26=FACE_OUTER_BOUND('',#32,.T.);
#27=FACE_OUTER_BOUND('',#33,.T.);
#28=FACE_OUTER_BOUND('',#34,.T.);
#29=FACE_OUTER_BOUND('',#36,.T.);
#30=FACE_OUTER_BOUND('',#37,.T.);
#31=EDGE_LOOP('',(#60,#61,#62,#63,#64));
#32=EDGE_LOOP('',(#65));
#33=EDGE_LOOP('',(#66,#67,#68,#69,#70));
#34=EDGE_LOOP('',(#71));
#35=EDGE_LOOP('',(#72));
#36=EDGE_LOOP('',(#73));
#37=EDGE_LOOP('',(#74,#75,#76,#77));
#38=CIRCLE('',#100,0.0885);
#39=CIRCLE('',#101,0.04);
#40=CIRCLE('',#102,0.0485);
#41=CIRCLE('',#103,0.0885);
#42=CIRCLE('',#106,0.0885);
#43=CIRCLE('',#108,0.0392688043098042);
#44=CIRCLE('',#110,0.0392688043098042);
#45=VERTEX_POINT('',#144);
#46=VERTEX_POINT('',#145);
#47=VERTEX_POINT('',#147);
#48=VERTEX_POINT('',#153);
#49=VERTEX_POINT('',#157);
#50=VERTEX_POINT('',#160);
#51=EDGE_CURVE('',#45,#46,#38,.T.);
#52=EDGE_CURVE('',#46,#47,#39,.T.);
#53=EDGE_CURVE('',#47,#47,#40,.T.);
#54=EDGE_CURVE('',#46,#45,#41,.T.);
#55=EDGE_CURVE('',#45,#48,#16,.T.);
#56=EDGE_CURVE('',#48,#48,#42,.T.);
#57=EDGE_CURVE('',#49,#49,#43,.T.);
#58=EDGE_CURVE('',#50,#50,#44,.T.);
#59=EDGE_CURVE('',#50,#49,#17,.T.);
#60=ORIENTED_EDGE('',*,*,#51,.T.);
#61=ORIENTED_EDGE('',*,*,#52,.T.);
#62=ORIENTED_EDGE('',*,*,#53,.T.);
#63=ORIENTED_EDGE('',*,*,#52,.F.);
#64=ORIENTED_EDGE('',*,*,#54,.T.);
#65=ORIENTED_EDGE('',*,*,#53,.F.);
#66=ORIENTED_EDGE('',*,*,#51,.F.);
#67=ORIENTED_EDGE('',*,*,#55,.T.);
#68=ORIENTED_EDGE('',*,*,#56,.F.);
#69=ORIENTED_EDGE('',*,*,#55,.F.);
#70=ORIENTED_EDGE('',*,*,#54,.F.);
#71=ORIENTED_EDGE('',*,*,#56,.T.);
#72=ORIENTED_EDGE('',*,*,#57,.F.);
#73=ORIENTED_EDGE('',*,*,#58,.F.);
#74=ORIENTED_EDGE('',*,*,#58,.T.);
#75=ORIENTED_EDGE('',*,*,#59,.T.);
#76=ORIENTED_EDGE('',*,*,#57,.T.);
#77=ORIENTED_EDGE('',*,*,#59,.F.);
#78=TOROIDAL_SURFACE('',#99,0.0485,0.04);
#79=ADVANCED_FACE('',(#25),#78,.T.);
#80=ADVANCED_FACE('',(#26),#22,.T.);
#81=ADVANCED_FACE('',(#27),#20,.T.);
#82=ADVANCED_FACE('',(#28,#15),#23,.F.);
#83=ADVANCED_FACE('',(#29),#24,.T.);
#84=ADVANCED_FACE('',(#30),#21,.T.);
#85=CLOSED_SHELL('',(#79,#80,#81,#82,#83,#84));
#86=DERIVED_UNIT_ELEMENT(#88,1.);
#87=DERIVED_UNIT_ELEMENT(#171,-3.);
#88=(
MASS_UNIT()
NAMED_UNIT(*)
SI_UNIT(.KILO.,.GRAM.)
);
#89=DERIVED_UNIT((#86,#87));
#90=MEASURE_REPRESENTATION_ITEM('density measure',
POSITIVE_RATIO_MEASURE(930.),#89);
#91=PROPERTY_DEFINITION_REPRESENTATION(#96,#93);
#92=PROPERTY_DEFINITION_REPRESENTATION(#97,#94);
#93=REPRESENTATION('material name',(#95),#166);
#94=REPRESENTATION('density',(#90),#166);
#95=DESCRIPTIVE_REPRESENTATION_ITEM('Rubber','Rubber');
#96=PROPERTY_DEFINITION('material property','material name',#179);
#97=PROPERTY_DEFINITION('material property','density of part',#179);
#98=AXIS2_PLACEMENT_3D('',#142,#112,#113);
#99=AXIS2_PLACEMENT_3D('',#143,#114,#115);
#100=AXIS2_PLACEMENT_3D('',#146,#116,#117);
#101=AXIS2_PLACEMENT_3D('',#148,#118,#119);
#102=AXIS2_PLACEMENT_3D('',#149,#120,#121);
#103=AXIS2_PLACEMENT_3D('',#150,#122,#123);
#104=AXIS2_PLACEMENT_3D('',#151,#124,#125);
#105=AXIS2_PLACEMENT_3D('',#152,#126,#127);
#106=AXIS2_PLACEMENT_3D('',#155,#129,#130);
#107=AXIS2_PLACEMENT_3D('',#156,#131,#132);
#108=AXIS2_PLACEMENT_3D('',#158,#133,#134);
#109=AXIS2_PLACEMENT_3D('',#159,#135,#136);
#110=AXIS2_PLACEMENT_3D('',#161,#137,#138);
#111=AXIS2_PLACEMENT_3D('',#162,#139,#140);
#112=DIRECTION('axis',(0.,0.,1.));
#113=DIRECTION('refdir',(1.,0.,0.));
#114=DIRECTION('center_axis',(0.,-1.,0.));
#115=DIRECTION('ref_axis',(0.,0.,-1.));
#116=DIRECTION('center_axis',(0.,1.,0.));
#117=DIRECTION('ref_axis',(-1.,0.,0.));
#118=DIRECTION('center_axis',(-1.,0.,-1.22464679914735E-16));
#119=DIRECTION('ref_axis',(-1.22464679914735E-16,0.,1.));
#120=DIRECTION('center_axis',(0.,-1.,0.));
#121=DIRECTION('ref_axis',(-1.,0.,0.));
#122=DIRECTION('center_axis',(0.,1.,0.));
#123=DIRECTION('ref_axis',(-1.,0.,0.));
#124=DIRECTION('center_axis',(0.,1.,0.));
#125=DIRECTION('ref_axis',(-1.,0.,0.));
#126=DIRECTION('center_axis',(0.,1.,0.));
#127=DIRECTION('ref_axis',(-1.,0.,0.));
#128=DIRECTION('',(0.,-1.,0.));
#129=DIRECTION('center_axis',(0.,-1.,0.));
#130=DIRECTION('ref_axis',(-1.,0.,0.));
#131=DIRECTION('center_axis',(0.,1.,0.));
#132=DIRECTION('ref_axis',(-1.,0.,0.));
#133=DIRECTION('center_axis',(0.,-1.,0.));
#134=DIRECTION('ref_axis',(1.,0.,0.));
#135=DIRECTION('center_axis',(0.,-1.,0.));
#136=DIRECTION('ref_axis',(1.,0.,0.));
#137=DIRECTION('center_axis',(0.,1.,0.));
#138=DIRECTION('ref_axis',(1.,0.,0.));
#139=DIRECTION('center_axis',(0.,-1.,0.));
#140=DIRECTION('ref_axis',(1.,0.,0.));
#141=DIRECTION('',(0.,1.,0.));
#142=CARTESIAN_POINT('',(0.,0.,0.));
#143=CARTESIAN_POINT('Origin',(0.,0.06,0.));
#144=CARTESIAN_POINT('',(0.0885,0.06,-1.08381241724541E-17));
#145=CARTESIAN_POINT('',(-1.08381241724541E-17,0.06,0.0885));
#146=CARTESIAN_POINT('Origin',(0.,0.06,0.));
#147=CARTESIAN_POINT('',(-5.93953697586466E-18,0.1,0.0485));
#148=CARTESIAN_POINT('Origin',(-5.93953697586466E-18,0.06,0.0485));
#149=CARTESIAN_POINT('Origin',(0.,0.1,0.));
#150=CARTESIAN_POINT('Origin',(0.,0.06,0.));
#151=CARTESIAN_POINT('Origin',(0.,0.1,0.));
#152=CARTESIAN_POINT('Origin',(0.,0.,0.));
#153=CARTESIAN_POINT('',(0.0885,-0.04,-1.08381241724541E-17));
#154=CARTESIAN_POINT('',(0.0885,0.,-1.08381241724541E-17));
#155=CARTESIAN_POINT('Origin',(0.,-0.04,0.));
#156=CARTESIAN_POINT('Origin',(0.,-0.04,0.));
#157=CARTESIAN_POINT('',(-0.0392688043098042,-0.04,-4.80904155043455E-18));
#158=CARTESIAN_POINT('Origin',(0.,-0.04,0.));
#159=CARTESIAN_POINT('Origin',(0.,-0.475433070866142,0.));
#160=CARTESIAN_POINT('',(-0.0392688043098042,-0.475433070866142,-4.80904155043455E-18));
#161=CARTESIAN_POINT('Origin',(0.,-0.475433070866142,0.));
#162=CARTESIAN_POINT('Origin',(0.,0.,0.));
#163=CARTESIAN_POINT('',(-0.0392688043098042,0.,-4.80904155043455E-18));
#164=UNCERTAINTY_MEASURE_WITH_UNIT(LENGTH_MEASURE(0.000393700787401575),
#169,'DISTANCE_ACCURACY_VALUE',
'Maximum model space distance between geometric entities at asserted c
onnectivities');
#165=UNCERTAINTY_MEASURE_WITH_UNIT(LENGTH_MEASURE(0.000393700787401575),
#169,'DISTANCE_ACCURACY_VALUE',
'Maximum model space distance between geometric entities at asserted c
onnectivities');
#166=(
GEOMETRIC_REPRESENTATION_CONTEXT(3)
GLOBAL_UNCERTAINTY_ASSIGNED_CONTEXT((#164))
GLOBAL_UNIT_ASSIGNED_CONTEXT((#169,#173,#174))
REPRESENTATION_CONTEXT('','3D')
);
#167=(
GEOMETRIC_REPRESENTATION_CONTEXT(3)
GLOBAL_UNCERTAINTY_ASSIGNED_CONTEXT((#165))
GLOBAL_UNIT_ASSIGNED_CONTEXT((#169,#173,#174))
REPRESENTATION_CONTEXT('','3D')
);
#168=DIMENSIONAL_EXPONENTS(1.,0.,0.,0.,0.,0.,0.);
#169=(
CONVERSION_BASED_UNIT('inch',#172)
LENGTH_UNIT()
NAMED_UNIT(#168)
);
#170=(
LENGTH_UNIT()
NAMED_UNIT(*)
SI_UNIT(.MILLI.,.METRE.)
);
#171=(
LENGTH_UNIT()
NAMED_UNIT(*)
SI_UNIT($,.METRE.)
);
#172=LENGTH_MEASURE_WITH_UNIT(LENGTH_MEASURE(25.4),#170);
#173=(
NAMED_UNIT(*)
PLANE_ANGLE_UNIT()
SI_UNIT($,.RADIAN.)
);
#174=(
NAMED_UNIT(*)
SI_UNIT($,.STERADIAN.)
SOLID_ANGLE_UNIT()
);
#175=SHAPE_DEFINITION_REPRESENTATION(#176,#177);
#176=PRODUCT_DEFINITION_SHAPE('',$,#179);
#177=SHAPE_REPRESENTATION('',(#98),#166);
#178=PRODUCT_DEFINITION_CONTEXT('part definition',#183,'design');
#179=PRODUCT_DEFINITION('2026-06-01-19-31-11-983','rubber button',#180,
#178);
#180=PRODUCT_DEFINITION_FORMATION('',$,#185);
#181=PRODUCT_RELATED_PRODUCT_CATEGORY('rubber button','rubber button',(#185));
#182=APPLICATION_PROTOCOL_DEFINITION('international standard',
'automotive_design',2009,#183);
#183=APPLICATION_CONTEXT(
'Core Data for Automotive Mechanical Design Process');
#184=PRODUCT_CONTEXT('part definition',#183,'mechanical');
#185=PRODUCT('2026-06-01-19-31-11-983','rubber button',$,(#184));
#186=PRESENTATION_STYLE_ASSIGNMENT((#188));
#187=PRESENTATION_STYLE_ASSIGNMENT((#189));
#188=SURFACE_STYLE_USAGE(.BOTH.,#190);
#189=SURFACE_STYLE_USAGE(.BOTH.,#191);
#190=SURFACE_SIDE_STYLE('',(#192));
#191=SURFACE_SIDE_STYLE('',(#193));
#192=SURFACE_STYLE_FILL_AREA(#194);
#193=SURFACE_STYLE_FILL_AREA(#195);
#194=FILL_AREA_STYLE('Rubber - Soft',(#196));
#195=FILL_AREA_STYLE('Rubber - Hard',(#197));
#196=FILL_AREA_STYLE_COLOUR('Rubber - Soft',#198);
#197=FILL_AREA_STYLE_COLOUR('Rubber - Hard',#199);
#198=COLOUR_RGB('Rubber - Soft',0.152941176470588,0.152941176470588,0.152941176470588);
#199=COLOUR_RGB('Rubber - Hard',1.,0.909803921568627,0.698039215686274);
ENDSEC;
END-ISO-10303-21;
