ISO-10303-21;
HEADER;
/* Generated by software containing ST-Developer
 * from STEP Tools, Inc. (www.steptools.com) 
 */

FILE_DESCRIPTION(
/* description */ (''),
/* implementation_level */ '2;1');

FILE_NAME(
/* name */ 'Jack 3_5 mm TRS femaile.step',
/* time_stamp */ '2026-06-03T18:15:27-04:00',
/* author */ (''),
/* organization */ (''),
/* preprocessor_version */ 'ST-DEVELOPER v20.1',
/* originating_system */ 'Autodesk Translation Framework v15.8.0.0',
/* authorisation */ '');

FILE_SCHEMA (('AUTOMOTIVE_DESIGN { 1 0 10303 214 3 1 1 }'));
ENDSEC;

DATA;
#10=MECHANICAL_DESIGN_GEOMETRIC_PRESENTATION_REPRESENTATION('',(#16,#17,
#18,#19,#20,#21,#22,#23,#24,#25,#26),#764);
#11=SHAPE_REPRESENTATION_RELATIONSHIP('SRR','None',#771,#12);
#12=ADVANCED_BREP_SHAPE_REPRESENTATION('',(#27,#28,#29,#30),#763);
#13=CONICAL_SURFACE('',#502,2.65,0.785398163397446);
#14=FACE_BOUND('',#89,.T.);
#15=FACE_BOUND('',#96,.T.);
#16=STYLED_ITEM('',(#780),#27);
#17=STYLED_ITEM('',(#780),#28);
#18=STYLED_ITEM('',(#781),#437);
#19=STYLED_ITEM('',(#781),#438);
#20=STYLED_ITEM('',(#781),#439);
#21=STYLED_ITEM('',(#781),#440);
#22=STYLED_ITEM('',(#781),#441);
#23=STYLED_ITEM('',(#781),#442);
#24=STYLED_ITEM('',(#781),#446);
#25=STYLED_ITEM('',(#780),#29);
#26=STYLED_ITEM('',(#780),#30);
#27=MANIFOLD_SOLID_BREP('Body1',#454);
#28=MANIFOLD_SOLID_BREP('Body4',#455);
#29=MANIFOLD_SOLID_BREP('Body6',#456);
#30=MANIFOLD_SOLID_BREP('Body8',#457);
#31=CYLINDRICAL_SURFACE('',#478,0.75);
#32=CYLINDRICAL_SURFACE('',#486,0.75);
#33=CYLINDRICAL_SURFACE('',#497,3.);
#34=CYLINDRICAL_SURFACE('',#499,1.8);
#35=CYLINDRICAL_SURFACE('',#510,0.75);
#36=CIRCLE('',#473,0.75);
#37=CIRCLE('',#476,0.75);
#38=CIRCLE('',#480,0.75);
#39=CIRCLE('',#483,0.75);
#40=CIRCLE('',#488,3.);
#41=CIRCLE('',#495,2.65);
#42=CIRCLE('',#496,1.8);
#43=CIRCLE('',#498,3.);
#44=CIRCLE('',#500,1.8);
#45=CIRCLE('',#504,0.75);
#46=CIRCLE('',#507,0.75);
#47=FACE_OUTER_BOUND('',#76,.T.);
#48=FACE_OUTER_BOUND('',#77,.T.);
#49=FACE_OUTER_BOUND('',#78,.T.);
#50=FACE_OUTER_BOUND('',#79,.T.);
#51=FACE_OUTER_BOUND('',#80,.T.);
#52=FACE_OUTER_BOUND('',#81,.T.);
#53=FACE_OUTER_BOUND('',#82,.T.);
#54=FACE_OUTER_BOUND('',#83,.T.);
#55=FACE_OUTER_BOUND('',#84,.T.);
#56=FACE_OUTER_BOUND('',#85,.T.);
#57=FACE_OUTER_BOUND('',#86,.T.);
#58=FACE_OUTER_BOUND('',#87,.T.);
#59=FACE_OUTER_BOUND('',#88,.T.);
#60=FACE_OUTER_BOUND('',#90,.T.);
#61=FACE_OUTER_BOUND('',#91,.T.);
#62=FACE_OUTER_BOUND('',#92,.T.);
#63=FACE_OUTER_BOUND('',#93,.T.);
#64=FACE_OUTER_BOUND('',#94,.T.);
#65=FACE_OUTER_BOUND('',#95,.T.);
#66=FACE_OUTER_BOUND('',#97,.T.);
#67=FACE_OUTER_BOUND('',#98,.T.);
#68=FACE_OUTER_BOUND('',#99,.T.);
#69=FACE_OUTER_BOUND('',#100,.T.);
#70=FACE_OUTER_BOUND('',#101,.T.);
#71=FACE_OUTER_BOUND('',#102,.T.);
#72=FACE_OUTER_BOUND('',#103,.T.);
#73=FACE_OUTER_BOUND('',#104,.T.);
#74=FACE_OUTER_BOUND('',#105,.T.);
#75=FACE_OUTER_BOUND('',#106,.T.);
#76=EDGE_LOOP('',(#290,#291,#292,#293));
#77=EDGE_LOOP('',(#294,#295,#296,#297));
#78=EDGE_LOOP('',(#298,#299,#300,#301));
#79=EDGE_LOOP('',(#302,#303,#304,#305));
#80=EDGE_LOOP('',(#306,#307,#308,#309));
#81=EDGE_LOOP('',(#310,#311,#312,#313));
#82=EDGE_LOOP('',(#314,#315,#316,#317));
#83=EDGE_LOOP('',(#318,#319,#320,#321));
#84=EDGE_LOOP('',(#322,#323,#324,#325));
#85=EDGE_LOOP('',(#326,#327,#328,#329));
#86=EDGE_LOOP('',(#330,#331,#332,#333));
#87=EDGE_LOOP('',(#334,#335,#336,#337));
#88=EDGE_LOOP('',(#338,#339,#340,#341));
#89=EDGE_LOOP('',(#342));
#90=EDGE_LOOP('',(#343,#344,#345,#346));
#91=EDGE_LOOP('',(#347,#348,#349,#350));
#92=EDGE_LOOP('',(#351,#352,#353,#354));
#93=EDGE_LOOP('',(#355,#356,#357,#358));
#94=EDGE_LOOP('',(#359,#360,#361,#362));
#95=EDGE_LOOP('',(#363));
#96=EDGE_LOOP('',(#364));
#97=EDGE_LOOP('',(#365,#366,#367,#368));
#98=EDGE_LOOP('',(#369,#370,#371,#372));
#99=EDGE_LOOP('',(#373));
#100=EDGE_LOOP('',(#374,#375,#376,#377));
#101=EDGE_LOOP('',(#378,#379,#380,#381));
#102=EDGE_LOOP('',(#382,#383,#384,#385));
#103=EDGE_LOOP('',(#386,#387,#388,#389));
#104=EDGE_LOOP('',(#390,#391,#392,#393));
#105=EDGE_LOOP('',(#394,#395,#396,#397));
#106=EDGE_LOOP('',(#398,#399,#400,#401));
#107=LINE('',#642,#152);
#108=LINE('',#644,#153);
#109=LINE('',#646,#154);
#110=LINE('',#647,#155);
#111=LINE('',#651,#156);
#112=LINE('',#653,#157);
#113=LINE('',#657,#158);
#114=LINE('',#658,#159);
#115=LINE('',#659,#160);
#116=LINE('',#662,#161);
#117=LINE('',#668,#162);
#118=LINE('',#672,#163);
#119=LINE('',#673,#164);
#120=LINE('',#677,#165);
#121=LINE('',#678,#166);
#122=LINE('',#679,#167);
#123=LINE('',#684,#168);
#124=LINE('',#685,#169);
#125=LINE('',#687,#170);
#126=LINE('',#688,#171);
#127=LINE('',#694,#172);
#128=LINE('',#696,#173);
#129=LINE('',#698,#174);
#130=LINE('',#699,#175);
#131=LINE('',#704,#176);
#132=LINE('',#706,#177);
#133=LINE('',#707,#178);
#134=LINE('',#710,#179);
#135=LINE('',#712,#180);
#136=LINE('',#713,#181);
#137=LINE('',#715,#182);
#138=LINE('',#716,#183);
#139=LINE('',#726,#184);
#140=LINE('',#730,#185);
#141=LINE('',#734,#186);
#142=LINE('',#738,#187);
#143=LINE('',#742,#188);
#144=LINE('',#743,#189);
#145=LINE('',#747,#190);
#146=LINE('',#748,#191);
#147=LINE('',#749,#192);
#148=LINE('',#754,#193);
#149=LINE('',#755,#194);
#150=LINE('',#757,#195);
#151=LINE('',#758,#196);
#152=VECTOR('',#515,1.75);
#153=VECTOR('',#516,0.8);
#154=VECTOR('',#517,1.75);
#155=VECTOR('',#518,0.8);
#156=VECTOR('',#521,1.75);
#157=VECTOR('',#524,1.5);
#158=VECTOR('',#527,1.75);
#159=VECTOR('',#528,0.8);
#160=VECTOR('',#529,0.8);
#161=VECTOR('',#534,1.5);
#162=VECTOR('',#541,1.75);
#163=VECTOR('',#544,1.75);
#164=VECTOR('',#545,1.5);
#165=VECTOR('',#548,1.75);
#166=VECTOR('',#549,0.5);
#167=VECTOR('',#550,0.5);
#168=VECTOR('',#555,1.5);
#169=VECTOR('',#556,1.75);
#170=VECTOR('',#559,0.5);
#171=VECTOR('',#560,0.5);
#172=VECTOR('',#567,11.5);
#173=VECTOR('',#568,6.3);
#174=VECTOR('',#569,11.5);
#175=VECTOR('',#570,6.3);
#176=VECTOR('',#575,14.2);
#177=VECTOR('',#576,14.2);
#178=VECTOR('',#577,6.3);
#179=VECTOR('',#580,14.2);
#180=VECTOR('',#581,6.3);
#181=VECTOR('',#582,14.2);
#182=VECTOR('',#585,11.5);
#183=VECTOR('',#586,11.5);
#184=VECTOR('',#599,3.);
#185=VECTOR('',#604,1.8);
#186=VECTOR('',#611,2.65);
#187=VECTOR('',#614,1.75);
#188=VECTOR('',#617,1.75);
#189=VECTOR('',#618,1.5);
#190=VECTOR('',#621,1.75);
#191=VECTOR('',#622,0.5);
#192=VECTOR('',#623,0.5);
#193=VECTOR('',#628,1.5);
#194=VECTOR('',#629,1.75);
#195=VECTOR('',#632,0.5);
#196=VECTOR('',#633,0.5);
#197=VERTEX_POINT('',#640);
#198=VERTEX_POINT('',#641);
#199=VERTEX_POINT('',#643);
#200=VERTEX_POINT('',#645);
#201=VERTEX_POINT('',#649);
#202=VERTEX_POINT('',#650);
#203=VERTEX_POINT('',#655);
#204=VERTEX_POINT('',#656);
#205=VERTEX_POINT('',#666);
#206=VERTEX_POINT('',#667);
#207=VERTEX_POINT('',#669);
#208=VERTEX_POINT('',#671);
#209=VERTEX_POINT('',#675);
#210=VERTEX_POINT('',#676);
#211=VERTEX_POINT('',#681);
#212=VERTEX_POINT('',#683);
#213=VERTEX_POINT('',#692);
#214=VERTEX_POINT('',#693);
#215=VERTEX_POINT('',#695);
#216=VERTEX_POINT('',#697);
#217=VERTEX_POINT('',#700);
#218=VERTEX_POINT('',#703);
#219=VERTEX_POINT('',#705);
#220=VERTEX_POINT('',#709);
#221=VERTEX_POINT('',#711);
#222=VERTEX_POINT('',#720);
#223=VERTEX_POINT('',#722);
#224=VERTEX_POINT('',#725);
#225=VERTEX_POINT('',#729);
#226=VERTEX_POINT('',#736);
#227=VERTEX_POINT('',#737);
#228=VERTEX_POINT('',#739);
#229=VERTEX_POINT('',#741);
#230=VERTEX_POINT('',#745);
#231=VERTEX_POINT('',#746);
#232=VERTEX_POINT('',#751);
#233=VERTEX_POINT('',#753);
#234=EDGE_CURVE('',#197,#198,#107,.T.);
#235=EDGE_CURVE('',#197,#199,#108,.F.);
#236=EDGE_CURVE('',#199,#200,#109,.T.);
#237=EDGE_CURVE('',#200,#198,#110,.T.);
#238=EDGE_CURVE('',#201,#202,#111,.T.);
#239=EDGE_CURVE('',#201,#197,#36,.F.);
#240=EDGE_CURVE('',#198,#202,#112,.T.);
#241=EDGE_CURVE('',#203,#204,#113,.T.);
#242=EDGE_CURVE('',#203,#201,#114,.F.);
#243=EDGE_CURVE('',#202,#204,#115,.T.);
#244=EDGE_CURVE('',#199,#203,#37,.F.);
#245=EDGE_CURVE('',#204,#200,#116,.T.);
#246=EDGE_CURVE('',#205,#206,#117,.T.);
#247=EDGE_CURVE('',#205,#207,#38,.F.);
#248=EDGE_CURVE('',#207,#208,#118,.T.);
#249=EDGE_CURVE('',#208,#206,#119,.T.);
#250=EDGE_CURVE('',#209,#210,#120,.T.);
#251=EDGE_CURVE('',#209,#205,#121,.F.);
#252=EDGE_CURVE('',#206,#210,#122,.T.);
#253=EDGE_CURVE('',#211,#209,#39,.F.);
#254=EDGE_CURVE('',#210,#212,#123,.T.);
#255=EDGE_CURVE('',#211,#212,#124,.T.);
#256=EDGE_CURVE('',#207,#211,#125,.F.);
#257=EDGE_CURVE('',#212,#208,#126,.T.);
#258=EDGE_CURVE('',#213,#214,#127,.T.);
#259=EDGE_CURVE('',#215,#214,#128,.T.);
#260=EDGE_CURVE('',#216,#215,#129,.T.);
#261=EDGE_CURVE('',#216,#213,#130,.T.);
#262=EDGE_CURVE('',#217,#217,#40,.F.);
#263=EDGE_CURVE('',#218,#213,#131,.T.);
#264=EDGE_CURVE('',#219,#216,#132,.T.);
#265=EDGE_CURVE('',#219,#218,#133,.T.);
#266=EDGE_CURVE('',#214,#220,#134,.T.);
#267=EDGE_CURVE('',#221,#220,#135,.T.);
#268=EDGE_CURVE('',#215,#221,#136,.T.);
#269=EDGE_CURVE('',#220,#218,#137,.T.);
#270=EDGE_CURVE('',#221,#219,#138,.T.);
#271=EDGE_CURVE('',#222,#222,#41,.T.);
#272=EDGE_CURVE('',#223,#223,#42,.T.);
#273=EDGE_CURVE('',#217,#224,#139,.T.);
#274=EDGE_CURVE('',#224,#224,#43,.F.);
#275=EDGE_CURVE('',#223,#225,#140,.T.);
#276=EDGE_CURVE('',#225,#225,#44,.T.);
#277=EDGE_CURVE('',#224,#222,#141,.T.);
#278=EDGE_CURVE('',#226,#227,#142,.T.);
#279=EDGE_CURVE('',#226,#228,#45,.F.);
#280=EDGE_CURVE('',#228,#229,#143,.T.);
#281=EDGE_CURVE('',#229,#227,#144,.T.);
#282=EDGE_CURVE('',#230,#231,#145,.T.);
#283=EDGE_CURVE('',#230,#226,#146,.F.);
#284=EDGE_CURVE('',#227,#231,#147,.T.);
#285=EDGE_CURVE('',#232,#230,#46,.F.);
#286=EDGE_CURVE('',#231,#233,#148,.T.);
#287=EDGE_CURVE('',#232,#233,#149,.T.);
#288=EDGE_CURVE('',#228,#232,#150,.F.);
#289=EDGE_CURVE('',#233,#229,#151,.T.);
#290=ORIENTED_EDGE('',*,*,#234,.F.);
#291=ORIENTED_EDGE('',*,*,#235,.T.);
#292=ORIENTED_EDGE('',*,*,#236,.T.);
#293=ORIENTED_EDGE('',*,*,#237,.T.);
#294=ORIENTED_EDGE('',*,*,#238,.F.);
#295=ORIENTED_EDGE('',*,*,#239,.T.);
#296=ORIENTED_EDGE('',*,*,#234,.T.);
#297=ORIENTED_EDGE('',*,*,#240,.T.);
#298=ORIENTED_EDGE('',*,*,#241,.F.);
#299=ORIENTED_EDGE('',*,*,#242,.T.);
#300=ORIENTED_EDGE('',*,*,#238,.T.);
#301=ORIENTED_EDGE('',*,*,#243,.T.);
#302=ORIENTED_EDGE('',*,*,#244,.T.);
#303=ORIENTED_EDGE('',*,*,#241,.T.);
#304=ORIENTED_EDGE('',*,*,#245,.T.);
#305=ORIENTED_EDGE('',*,*,#236,.F.);
#306=ORIENTED_EDGE('',*,*,#237,.F.);
#307=ORIENTED_EDGE('',*,*,#245,.F.);
#308=ORIENTED_EDGE('',*,*,#243,.F.);
#309=ORIENTED_EDGE('',*,*,#240,.F.);
#310=ORIENTED_EDGE('',*,*,#235,.F.);
#311=ORIENTED_EDGE('',*,*,#239,.F.);
#312=ORIENTED_EDGE('',*,*,#242,.F.);
#313=ORIENTED_EDGE('',*,*,#244,.F.);
#314=ORIENTED_EDGE('',*,*,#246,.F.);
#315=ORIENTED_EDGE('',*,*,#247,.T.);
#316=ORIENTED_EDGE('',*,*,#248,.T.);
#317=ORIENTED_EDGE('',*,*,#249,.T.);
#318=ORIENTED_EDGE('',*,*,#250,.F.);
#319=ORIENTED_EDGE('',*,*,#251,.T.);
#320=ORIENTED_EDGE('',*,*,#246,.T.);
#321=ORIENTED_EDGE('',*,*,#252,.T.);
#322=ORIENTED_EDGE('',*,*,#253,.T.);
#323=ORIENTED_EDGE('',*,*,#250,.T.);
#324=ORIENTED_EDGE('',*,*,#254,.T.);
#325=ORIENTED_EDGE('',*,*,#255,.F.);
#326=ORIENTED_EDGE('',*,*,#248,.F.);
#327=ORIENTED_EDGE('',*,*,#256,.T.);
#328=ORIENTED_EDGE('',*,*,#255,.T.);
#329=ORIENTED_EDGE('',*,*,#257,.T.);
#330=ORIENTED_EDGE('',*,*,#249,.F.);
#331=ORIENTED_EDGE('',*,*,#257,.F.);
#332=ORIENTED_EDGE('',*,*,#254,.F.);
#333=ORIENTED_EDGE('',*,*,#252,.F.);
#334=ORIENTED_EDGE('',*,*,#256,.F.);
#335=ORIENTED_EDGE('',*,*,#247,.F.);
#336=ORIENTED_EDGE('',*,*,#251,.F.);
#337=ORIENTED_EDGE('',*,*,#253,.F.);
#338=ORIENTED_EDGE('',*,*,#258,.T.);
#339=ORIENTED_EDGE('',*,*,#259,.F.);
#340=ORIENTED_EDGE('',*,*,#260,.F.);
#341=ORIENTED_EDGE('',*,*,#261,.T.);
#342=ORIENTED_EDGE('',*,*,#262,.F.);
#343=ORIENTED_EDGE('',*,*,#263,.T.);
#344=ORIENTED_EDGE('',*,*,#261,.F.);
#345=ORIENTED_EDGE('',*,*,#264,.F.);
#346=ORIENTED_EDGE('',*,*,#265,.T.);
#347=ORIENTED_EDGE('',*,*,#266,.T.);
#348=ORIENTED_EDGE('',*,*,#267,.F.);
#349=ORIENTED_EDGE('',*,*,#268,.F.);
#350=ORIENTED_EDGE('',*,*,#259,.T.);
#351=ORIENTED_EDGE('',*,*,#269,.T.);
#352=ORIENTED_EDGE('',*,*,#265,.F.);
#353=ORIENTED_EDGE('',*,*,#270,.F.);
#354=ORIENTED_EDGE('',*,*,#267,.T.);
#355=ORIENTED_EDGE('',*,*,#264,.T.);
#356=ORIENTED_EDGE('',*,*,#260,.T.);
#357=ORIENTED_EDGE('',*,*,#268,.T.);
#358=ORIENTED_EDGE('',*,*,#270,.T.);
#359=ORIENTED_EDGE('',*,*,#263,.F.);
#360=ORIENTED_EDGE('',*,*,#269,.F.);
#361=ORIENTED_EDGE('',*,*,#266,.F.);
#362=ORIENTED_EDGE('',*,*,#258,.F.);
#363=ORIENTED_EDGE('',*,*,#271,.T.);
#364=ORIENTED_EDGE('',*,*,#272,.F.);
#365=ORIENTED_EDGE('',*,*,#262,.T.);
#366=ORIENTED_EDGE('',*,*,#273,.T.);
#367=ORIENTED_EDGE('',*,*,#274,.T.);
#368=ORIENTED_EDGE('',*,*,#273,.F.);
#369=ORIENTED_EDGE('',*,*,#272,.T.);
#370=ORIENTED_EDGE('',*,*,#275,.T.);
#371=ORIENTED_EDGE('',*,*,#276,.F.);
#372=ORIENTED_EDGE('',*,*,#275,.F.);
#373=ORIENTED_EDGE('',*,*,#276,.T.);
#374=ORIENTED_EDGE('',*,*,#274,.F.);
#375=ORIENTED_EDGE('',*,*,#277,.T.);
#376=ORIENTED_EDGE('',*,*,#271,.F.);
#377=ORIENTED_EDGE('',*,*,#277,.F.);
#378=ORIENTED_EDGE('',*,*,#278,.F.);
#379=ORIENTED_EDGE('',*,*,#279,.T.);
#380=ORIENTED_EDGE('',*,*,#280,.T.);
#381=ORIENTED_EDGE('',*,*,#281,.T.);
#382=ORIENTED_EDGE('',*,*,#282,.F.);
#383=ORIENTED_EDGE('',*,*,#283,.T.);
#384=ORIENTED_EDGE('',*,*,#278,.T.);
#385=ORIENTED_EDGE('',*,*,#284,.T.);
#386=ORIENTED_EDGE('',*,*,#285,.T.);
#387=ORIENTED_EDGE('',*,*,#282,.T.);
#388=ORIENTED_EDGE('',*,*,#286,.T.);
#389=ORIENTED_EDGE('',*,*,#287,.F.);
#390=ORIENTED_EDGE('',*,*,#280,.F.);
#391=ORIENTED_EDGE('',*,*,#288,.T.);
#392=ORIENTED_EDGE('',*,*,#287,.T.);
#393=ORIENTED_EDGE('',*,*,#289,.T.);
#394=ORIENTED_EDGE('',*,*,#281,.F.);
#395=ORIENTED_EDGE('',*,*,#289,.F.);
#396=ORIENTED_EDGE('',*,*,#286,.F.);
#397=ORIENTED_EDGE('',*,*,#284,.F.);
#398=ORIENTED_EDGE('',*,*,#288,.F.);
#399=ORIENTED_EDGE('',*,*,#279,.F.);
#400=ORIENTED_EDGE('',*,*,#283,.F.);
#401=ORIENTED_EDGE('',*,*,#285,.F.);
#402=PLANE('',#471);
#403=PLANE('',#472);
#404=PLANE('',#474);
#405=PLANE('',#475);
#406=PLANE('',#477);
#407=PLANE('',#479);
#408=PLANE('',#481);
#409=PLANE('',#482);
#410=PLANE('',#484);
#411=PLANE('',#485);
#412=PLANE('',#487);
#413=PLANE('',#489);
#414=PLANE('',#490);
#415=PLANE('',#491);
#416=PLANE('',#492);
#417=PLANE('',#493);
#418=PLANE('',#494);
#419=PLANE('',#501);
#420=PLANE('',#503);
#421=PLANE('',#505);
#422=PLANE('',#506);
#423=PLANE('',#508);
#424=PLANE('',#509);
#425=ADVANCED_FACE('',(#47),#402,.F.);
#426=ADVANCED_FACE('',(#48),#403,.F.);
#427=ADVANCED_FACE('',(#49),#404,.F.);
#428=ADVANCED_FACE('',(#50),#405,.F.);
#429=ADVANCED_FACE('',(#51),#406,.T.);
#430=ADVANCED_FACE('',(#52),#31,.T.);
#431=ADVANCED_FACE('',(#53),#407,.F.);
#432=ADVANCED_FACE('',(#54),#408,.F.);
#433=ADVANCED_FACE('',(#55),#409,.F.);
#434=ADVANCED_FACE('',(#56),#410,.F.);
#435=ADVANCED_FACE('',(#57),#411,.T.);
#436=ADVANCED_FACE('',(#58),#32,.T.);
#437=ADVANCED_FACE('',(#59,#14),#412,.F.);
#438=ADVANCED_FACE('',(#60),#413,.F.);
#439=ADVANCED_FACE('',(#61),#414,.F.);
#440=ADVANCED_FACE('',(#62),#415,.F.);
#441=ADVANCED_FACE('',(#63),#416,.F.);
#442=ADVANCED_FACE('',(#64),#417,.T.);
#443=ADVANCED_FACE('',(#65,#15),#418,.T.);
#444=ADVANCED_FACE('',(#66),#33,.T.);
#445=ADVANCED_FACE('',(#67),#34,.F.);
#446=ADVANCED_FACE('',(#68),#419,.F.);
#447=ADVANCED_FACE('',(#69),#13,.T.);
#448=ADVANCED_FACE('',(#70),#420,.F.);
#449=ADVANCED_FACE('',(#71),#421,.F.);
#450=ADVANCED_FACE('',(#72),#422,.F.);
#451=ADVANCED_FACE('',(#73),#423,.F.);
#452=ADVANCED_FACE('',(#74),#424,.T.);
#453=ADVANCED_FACE('',(#75),#35,.T.);
#454=CLOSED_SHELL('',(#425,#426,#427,#428,#429,#430));
#455=CLOSED_SHELL('',(#431,#432,#433,#434,#435,#436));
#456=CLOSED_SHELL('',(#437,#438,#439,#440,#441,#442,#443,#444,#445,#446,
#447));
#457=CLOSED_SHELL('',(#448,#449,#450,#451,#452,#453));
#458=DERIVED_UNIT_ELEMENT(#460,1.);
#459=DERIVED_UNIT_ELEMENT(#766,-3.);
#460=(
MASS_UNIT()
NAMED_UNIT(*)
SI_UNIT(.KILO.,.GRAM.)
);
#461=DERIVED_UNIT((#458,#459));
#462=MEASURE_REPRESENTATION_ITEM('density measure',
POSITIVE_RATIO_MEASURE(7850.),#461);
#463=PROPERTY_DEFINITION_REPRESENTATION(#468,#465);
#464=PROPERTY_DEFINITION_REPRESENTATION(#469,#466);
#465=REPRESENTATION('material name',(#467),#763);
#466=REPRESENTATION('density',(#462),#763);
#467=DESCRIPTIVE_REPRESENTATION_ITEM('Steel','Steel');
#468=PROPERTY_DEFINITION('material property','material name',#773);
#469=PROPERTY_DEFINITION('material property','density of part',#773);
#470=AXIS2_PLACEMENT_3D('',#638,#511,#512);
#471=AXIS2_PLACEMENT_3D('',#639,#513,#514);
#472=AXIS2_PLACEMENT_3D('',#648,#519,#520);
#473=AXIS2_PLACEMENT_3D('',#652,#522,#523);
#474=AXIS2_PLACEMENT_3D('',#654,#525,#526);
#475=AXIS2_PLACEMENT_3D('',#660,#530,#531);
#476=AXIS2_PLACEMENT_3D('',#661,#532,#533);
#477=AXIS2_PLACEMENT_3D('',#663,#535,#536);
#478=AXIS2_PLACEMENT_3D('',#664,#537,#538);
#479=AXIS2_PLACEMENT_3D('',#665,#539,#540);
#480=AXIS2_PLACEMENT_3D('',#670,#542,#543);
#481=AXIS2_PLACEMENT_3D('',#674,#546,#547);
#482=AXIS2_PLACEMENT_3D('',#680,#551,#552);
#483=AXIS2_PLACEMENT_3D('',#682,#553,#554);
#484=AXIS2_PLACEMENT_3D('',#686,#557,#558);
#485=AXIS2_PLACEMENT_3D('',#689,#561,#562);
#486=AXIS2_PLACEMENT_3D('',#690,#563,#564);
#487=AXIS2_PLACEMENT_3D('',#691,#565,#566);
#488=AXIS2_PLACEMENT_3D('',#701,#571,#572);
#489=AXIS2_PLACEMENT_3D('',#702,#573,#574);
#490=AXIS2_PLACEMENT_3D('',#708,#578,#579);
#491=AXIS2_PLACEMENT_3D('',#714,#583,#584);
#492=AXIS2_PLACEMENT_3D('',#717,#587,#588);
#493=AXIS2_PLACEMENT_3D('',#718,#589,#590);
#494=AXIS2_PLACEMENT_3D('',#719,#591,#592);
#495=AXIS2_PLACEMENT_3D('',#721,#593,#594);
#496=AXIS2_PLACEMENT_3D('',#723,#595,#596);
#497=AXIS2_PLACEMENT_3D('',#724,#597,#598);
#498=AXIS2_PLACEMENT_3D('',#727,#600,#601);
#499=AXIS2_PLACEMENT_3D('',#728,#602,#603);
#500=AXIS2_PLACEMENT_3D('',#731,#605,#606);
#501=AXIS2_PLACEMENT_3D('',#732,#607,#608);
#502=AXIS2_PLACEMENT_3D('',#733,#609,#610);
#503=AXIS2_PLACEMENT_3D('',#735,#612,#613);
#504=AXIS2_PLACEMENT_3D('',#740,#615,#616);
#505=AXIS2_PLACEMENT_3D('',#744,#619,#620);
#506=AXIS2_PLACEMENT_3D('',#750,#624,#625);
#507=AXIS2_PLACEMENT_3D('',#752,#626,#627);
#508=AXIS2_PLACEMENT_3D('',#756,#630,#631);
#509=AXIS2_PLACEMENT_3D('',#759,#634,#635);
#510=AXIS2_PLACEMENT_3D('',#760,#636,#637);
#511=DIRECTION('axis',(0.,0.,1.));
#512=DIRECTION('refdir',(1.,0.,0.));
#513=DIRECTION('center_axis',(1.,0.,0.));
#514=DIRECTION('ref_axis',(0.,0.,-1.));
#515=DIRECTION('',(0.,1.,0.));
#516=DIRECTION('',(0.,0.,-1.));
#517=DIRECTION('',(0.,1.,0.));
#518=DIRECTION('',(0.,0.,-1.));
#519=DIRECTION('center_axis',(0.,0.,1.));
#520=DIRECTION('ref_axis',(1.,0.,0.));
#521=DIRECTION('',(0.,1.,0.));
#522=DIRECTION('center_axis',(0.,0.,1.));
#523=DIRECTION('ref_axis',(1.,0.,0.));
#524=DIRECTION('',(1.,0.,0.));
#525=DIRECTION('center_axis',(-1.,0.,0.));
#526=DIRECTION('ref_axis',(0.,0.,1.));
#527=DIRECTION('',(0.,1.,0.));
#528=DIRECTION('',(0.,0.,1.));
#529=DIRECTION('',(0.,0.,1.));
#530=DIRECTION('center_axis',(0.,0.,-1.));
#531=DIRECTION('ref_axis',(-1.,0.,0.));
#532=DIRECTION('center_axis',(0.,0.,-1.));
#533=DIRECTION('ref_axis',(-1.,0.,0.));
#534=DIRECTION('',(-1.,0.,0.));
#535=DIRECTION('center_axis',(0.,1.,0.));
#536=DIRECTION('ref_axis',(0.,0.,1.));
#537=DIRECTION('center_axis',(0.,0.,-1.));
#538=DIRECTION('ref_axis',(-1.,0.,0.));
#539=DIRECTION('center_axis',(1.,0.,1.44560289664734E-16));
#540=DIRECTION('ref_axis',(1.44560289664734E-16,0.,-1.));
#541=DIRECTION('',(0.,1.,0.));
#542=DIRECTION('center_axis',(1.,0.,1.44560289664734E-16));
#543=DIRECTION('ref_axis',(1.44560289664734E-16,0.,-1.));
#544=DIRECTION('',(0.,1.,0.));
#545=DIRECTION('',(1.38777878078145E-16,0.,-1.));
#546=DIRECTION('center_axis',(0.,0.,1.));
#547=DIRECTION('ref_axis',(1.,0.,0.));
#548=DIRECTION('',(0.,1.,0.));
#549=DIRECTION('',(1.,0.,0.));
#550=DIRECTION('',(1.,0.,0.));
#551=DIRECTION('center_axis',(-1.,0.,-2.89120579329468E-16));
#552=DIRECTION('ref_axis',(-2.89120579329468E-16,0.,1.));
#553=DIRECTION('center_axis',(-1.,0.,-2.89120579329468E-16));
#554=DIRECTION('ref_axis',(-2.89120579329468E-16,0.,1.));
#555=DIRECTION('',(-2.77555756156289E-16,0.,1.));
#556=DIRECTION('',(0.,1.,0.));
#557=DIRECTION('center_axis',(0.,0.,-1.));
#558=DIRECTION('ref_axis',(-1.,0.,0.));
#559=DIRECTION('',(-1.,0.,0.));
#560=DIRECTION('',(-1.,0.,0.));
#561=DIRECTION('center_axis',(0.,1.,0.));
#562=DIRECTION('ref_axis',(0.,0.,1.));
#563=DIRECTION('center_axis',(-1.,0.,0.));
#564=DIRECTION('ref_axis',(0.,0.,1.));
#565=DIRECTION('center_axis',(0.,0.,-1.));
#566=DIRECTION('ref_axis',(-1.,0.,0.));
#567=DIRECTION('',(1.,0.,0.));
#568=DIRECTION('',(0.,-1.,0.));
#569=DIRECTION('',(1.,0.,0.));
#570=DIRECTION('',(0.,-1.,0.));
#571=DIRECTION('center_axis',(0.,0.,-1.));
#572=DIRECTION('ref_axis',(-1.,0.,0.));
#573=DIRECTION('center_axis',(1.,0.,0.));
#574=DIRECTION('ref_axis',(0.,0.,-1.));
#575=DIRECTION('',(0.,0.,1.));
#576=DIRECTION('',(0.,0.,1.));
#577=DIRECTION('',(0.,-1.,0.));
#578=DIRECTION('center_axis',(-1.,0.,0.));
#579=DIRECTION('ref_axis',(0.,0.,1.));
#580=DIRECTION('',(0.,0.,-1.));
#581=DIRECTION('',(0.,-1.,0.));
#582=DIRECTION('',(0.,0.,-1.));
#583=DIRECTION('center_axis',(0.,0.,1.));
#584=DIRECTION('ref_axis',(1.,0.,0.));
#585=DIRECTION('',(-1.,0.,0.));
#586=DIRECTION('',(-1.,0.,0.));
#587=DIRECTION('center_axis',(0.,-1.,0.));
#588=DIRECTION('ref_axis',(0.,0.,-1.));
#589=DIRECTION('center_axis',(0.,-1.,0.));
#590=DIRECTION('ref_axis',(0.,0.,-1.));
#591=DIRECTION('center_axis',(0.,0.,1.));
#592=DIRECTION('ref_axis',(1.,0.,0.));
#593=DIRECTION('center_axis',(0.,0.,1.));
#594=DIRECTION('ref_axis',(1.,0.,0.));
#595=DIRECTION('center_axis',(0.,0.,1.));
#596=DIRECTION('ref_axis',(1.,0.,0.));
#597=DIRECTION('center_axis',(0.,0.,-1.));
#598=DIRECTION('ref_axis',(-1.,0.,0.));
#599=DIRECTION('',(0.,0.,1.));
#600=DIRECTION('center_axis',(0.,0.,1.));
#601=DIRECTION('ref_axis',(1.,0.,0.));
#602=DIRECTION('center_axis',(0.,0.,-1.));
#603=DIRECTION('ref_axis',(-1.,0.,0.));
#604=DIRECTION('',(0.,0.,-1.));
#605=DIRECTION('center_axis',(0.,0.,1.));
#606=DIRECTION('ref_axis',(1.,0.,0.));
#607=DIRECTION('center_axis',(0.,0.,-1.));
#608=DIRECTION('ref_axis',(-1.,0.,0.));
#609=DIRECTION('center_axis',(0.,0.,-1.));
#610=DIRECTION('ref_axis',(-1.,0.,0.));
#611=DIRECTION('',(-0.707106781186546,8.65956056235491E-17,0.707106781186549));
#612=DIRECTION('center_axis',(1.,0.,1.44560289664734E-16));
#613=DIRECTION('ref_axis',(1.44560289664734E-16,0.,-1.));
#614=DIRECTION('',(0.,1.,0.));
#615=DIRECTION('center_axis',(1.,0.,1.44560289664734E-16));
#616=DIRECTION('ref_axis',(1.44560289664734E-16,0.,-1.));
#617=DIRECTION('',(0.,1.,0.));
#618=DIRECTION('',(1.38777878078145E-16,0.,-1.));
#619=DIRECTION('center_axis',(0.,0.,1.));
#620=DIRECTION('ref_axis',(1.,0.,0.));
#621=DIRECTION('',(0.,1.,0.));
#622=DIRECTION('',(1.,0.,0.));
#623=DIRECTION('',(1.,0.,0.));
#624=DIRECTION('center_axis',(-1.,0.,-2.89120579329468E-16));
#625=DIRECTION('ref_axis',(-2.89120579329468E-16,0.,1.));
#626=DIRECTION('center_axis',(-1.,0.,-2.89120579329468E-16));
#627=DIRECTION('ref_axis',(-2.89120579329468E-16,0.,1.));
#628=DIRECTION('',(-2.77555756156289E-16,0.,1.));
#629=DIRECTION('',(0.,1.,0.));
#630=DIRECTION('center_axis',(0.,0.,-1.));
#631=DIRECTION('ref_axis',(-1.,0.,0.));
#632=DIRECTION('',(-1.,0.,0.));
#633=DIRECTION('',(-1.,0.,0.));
#634=DIRECTION('center_axis',(0.,1.,0.));
#635=DIRECTION('ref_axis',(0.,0.,1.));
#636=DIRECTION('center_axis',(-1.,0.,0.));
#637=DIRECTION('ref_axis',(0.,0.,1.));
#638=CARTESIAN_POINT('',(0.,0.,0.));
#639=CARTESIAN_POINT('Origin',(5.25,-2.5,-2.1));
#640=CARTESIAN_POINT('',(5.25,-1.75,-2.1));
#641=CARTESIAN_POINT('',(5.25,0.,-2.1));
#642=CARTESIAN_POINT('',(5.25,-1.75,-2.1));
#643=CARTESIAN_POINT('',(5.25,-1.75,-1.3));
#644=CARTESIAN_POINT('',(5.25,-1.75,-1.3));
#645=CARTESIAN_POINT('',(5.25,0.,-1.3));
#646=CARTESIAN_POINT('',(5.25,-1.75,-1.3));
#647=CARTESIAN_POINT('',(5.25,0.,-1.3));
#648=CARTESIAN_POINT('Origin',(5.25,-2.5,-2.1));
#649=CARTESIAN_POINT('',(6.75,-1.75,-2.1));
#650=CARTESIAN_POINT('',(6.75,0.,-2.1));
#651=CARTESIAN_POINT('',(6.75,-1.75,-2.1));
#652=CARTESIAN_POINT('Origin',(6.,-1.75,-2.1));
#653=CARTESIAN_POINT('',(5.25,0.,-2.1));
#654=CARTESIAN_POINT('Origin',(6.75,-2.5,-2.1));
#655=CARTESIAN_POINT('',(6.75,-1.75,-1.3));
#656=CARTESIAN_POINT('',(6.75,0.,-1.3));
#657=CARTESIAN_POINT('',(6.75,-1.75,-1.3));
#658=CARTESIAN_POINT('',(6.75,-1.75,-2.1));
#659=CARTESIAN_POINT('',(6.75,0.,-2.1));
#660=CARTESIAN_POINT('Origin',(5.25,-2.5,-1.3));
#661=CARTESIAN_POINT('Origin',(6.,-1.75,-1.3));
#662=CARTESIAN_POINT('',(6.75,0.,-1.3));
#663=CARTESIAN_POINT('Origin',(0.,0.,0.));
#664=CARTESIAN_POINT('Origin',(6.,-1.75,0.));
#665=CARTESIAN_POINT('Origin',(0.549999999999998,-2.5,-7.45));
#666=CARTESIAN_POINT('',(0.549999999999998,-1.75,-7.45));
#667=CARTESIAN_POINT('',(0.549999999999998,0.,-7.45));
#668=CARTESIAN_POINT('',(0.549999999999998,-1.75,-7.45));
#669=CARTESIAN_POINT('',(0.549999999999998,-1.75,-5.95));
#670=CARTESIAN_POINT('Origin',(0.549999999999998,-1.75,-6.7));
#671=CARTESIAN_POINT('',(0.549999999999998,0.,-5.95));
#672=CARTESIAN_POINT('',(0.549999999999998,-1.75,-5.95));
#673=CARTESIAN_POINT('',(0.549999999999998,0.,-5.95));
#674=CARTESIAN_POINT('Origin',(0.549999999999998,-2.5,-7.45));
#675=CARTESIAN_POINT('',(1.05,-1.75,-7.45));
#676=CARTESIAN_POINT('',(1.05,0.,-7.45));
#677=CARTESIAN_POINT('',(1.05,-1.75,-7.45));
#678=CARTESIAN_POINT('',(0.549999999999998,-1.75,-7.45));
#679=CARTESIAN_POINT('',(0.549999999999998,0.,-7.45));
#680=CARTESIAN_POINT('Origin',(1.05,-2.5,-7.45));
#681=CARTESIAN_POINT('',(1.05,-1.75,-5.95));
#682=CARTESIAN_POINT('Origin',(1.05,-1.75,-6.7));
#683=CARTESIAN_POINT('',(1.05,0.,-5.95));
#684=CARTESIAN_POINT('',(1.05,0.,-7.45));
#685=CARTESIAN_POINT('',(1.05,-1.75,-5.95));
#686=CARTESIAN_POINT('Origin',(0.549999999999998,-2.5,-5.95));
#687=CARTESIAN_POINT('',(1.05,-1.75,-5.95));
#688=CARTESIAN_POINT('',(1.05,0.,-5.95));
#689=CARTESIAN_POINT('Origin',(0.,0.,2.9));
#690=CARTESIAN_POINT('Origin',(0.,-1.75,-6.7));
#691=CARTESIAN_POINT('Origin',(0.,6.3,0.));
#692=CARTESIAN_POINT('',(0.,0.,0.));
#693=CARTESIAN_POINT('',(11.5,0.,0.));
#694=CARTESIAN_POINT('',(0.,0.,0.));
#695=CARTESIAN_POINT('',(11.5,6.3,0.));
#696=CARTESIAN_POINT('',(11.5,6.3,0.));
#697=CARTESIAN_POINT('',(0.,6.3,0.));
#698=CARTESIAN_POINT('',(0.,6.3,0.));
#699=CARTESIAN_POINT('',(0.,6.3,0.));
#700=CARTESIAN_POINT('',(9.,3.15,5.55111512312578E-16));
#701=CARTESIAN_POINT('Origin',(6.,3.15,0.));
#702=CARTESIAN_POINT('Origin',(0.,6.3,0.));
#703=CARTESIAN_POINT('',(0.,0.,-14.2));
#704=CARTESIAN_POINT('',(0.,0.,-14.2));
#705=CARTESIAN_POINT('',(0.,6.3,-14.2));
#706=CARTESIAN_POINT('',(0.,6.3,-14.2));
#707=CARTESIAN_POINT('',(0.,6.3,-14.2));
#708=CARTESIAN_POINT('Origin',(11.5,6.3,0.));
#709=CARTESIAN_POINT('',(11.5,0.,-14.2));
#710=CARTESIAN_POINT('',(11.5,0.,0.));
#711=CARTESIAN_POINT('',(11.5,6.3,-14.2));
#712=CARTESIAN_POINT('',(11.5,6.3,-14.2));
#713=CARTESIAN_POINT('',(11.5,6.3,0.));
#714=CARTESIAN_POINT('Origin',(0.,6.3,-14.2));
#715=CARTESIAN_POINT('',(11.5,0.,-14.2));
#716=CARTESIAN_POINT('',(11.5,6.3,-14.2));
#717=CARTESIAN_POINT('Origin',(0.,6.3,0.));
#718=CARTESIAN_POINT('Origin',(0.,0.,0.));
#719=CARTESIAN_POINT('Origin',(6.,3.15,3.5));
#720=CARTESIAN_POINT('',(8.65,3.15,3.5));
#721=CARTESIAN_POINT('Origin',(6.,3.15,3.5));
#722=CARTESIAN_POINT('',(7.8,3.15,3.5));
#723=CARTESIAN_POINT('Origin',(6.,3.15,3.5));
#724=CARTESIAN_POINT('Origin',(6.,3.15,3.5));
#725=CARTESIAN_POINT('',(9.,3.15,3.15));
#726=CARTESIAN_POINT('',(9.,3.15,3.5));
#727=CARTESIAN_POINT('Origin',(6.,3.15,3.15));
#728=CARTESIAN_POINT('Origin',(6.,3.15,3.5));
#729=CARTESIAN_POINT('',(7.8,3.15,0.));
#730=CARTESIAN_POINT('',(7.8,3.15,3.5));
#731=CARTESIAN_POINT('Origin',(6.,3.15,0.));
#732=CARTESIAN_POINT('Origin',(0.,6.3,0.));
#733=CARTESIAN_POINT('Origin',(6.,3.15,3.5));
#734=CARTESIAN_POINT('',(8.65,3.15,3.5));
#735=CARTESIAN_POINT('Origin',(10.85,-2.5,-7.45));
#736=CARTESIAN_POINT('',(10.85,-1.75,-7.45));
#737=CARTESIAN_POINT('',(10.85,0.,-7.45));
#738=CARTESIAN_POINT('',(10.85,-1.75,-7.45));
#739=CARTESIAN_POINT('',(10.85,-1.75,-5.95));
#740=CARTESIAN_POINT('Origin',(10.85,-1.75,-6.7));
#741=CARTESIAN_POINT('',(10.85,0.,-5.95));
#742=CARTESIAN_POINT('',(10.85,-1.75,-5.95));
#743=CARTESIAN_POINT('',(10.85,0.,-5.95));
#744=CARTESIAN_POINT('Origin',(10.85,-2.5,-7.45));
#745=CARTESIAN_POINT('',(11.35,-1.75,-7.45));
#746=CARTESIAN_POINT('',(11.35,0.,-7.45));
#747=CARTESIAN_POINT('',(11.35,-1.75,-7.45));
#748=CARTESIAN_POINT('',(10.85,-1.75,-7.45));
#749=CARTESIAN_POINT('',(10.85,0.,-7.45));
#750=CARTESIAN_POINT('Origin',(11.35,-2.5,-7.45));
#751=CARTESIAN_POINT('',(11.35,-1.75,-5.95));
#752=CARTESIAN_POINT('Origin',(11.35,-1.75,-6.7));
#753=CARTESIAN_POINT('',(11.35,0.,-5.95));
#754=CARTESIAN_POINT('',(11.35,0.,-7.45));
#755=CARTESIAN_POINT('',(11.35,-1.75,-5.95));
#756=CARTESIAN_POINT('Origin',(10.85,-2.5,-5.95));
#757=CARTESIAN_POINT('',(11.35,-1.75,-5.95));
#758=CARTESIAN_POINT('',(11.35,0.,-5.95));
#759=CARTESIAN_POINT('Origin',(10.3,0.,2.9));
#760=CARTESIAN_POINT('Origin',(10.3,-1.75,-6.7));
#761=UNCERTAINTY_MEASURE_WITH_UNIT(LENGTH_MEASURE(0.01),#765,
'DISTANCE_ACCURACY_VALUE',
'Maximum model space distance between geometric entities at asserted c
onnectivities');
#762=UNCERTAINTY_MEASURE_WITH_UNIT(LENGTH_MEASURE(0.01),#765,
'DISTANCE_ACCURACY_VALUE',
'Maximum model space distance between geometric entities at asserted c
onnectivities');
#763=(
GEOMETRIC_REPRESENTATION_CONTEXT(3)
GLOBAL_UNCERTAINTY_ASSIGNED_CONTEXT((#761))
GLOBAL_UNIT_ASSIGNED_CONTEXT((#765,#767,#768))
REPRESENTATION_CONTEXT('','3D')
);
#764=(
GEOMETRIC_REPRESENTATION_CONTEXT(3)
GLOBAL_UNCERTAINTY_ASSIGNED_CONTEXT((#762))
GLOBAL_UNIT_ASSIGNED_CONTEXT((#765,#767,#768))
REPRESENTATION_CONTEXT('','3D')
);
#765=(
LENGTH_UNIT()
NAMED_UNIT(*)
SI_UNIT(.MILLI.,.METRE.)
);
#766=(
LENGTH_UNIT()
NAMED_UNIT(*)
SI_UNIT($,.METRE.)
);
#767=(
NAMED_UNIT(*)
PLANE_ANGLE_UNIT()
SI_UNIT($,.RADIAN.)
);
#768=(
NAMED_UNIT(*)
SI_UNIT($,.STERADIAN.)
SOLID_ANGLE_UNIT()
);
#769=SHAPE_DEFINITION_REPRESENTATION(#770,#771);
#770=PRODUCT_DEFINITION_SHAPE('',$,#773);
#771=SHAPE_REPRESENTATION('',(#470),#763);
#772=PRODUCT_DEFINITION_CONTEXT('part definition',#777,'design');
#773=PRODUCT_DEFINITION('2026-06-01-00-14-35-629',
'Jack 3_5 mm TRS femaile',#774,#772);
#774=PRODUCT_DEFINITION_FORMATION('',$,#779);
#775=PRODUCT_RELATED_PRODUCT_CATEGORY('Jack 3_5 mm TRS femaile',
'Jack 3_5 mm TRS femaile',(#779));
#776=APPLICATION_PROTOCOL_DEFINITION('international standard',
'automotive_design',2009,#777);
#777=APPLICATION_CONTEXT(
'Core Data for Automotive Mechanical Design Process');
#778=PRODUCT_CONTEXT('part definition',#777,'mechanical');
#779=PRODUCT('2026-06-01-00-14-35-629','Jack 3_5 mm TRS femaile',$,(#778));
#780=PRESENTATION_STYLE_ASSIGNMENT((#782));
#781=PRESENTATION_STYLE_ASSIGNMENT((#783));
#782=SURFACE_STYLE_USAGE(.BOTH.,#784);
#783=SURFACE_STYLE_USAGE(.BOTH.,#785);
#784=SURFACE_SIDE_STYLE('',(#786));
#785=SURFACE_SIDE_STYLE('',(#787));
#786=SURFACE_STYLE_FILL_AREA(#788);
#787=SURFACE_STYLE_FILL_AREA(#789);
#788=FILL_AREA_STYLE('Steel - Satin',(#790));
#789=FILL_AREA_STYLE('Opaque(25,25,25)',(#791));
#790=FILL_AREA_STYLE_COLOUR('Steel - Satin',#792);
#791=FILL_AREA_STYLE_COLOUR('Opaque(25,25,25)',#793);
#792=COLOUR_RGB('Steel - Satin',0.627450980392157,0.627450980392157,0.627450980392157);
#793=COLOUR_RGB('Opaque(25,25,25)',0.0980392156862745,0.0980392156862745,
0.0980392156862745);
ENDSEC;
END-ISO-10303-21;
