ISO-10303-21;
HEADER;
/* Generated by software containing ST-Developer
 * from STEP Tools, Inc. (www.steptools.com) 
 */

FILE_DESCRIPTION(
/* description */ (''),
/* implementation_level */ '2;1');

FILE_NAME(
/* name */ 'Resisitor.step',
/* time_stamp */ '2026-06-03T18:27:44-04:00',
/* author */ (''),
/* organization */ (''),
/* preprocessor_version */ 'ST-DEVELOPER v20.1',
/* originating_system */ 'Autodesk Translation Framework v15.8.0.0',
/* authorisation */ '');

FILE_SCHEMA (('AUTOMOTIVE_DESIGN { 1 0 10303 214 3 1 1 }'));
ENDSEC;

DATA;
#10=MECHANICAL_DESIGN_GEOMETRIC_PRESENTATION_REPRESENTATION('',(#188,#189,
#190,#191,#192,#193,#194,#195,#196,#197,#198,#199,#200,#201,#202,#203),
#777);
#11=SHAPE_REPRESENTATION_RELATIONSHIP('SRR','None',#784,#12);
#12=ADVANCED_BREP_SHAPE_REPRESENTATION('',(#13),#776);
#13=MANIFOLD_SOLID_BREP('Body1',#219);
#14=TOROIDAL_SURFACE('',#243,0.9,0.3);
#15=TOROIDAL_SURFACE('',#257,0.9,0.3);
#16=B_SPLINE_CURVE_WITH_KNOTS('',6,(#375,#376,#377,#378,#379,#380,#381,
#382,#383,#384,#385,#386,#387,#388,#389,#390,#391,#392,#393,#394,#395,#396,
#397,#398,#399,#400,#401,#402,#403,#404,#405,#406,#407,#408,#409,#410,#411,
#412,#413,#414,#415,#416,#417,#418,#419,#420,#421,#422,#423,#424,#425,#426,
#427,#428,#429,#430,#431,#432,#433,#434,#435,#436,#437,#438,#439,#440,#441,
#442,#443,#444,#445,#446,#447,#448,#449,#450,#451,#452,#453,#454,#455,#456,
#457,#458,#459,#460,#461,#462,#463,#464,#465,#466,#467,#468,#469,#470,#471,
#472,#473,#474,#475,#476,#477,#478,#479,#480,#481,#482,#483,#484,#485,#486,
#487,#488,#489,#490,#491,#492,#493,#494,#495,#496,#497,#498,#499,#500,#501,
#502,#503,#504,#505,#506,#507,#508,#509,#510,#511,#512,#513,#514,#515,#516,
#517,#518,#519,#520,#521,#522,#523,#524,#525,#526,#527,#528,#529,#530,#531,
#532,#533,#534,#535,#536,#537,#538,#539,#540,#541),.UNSPECIFIED.,.T.,.F.,
(7,5,5,5,5,5,5,5,5,5,5,5,5,5,5,5,5,5,5,5,5,5,5,5,5,5,5,5,5,5,5,5,5,7),(0.,
0.02521870323933,0.05431496394384,0.08648919549843,0.120700162351,0.155854554579,
0.191019956077,0.22552099352,0.258944151729,0.291091798271,0.321919308947,
0.351475044446,0.379851974729,0.407153625953,0.43347490921,0.458900868731,
0.483545347382,0.505902822615,0.530283950565,0.555351989471,0.581274789002,
0.608140584187,0.636038742308,0.665070462617,0.695336577837,0.72690990423,
0.759792997252,0.79386262098,0.828806470397,0.864066503475,0.898816439436,
0.932013287381,0.962558356523,1.),.UNSPECIFIED.);
#17=B_SPLINE_CURVE_WITH_KNOTS('',6,(#596,#597,#598,#599,#600,#601,#602,
#603,#604,#605,#606,#607,#608,#609,#610,#611,#612,#613,#614,#615,#616,#617,
#618,#619,#620,#621,#622,#623,#624,#625,#626,#627,#628,#629,#630,#631,#632,
#633,#634,#635,#636,#637,#638,#639,#640,#641,#642,#643,#644,#645,#646,#647,
#648,#649,#650,#651,#652,#653,#654,#655,#656,#657,#658,#659,#660,#661,#662,
#663,#664,#665,#666,#667,#668,#669,#670,#671,#672,#673,#674,#675,#676,#677,
#678,#679,#680,#681,#682,#683,#684,#685,#686,#687,#688,#689,#690,#691,#692,
#693,#694,#695,#696,#697,#698,#699,#700,#701,#702,#703,#704,#705,#706,#707,
#708,#709,#710,#711,#712,#713,#714,#715,#716,#717,#718,#719,#720,#721,#722,
#723,#724,#725,#726,#727,#728,#729,#730,#731,#732,#733,#734,#735,#736,#737,
#738,#739,#740,#741,#742,#743,#744,#745,#746,#747,#748,#749,#750,#751,#752,
#753,#754,#755,#756,#757,#758,#759,#760,#761,#762),.UNSPECIFIED.,.T.,.F.,
(7,5,5,5,5,5,5,5,5,5,5,5,5,5,5,5,5,5,5,5,5,5,5,5,5,5,5,5,5,5,5,5,5,7),(0.,
0.02522151735631,0.05431626764274,0.08648932873413,0.120698905604,0.15585219498,
0.191016701755,0.225517033144,0.258939642143,0.291086884381,0.32191412294,
0.351469698498,0.379846555914,0.407148198058,0.433469525493,0.458895614127,
0.483540398702,0.505898369155,0.530279933853,0.555348100008,0.581270886766,
0.608136607836,0.636034631737,0.665066137875,0.695331933304,0.726904811218,
0.759787311372,0.793856187529,0.828799116201,0.864057997078,0.898806507422,
0.932001552493,0.962545077037,1.),.UNSPECIFIED.);
#18=FACE_BOUND('',#48,.T.);
#19=FACE_BOUND('',#50,.T.);
#20=FACE_BOUND('',#54,.T.);
#21=FACE_BOUND('',#60,.T.);
#22=PLANE('',#238);
#23=PLANE('',#240);
#24=PLANE('',#247);
#25=PLANE('',#253);
#26=PLANE('',#256);
#27=PLANE('',#263);
#28=(
BOUNDED_SURFACE()
B_SPLINE_SURFACE(2,2,((#340,#341,#342,#343,#344,#345,#346,#347,#348),(#349,
#350,#351,#352,#353,#354,#355,#356,#357),(#358,#359,#360,#361,#362,#363,
#364,#365,#366)),.UNSPECIFIED.,.F.,.T.,.F.)
B_SPLINE_SURFACE_WITH_KNOTS((3,3),(3,2,2,2,3),(0.,1.5707963267949),(-3.14159265358979,
-1.5707963267949,0.,1.5707963267949,3.14159265358979),.UNSPECIFIED.)
GEOMETRIC_REPRESENTATION_ITEM()
RATIONAL_B_SPLINE_SURFACE(((1.,0.707106781186548,1.,0.707106781186548,1.,
0.707106781186548,1.,0.707106781186548,1.),(0.707106781186547,0.5,0.707106781186547,
0.5,0.707106781186547,0.5,0.707106781186547,0.5,0.707106781186547),(1.,
0.707106781186548,1.,0.707106781186548,1.,0.707106781186548,1.,0.707106781186548,
1.)))
REPRESENTATION_ITEM('')
SURFACE()
);
#29=(
BOUNDED_SURFACE()
B_SPLINE_SURFACE(2,2,((#564,#565,#566,#567,#568,#569,#570,#571,#572),(#573,
#574,#575,#576,#577,#578,#579,#580,#581),(#582,#583,#584,#585,#586,#587,
#588,#589,#590)),.UNSPECIFIED.,.F.,.T.,.F.)
B_SPLINE_SURFACE_WITH_KNOTS((3,3),(3,2,2,2,3),(0.,1.5707963267949),(-3.14159265358979,
-1.5707963267949,0.,1.5707963267949,3.14159265358979),.UNSPECIFIED.)
GEOMETRIC_REPRESENTATION_ITEM()
RATIONAL_B_SPLINE_SURFACE(((1.,0.707106781186548,1.,0.707106781186548,1.,
0.707106781186548,1.,0.707106781186548,1.),(0.707106781186548,0.500000000000001,
0.707106781186548,0.500000000000001,0.707106781186548,0.500000000000001,
0.707106781186548,0.500000000000001,0.707106781186548),(1.,0.707106781186548,
1.,0.707106781186548,1.,0.707106781186548,1.,0.707106781186548,1.)))
REPRESENTATION_ITEM('')
SURFACE()
);
#30=FACE_OUTER_BOUND('',#45,.T.);
#31=FACE_OUTER_BOUND('',#46,.T.);
#32=FACE_OUTER_BOUND('',#47,.T.);
#33=FACE_OUTER_BOUND('',#49,.T.);
#34=FACE_OUTER_BOUND('',#51,.T.);
#35=FACE_OUTER_BOUND('',#52,.T.);
#36=FACE_OUTER_BOUND('',#53,.T.);
#37=FACE_OUTER_BOUND('',#55,.T.);
#38=FACE_OUTER_BOUND('',#56,.T.);
#39=FACE_OUTER_BOUND('',#57,.T.);
#40=FACE_OUTER_BOUND('',#58,.T.);
#41=FACE_OUTER_BOUND('',#59,.T.);
#42=FACE_OUTER_BOUND('',#61,.T.);
#43=FACE_OUTER_BOUND('',#62,.T.);
#44=FACE_OUTER_BOUND('',#63,.T.);
#45=EDGE_LOOP('',(#133,#134,#135,#136));
#46=EDGE_LOOP('',(#137,#138,#139,#140));
#47=EDGE_LOOP('',(#141));
#48=EDGE_LOOP('',(#142));
#49=EDGE_LOOP('',(#143));
#50=EDGE_LOOP('',(#144));
#51=EDGE_LOOP('',(#145,#146,#147,#148));
#52=EDGE_LOOP('',(#149,#150,#151,#152,#153));
#53=EDGE_LOOP('',(#154));
#54=EDGE_LOOP('',(#155));
#55=EDGE_LOOP('',(#156,#157,#158,#159,#160));
#56=EDGE_LOOP('',(#161,#162,#163,#164));
#57=EDGE_LOOP('',(#165));
#58=EDGE_LOOP('',(#166,#167,#168,#169));
#59=EDGE_LOOP('',(#170));
#60=EDGE_LOOP('',(#171));
#61=EDGE_LOOP('',(#172,#173,#174,#175,#176));
#62=EDGE_LOOP('',(#177,#178,#179,#180,#181));
#63=EDGE_LOOP('',(#182));
#64=LINE('',#338,#69);
#65=LINE('',#544,#70);
#66=LINE('',#557,#71);
#67=LINE('',#561,#72);
#68=LINE('',#772,#73);
#69=VECTOR('',#270,1.25);
#70=VECTOR('',#285,1.125);
#71=VECTOR('',#302,0.3);
#72=VECTOR('',#307,1.25);
#73=VECTOR('',#330,0.3);
#74=CIRCLE('',#234,1.25);
#75=CIRCLE('',#235,1.25);
#76=CIRCLE('',#236,0.625);
#77=CIRCLE('',#237,0.625);
#78=CIRCLE('',#239,1.125);
#79=CIRCLE('',#242,1.125);
#80=CIRCLE('',#244,0.6);
#81=CIRCLE('',#245,0.3);
#82=CIRCLE('',#246,0.3);
#83=CIRCLE('',#248,1.25);
#84=CIRCLE('',#250,0.3);
#85=CIRCLE('',#252,1.25);
#86=CIRCLE('',#254,0.625);
#87=CIRCLE('',#255,0.625);
#88=CIRCLE('',#258,0.3);
#89=CIRCLE('',#259,0.3);
#90=CIRCLE('',#260,0.6);
#91=CIRCLE('',#262,0.3);
#92=VERTEX_POINT('',#335);
#93=VERTEX_POINT('',#337);
#94=VERTEX_POINT('',#367);
#95=VERTEX_POINT('',#371);
#96=VERTEX_POINT('',#374);
#97=VERTEX_POINT('',#543);
#98=VERTEX_POINT('',#547);
#99=VERTEX_POINT('',#549);
#100=VERTEX_POINT('',#553);
#101=VERTEX_POINT('',#556);
#102=VERTEX_POINT('',#560);
#103=VERTEX_POINT('',#591);
#104=VERTEX_POINT('',#595);
#105=VERTEX_POINT('',#764);
#106=VERTEX_POINT('',#765);
#107=VERTEX_POINT('',#770);
#108=EDGE_CURVE('',#92,#92,#74,.T.);
#109=EDGE_CURVE('',#92,#93,#64,.T.);
#110=EDGE_CURVE('',#93,#93,#75,.T.);
#111=EDGE_CURVE('',#94,#94,#76,.T.);
#112=EDGE_CURVE('',#94,#92,#77,.T.);
#113=EDGE_CURVE('',#95,#95,#78,.T.);
#114=EDGE_CURVE('',#96,#96,#16,.T.);
#115=EDGE_CURVE('',#95,#97,#65,.T.);
#116=EDGE_CURVE('',#97,#97,#79,.T.);
#117=EDGE_CURVE('',#96,#98,#80,.T.);
#118=EDGE_CURVE('',#98,#99,#81,.T.);
#119=EDGE_CURVE('',#99,#98,#82,.T.);
#120=EDGE_CURVE('',#100,#100,#83,.T.);
#121=EDGE_CURVE('',#99,#101,#66,.T.);
#122=EDGE_CURVE('',#101,#101,#84,.T.);
#123=EDGE_CURVE('',#100,#102,#67,.T.);
#124=EDGE_CURVE('',#102,#102,#85,.T.);
#125=EDGE_CURVE('',#103,#103,#86,.T.);
#126=EDGE_CURVE('',#103,#102,#87,.T.);
#127=EDGE_CURVE('',#104,#104,#17,.T.);
#128=EDGE_CURVE('',#105,#106,#88,.T.);
#129=EDGE_CURVE('',#106,#105,#89,.T.);
#130=EDGE_CURVE('',#105,#104,#90,.T.);
#131=EDGE_CURVE('',#107,#107,#91,.T.);
#132=EDGE_CURVE('',#107,#106,#68,.T.);
#133=ORIENTED_EDGE('',*,*,#108,.T.);
#134=ORIENTED_EDGE('',*,*,#109,.T.);
#135=ORIENTED_EDGE('',*,*,#110,.F.);
#136=ORIENTED_EDGE('',*,*,#109,.F.);
#137=ORIENTED_EDGE('',*,*,#111,.T.);
#138=ORIENTED_EDGE('',*,*,#112,.T.);
#139=ORIENTED_EDGE('',*,*,#108,.F.);
#140=ORIENTED_EDGE('',*,*,#112,.F.);
#141=ORIENTED_EDGE('',*,*,#110,.T.);
#142=ORIENTED_EDGE('',*,*,#113,.T.);
#143=ORIENTED_EDGE('',*,*,#111,.F.);
#144=ORIENTED_EDGE('',*,*,#114,.F.);
#145=ORIENTED_EDGE('',*,*,#113,.F.);
#146=ORIENTED_EDGE('',*,*,#115,.T.);
#147=ORIENTED_EDGE('',*,*,#116,.T.);
#148=ORIENTED_EDGE('',*,*,#115,.F.);
#149=ORIENTED_EDGE('',*,*,#114,.T.);
#150=ORIENTED_EDGE('',*,*,#117,.T.);
#151=ORIENTED_EDGE('',*,*,#118,.T.);
#152=ORIENTED_EDGE('',*,*,#119,.T.);
#153=ORIENTED_EDGE('',*,*,#117,.F.);
#154=ORIENTED_EDGE('',*,*,#120,.F.);
#155=ORIENTED_EDGE('',*,*,#116,.F.);
#156=ORIENTED_EDGE('',*,*,#118,.F.);
#157=ORIENTED_EDGE('',*,*,#119,.F.);
#158=ORIENTED_EDGE('',*,*,#121,.T.);
#159=ORIENTED_EDGE('',*,*,#122,.T.);
#160=ORIENTED_EDGE('',*,*,#121,.F.);
#161=ORIENTED_EDGE('',*,*,#120,.T.);
#162=ORIENTED_EDGE('',*,*,#123,.T.);
#163=ORIENTED_EDGE('',*,*,#124,.F.);
#164=ORIENTED_EDGE('',*,*,#123,.F.);
#165=ORIENTED_EDGE('',*,*,#122,.F.);
#166=ORIENTED_EDGE('',*,*,#125,.F.);
#167=ORIENTED_EDGE('',*,*,#126,.T.);
#168=ORIENTED_EDGE('',*,*,#124,.T.);
#169=ORIENTED_EDGE('',*,*,#126,.F.);
#170=ORIENTED_EDGE('',*,*,#125,.T.);
#171=ORIENTED_EDGE('',*,*,#127,.T.);
#172=ORIENTED_EDGE('',*,*,#128,.T.);
#173=ORIENTED_EDGE('',*,*,#129,.T.);
#174=ORIENTED_EDGE('',*,*,#130,.T.);
#175=ORIENTED_EDGE('',*,*,#127,.F.);
#176=ORIENTED_EDGE('',*,*,#130,.F.);
#177=ORIENTED_EDGE('',*,*,#131,.F.);
#178=ORIENTED_EDGE('',*,*,#132,.T.);
#179=ORIENTED_EDGE('',*,*,#128,.F.);
#180=ORIENTED_EDGE('',*,*,#129,.F.);
#181=ORIENTED_EDGE('',*,*,#132,.F.);
#182=ORIENTED_EDGE('',*,*,#131,.T.);
#183=CYLINDRICAL_SURFACE('',#233,1.25);
#184=CYLINDRICAL_SURFACE('',#241,1.125);
#185=CYLINDRICAL_SURFACE('',#249,0.3);
#186=CYLINDRICAL_SURFACE('',#251,1.25);
#187=CYLINDRICAL_SURFACE('',#261,0.3);
#188=STYLED_ITEM('',(#794),#204);
#189=STYLED_ITEM('',(#794),#205);
#190=STYLED_ITEM('',(#794),#206);
#191=STYLED_ITEM('',(#794),#207);
#192=STYLED_ITEM('',(#794),#208);
#193=STYLED_ITEM('',(#795),#209);
#194=STYLED_ITEM('',(#794),#210);
#195=STYLED_ITEM('',(#795),#211);
#196=STYLED_ITEM('',(#794),#212);
#197=STYLED_ITEM('',(#795),#213);
#198=STYLED_ITEM('',(#794),#214);
#199=STYLED_ITEM('',(#794),#215);
#200=STYLED_ITEM('',(#795),#216);
#201=STYLED_ITEM('',(#795),#217);
#202=STYLED_ITEM('',(#795),#218);
#203=STYLED_ITEM('',(#793),#13);
#204=ADVANCED_FACE('',(#30),#183,.T.);
#205=ADVANCED_FACE('',(#31),#28,.F.);
#206=ADVANCED_FACE('',(#32,#18),#22,.F.);
#207=ADVANCED_FACE('',(#33,#19),#23,.T.);
#208=ADVANCED_FACE('',(#34),#184,.T.);
#209=ADVANCED_FACE('',(#35),#14,.T.);
#210=ADVANCED_FACE('',(#36,#20),#24,.T.);
#211=ADVANCED_FACE('',(#37),#185,.T.);
#212=ADVANCED_FACE('',(#38),#186,.T.);
#213=ADVANCED_FACE('',(#39),#25,.T.);
#214=ADVANCED_FACE('',(#40),#29,.F.);
#215=ADVANCED_FACE('',(#41,#21),#26,.F.);
#216=ADVANCED_FACE('',(#42),#15,.T.);
#217=ADVANCED_FACE('',(#43),#187,.T.);
#218=ADVANCED_FACE('',(#44),#27,.F.);
#219=CLOSED_SHELL('',(#204,#205,#206,#207,#208,#209,#210,#211,#212,#213,
#214,#215,#216,#217,#218));
#220=DERIVED_UNIT_ELEMENT(#222,1.);
#221=DERIVED_UNIT_ELEMENT(#779,-3.);
#222=(
MASS_UNIT()
NAMED_UNIT(*)
SI_UNIT(.KILO.,.GRAM.)
);
#223=DERIVED_UNIT((#220,#221));
#224=MEASURE_REPRESENTATION_ITEM('density measure',
POSITIVE_RATIO_MEASURE(7850.),#223);
#225=PROPERTY_DEFINITION_REPRESENTATION(#230,#227);
#226=PROPERTY_DEFINITION_REPRESENTATION(#231,#228);
#227=REPRESENTATION('material name',(#229),#776);
#228=REPRESENTATION('density',(#224),#776);
#229=DESCRIPTIVE_REPRESENTATION_ITEM('Steel','Steel');
#230=PROPERTY_DEFINITION('material property','material name',#786);
#231=PROPERTY_DEFINITION('material property','density of part',#786);
#232=AXIS2_PLACEMENT_3D('',#333,#264,#265);
#233=AXIS2_PLACEMENT_3D('',#334,#266,#267);
#234=AXIS2_PLACEMENT_3D('',#336,#268,#269);
#235=AXIS2_PLACEMENT_3D('',#339,#271,#272);
#236=AXIS2_PLACEMENT_3D('',#368,#273,#274);
#237=AXIS2_PLACEMENT_3D('',#369,#275,#276);
#238=AXIS2_PLACEMENT_3D('',#370,#277,#278);
#239=AXIS2_PLACEMENT_3D('',#372,#279,#280);
#240=AXIS2_PLACEMENT_3D('',#373,#281,#282);
#241=AXIS2_PLACEMENT_3D('',#542,#283,#284);
#242=AXIS2_PLACEMENT_3D('',#545,#286,#287);
#243=AXIS2_PLACEMENT_3D('',#546,#288,#289);
#244=AXIS2_PLACEMENT_3D('',#548,#290,#291);
#245=AXIS2_PLACEMENT_3D('',#550,#292,#293);
#246=AXIS2_PLACEMENT_3D('',#551,#294,#295);
#247=AXIS2_PLACEMENT_3D('',#552,#296,#297);
#248=AXIS2_PLACEMENT_3D('',#554,#298,#299);
#249=AXIS2_PLACEMENT_3D('',#555,#300,#301);
#250=AXIS2_PLACEMENT_3D('',#558,#303,#304);
#251=AXIS2_PLACEMENT_3D('',#559,#305,#306);
#252=AXIS2_PLACEMENT_3D('',#562,#308,#309);
#253=AXIS2_PLACEMENT_3D('',#563,#310,#311);
#254=AXIS2_PLACEMENT_3D('',#592,#312,#313);
#255=AXIS2_PLACEMENT_3D('',#593,#314,#315);
#256=AXIS2_PLACEMENT_3D('',#594,#316,#317);
#257=AXIS2_PLACEMENT_3D('',#763,#318,#319);
#258=AXIS2_PLACEMENT_3D('',#766,#320,#321);
#259=AXIS2_PLACEMENT_3D('',#767,#322,#323);
#260=AXIS2_PLACEMENT_3D('',#768,#324,#325);
#261=AXIS2_PLACEMENT_3D('',#769,#326,#327);
#262=AXIS2_PLACEMENT_3D('',#771,#328,#329);
#263=AXIS2_PLACEMENT_3D('',#773,#331,#332);
#264=DIRECTION('axis',(0.,0.,1.));
#265=DIRECTION('refdir',(1.,0.,0.));
#266=DIRECTION('center_axis',(-1.,0.,0.));
#267=DIRECTION('ref_axis',(0.,1.,0.));
#268=DIRECTION('center_axis',(1.,0.,0.));
#269=DIRECTION('ref_axis',(0.,1.,0.));
#270=DIRECTION('',(1.,0.,0.));
#271=DIRECTION('center_axis',(1.,0.,0.));
#272=DIRECTION('ref_axis',(0.,1.,0.));
#273=DIRECTION('center_axis',(1.,0.,0.));
#274=DIRECTION('ref_axis',(0.,1.,0.));
#275=DIRECTION('center_axis',(0.,2.22044604925031E-16,1.));
#276=DIRECTION('ref_axis',(0.,-1.,2.22044604925031E-16));
#277=DIRECTION('center_axis',(-1.,0.,0.));
#278=DIRECTION('ref_axis',(0.,0.,-1.));
#279=DIRECTION('center_axis',(-1.,0.,0.));
#280=DIRECTION('ref_axis',(0.,1.,0.));
#281=DIRECTION('center_axis',(-1.,0.,0.));
#282=DIRECTION('ref_axis',(0.,0.,-1.));
#283=DIRECTION('center_axis',(-1.,0.,0.));
#284=DIRECTION('ref_axis',(0.,1.,0.));
#285=DIRECTION('',(1.,0.,0.));
#286=DIRECTION('center_axis',(-1.,0.,0.));
#287=DIRECTION('ref_axis',(0.,1.,0.));
#288=DIRECTION('center_axis',(0.,1.,0.));
#289=DIRECTION('ref_axis',(-1.,0.,5.08852219619863E-16));
#290=DIRECTION('center_axis',(0.,-1.,0.));
#291=DIRECTION('ref_axis',(-1.,0.,4.62592926927148E-16));
#292=DIRECTION('center_axis',(0.,0.,1.));
#293=DIRECTION('ref_axis',(1.,0.,0.));
#294=DIRECTION('center_axis',(0.,0.,1.));
#295=DIRECTION('ref_axis',(1.,0.,0.));
#296=DIRECTION('center_axis',(-1.,0.,0.));
#297=DIRECTION('ref_axis',(0.,0.,-1.));
#298=DIRECTION('center_axis',(1.,0.,0.));
#299=DIRECTION('ref_axis',(0.,1.,0.));
#300=DIRECTION('center_axis',(0.,0.,1.));
#301=DIRECTION('ref_axis',(1.,0.,0.));
#302=DIRECTION('',(0.,0.,-1.));
#303=DIRECTION('center_axis',(0.,0.,1.));
#304=DIRECTION('ref_axis',(1.,0.,0.));
#305=DIRECTION('center_axis',(-1.,0.,0.));
#306=DIRECTION('ref_axis',(0.,1.,0.));
#307=DIRECTION('',(1.,0.,0.));
#308=DIRECTION('center_axis',(1.,0.,0.));
#309=DIRECTION('ref_axis',(0.,1.,0.));
#310=DIRECTION('center_axis',(0.,0.,-1.));
#311=DIRECTION('ref_axis',(-1.,0.,0.));
#312=DIRECTION('center_axis',(1.,0.,0.));
#313=DIRECTION('ref_axis',(0.,1.,0.));
#314=DIRECTION('center_axis',(0.,1.11022302462516E-16,-1.));
#315=DIRECTION('ref_axis',(0.,-1.,-1.11022302462516E-16));
#316=DIRECTION('center_axis',(-1.,0.,0.));
#317=DIRECTION('ref_axis',(0.,0.,-1.));
#318=DIRECTION('center_axis',(0.,1.,0.));
#319=DIRECTION('ref_axis',(0.,0.,1.));
#320=DIRECTION('center_axis',(3.828568698927E-16,0.,1.));
#321=DIRECTION('ref_axis',(1.,0.,-3.828568698927E-16));
#322=DIRECTION('center_axis',(3.828568698927E-16,0.,1.));
#323=DIRECTION('ref_axis',(1.,0.,-3.828568698927E-16));
#324=DIRECTION('center_axis',(0.,-1.,0.));
#325=DIRECTION('ref_axis',(0.,0.,1.));
#326=DIRECTION('center_axis',(0.,0.,-1.));
#327=DIRECTION('ref_axis',(-1.,0.,0.));
#328=DIRECTION('center_axis',(0.,0.,-1.));
#329=DIRECTION('ref_axis',(-1.,0.,0.));
#330=DIRECTION('',(0.,0.,1.));
#331=DIRECTION('center_axis',(0.,0.,1.));
#332=DIRECTION('ref_axis',(1.,0.,0.));
#333=CARTESIAN_POINT('',(0.,0.,0.));
#334=CARTESIAN_POINT('Origin',(0.66,0.,1.25));
#335=CARTESIAN_POINT('',(1.285,-1.25,1.25));
#336=CARTESIAN_POINT('Origin',(1.285,0.,1.25));
#337=CARTESIAN_POINT('',(2.235,-1.25,1.25));
#338=CARTESIAN_POINT('',(0.66,-1.25,1.25));
#339=CARTESIAN_POINT('Origin',(2.235,0.,1.25));
#340=CARTESIAN_POINT('Ctrl Pts',(1.285,-1.25,1.25));
#341=CARTESIAN_POINT('Ctrl Pts',(1.285,-1.25,2.5));
#342=CARTESIAN_POINT('Ctrl Pts',(1.285,0.,2.5));
#343=CARTESIAN_POINT('Ctrl Pts',(1.285,1.25,2.5));
#344=CARTESIAN_POINT('Ctrl Pts',(1.285,1.25,1.25));
#345=CARTESIAN_POINT('Ctrl Pts',(1.285,1.25,2.77555756156289E-16));
#346=CARTESIAN_POINT('Ctrl Pts',(1.285,0.,0.));
#347=CARTESIAN_POINT('Ctrl Pts',(1.285,-1.25,2.77555756156289E-16));
#348=CARTESIAN_POINT('Ctrl Pts',(1.285,-1.25,1.25));
#349=CARTESIAN_POINT('Ctrl Pts',(0.66,-1.25,1.25));
#350=CARTESIAN_POINT('Ctrl Pts',(0.66,-1.25,2.5));
#351=CARTESIAN_POINT('Ctrl Pts',(0.66,0.,2.5));
#352=CARTESIAN_POINT('Ctrl Pts',(0.66,1.25,2.5));
#353=CARTESIAN_POINT('Ctrl Pts',(0.66,1.25,1.25));
#354=CARTESIAN_POINT('Ctrl Pts',(0.66,1.25,2.77555756156289E-16));
#355=CARTESIAN_POINT('Ctrl Pts',(0.66,0.,0.));
#356=CARTESIAN_POINT('Ctrl Pts',(0.66,-1.25,2.77555756156289E-16));
#357=CARTESIAN_POINT('Ctrl Pts',(0.66,-1.25,1.25));
#358=CARTESIAN_POINT('Ctrl Pts',(0.66,-0.625,1.25));
#359=CARTESIAN_POINT('Ctrl Pts',(0.66,-0.625,1.875));
#360=CARTESIAN_POINT('Ctrl Pts',(0.66,0.,1.875));
#361=CARTESIAN_POINT('Ctrl Pts',(0.66,0.625,1.875));
#362=CARTESIAN_POINT('Ctrl Pts',(0.66,0.625,1.25));
#363=CARTESIAN_POINT('Ctrl Pts',(0.66,0.625,0.625));
#364=CARTESIAN_POINT('Ctrl Pts',(0.66,0.,0.625));
#365=CARTESIAN_POINT('Ctrl Pts',(0.66,-0.625,0.625));
#366=CARTESIAN_POINT('Ctrl Pts',(0.66,-0.625,1.25));
#367=CARTESIAN_POINT('',(0.66,-0.625,1.25));
#368=CARTESIAN_POINT('Origin',(0.66,0.,1.25));
#369=CARTESIAN_POINT('Origin',(1.285,-0.625,1.25));
#370=CARTESIAN_POINT('Origin',(2.235,1.25,1.25));
#371=CARTESIAN_POINT('',(2.235,-1.125,1.25));
#372=CARTESIAN_POINT('Origin',(2.235,0.,1.25));
#373=CARTESIAN_POINT('Origin',(0.66,1.25,1.25));
#374=CARTESIAN_POINT('',(0.66,1.102182119233E-16,0.899909083395));
#375=CARTESIAN_POINT('Ctrl Pts',(0.66,0.,0.899909083395));
#376=CARTESIAN_POINT('Ctrl Pts',(0.66,-0.009861963323296,0.899909084471));
#377=CARTESIAN_POINT('Ctrl Pts',(0.66,-0.01960383099012,0.900333558971));
#378=CARTESIAN_POINT('Ctrl Pts',(0.66,-0.0290667633729,0.901163095205));
#379=CARTESIAN_POINT('Ctrl Pts',(0.66,-0.03818473840012,0.902336888075));
#380=CARTESIAN_POINT('Ctrl Pts',(0.66,-0.04697555886318,0.903805406252));
#381=CARTESIAN_POINT('Ctrl Pts',(0.66,-0.06541217845247,0.907588617289));
#382=CARTESIAN_POINT('Ctrl Pts',(0.66,-0.07491989955217,0.909985996381));
#383=CARTESIAN_POINT('Ctrl Pts',(0.66,-0.08408858685729,0.912709602459));
#384=CARTESIAN_POINT('Ctrl Pts',(0.66,-0.0929431150905,0.915726339128));
#385=CARTESIAN_POINT('Ctrl Pts',(0.66,-0.101504886237,0.919011492948));
#386=CARTESIAN_POINT('Ctrl Pts',(0.66,-0.118958160976,0.926453793498));
#387=CARTESIAN_POINT('Ctrl Pts',(0.66,-0.127787740677,0.930666021227));
#388=CARTESIAN_POINT('Ctrl Pts',(0.66,-0.136306213845,0.935155972835));
#389=CARTESIAN_POINT('Ctrl Pts',(0.66,-0.144532125259,0.939904061777));
#390=CARTESIAN_POINT('Ctrl Pts',(0.66,-0.152479834979,0.944895594586));
#391=CARTESIAN_POINT('Ctrl Pts',(0.66,-0.168328675181,0.955672717204));
#392=CARTESIAN_POINT('Ctrl Pts',(0.66,-0.176194628708,0.961488338811));
#393=CARTESIAN_POINT('Ctrl Pts',(0.66,-0.183772627725,0.967551590964));
#394=CARTESIAN_POINT('Ctrl Pts',(0.66,-0.191071921446,0.973851630909));
#395=CARTESIAN_POINT('Ctrl Pts',(0.66,-0.19809849539,0.980379998969));
#396=CARTESIAN_POINT('Ctrl Pts',(0.66,-0.211800252103,0.99406561399));
#397=CARTESIAN_POINT('Ctrl Pts',(0.66,-0.218460183619,1.001235038361));
#398=CARTESIAN_POINT('Ctrl Pts',(0.66,-0.224839916669,1.008630424477));
#399=CARTESIAN_POINT('Ctrl Pts',(0.66,-0.230940302033,1.016245317007));
#400=CARTESIAN_POINT('Ctrl Pts',(0.66,-0.236759778797,1.024074009311));
#401=CARTESIAN_POINT('Ctrl Pts',(0.66,-0.247832030244,1.040150827903));
#402=CARTESIAN_POINT('Ctrl Pts',(0.66,-0.253084597548,1.048398894868));
#403=CARTESIAN_POINT('Ctrl Pts',(0.66,-0.258049056373,1.056850063306));
#404=CARTESIAN_POINT('Ctrl Pts',(0.66,-0.262719990238,1.065498702059));
#405=CARTESIAN_POINT('Ctrl Pts',(0.66,-0.267090249501,1.07433884651));
#406=CARTESIAN_POINT('Ctrl Pts',(0.66,-0.275134936213,1.092219038761));
#407=CARTESIAN_POINT('Ctrl Pts',(0.66,-0.278821023102,1.101251941956));
#408=CARTESIAN_POINT('Ctrl Pts',(0.66,-0.282200792082,1.110456832947));
#409=CARTESIAN_POINT('Ctrl Pts',(0.66,-0.285264705632,1.119826546568));
#410=CARTESIAN_POINT('Ctrl Pts',(0.66,-0.288002108658,1.129352827713));
#411=CARTESIAN_POINT('Ctrl Pts',(0.66,-0.29272539517,1.148397615962));
#412=CARTESIAN_POINT('Ctrl Pts',(0.66,-0.29473218058,1.157906910826));
#413=CARTESIAN_POINT('Ctrl Pts',(0.66,-0.296410836061,1.167545600214));
#414=CARTESIAN_POINT('Ctrl Pts',(0.66,-0.297750151594,1.177303530334));
#415=CARTESIAN_POINT('Ctrl Pts',(0.66,-0.298738455802,1.187169009313));
#416=CARTESIAN_POINT('Ctrl Pts',(0.66,-0.299964918417,1.206708514181));
#417=CARTESIAN_POINT('Ctrl Pts',(0.66,-0.300230384291,1.216375379318));
#418=CARTESIAN_POINT('Ctrl Pts',(0.66,-0.300149186912,1.226117491764));
#419=CARTESIAN_POINT('Ctrl Pts',(0.66,-0.299710710819,1.235921272022));
#420=CARTESIAN_POINT('Ctrl Pts',(0.66,-0.298904551758,1.245771471938));
#421=CARTESIAN_POINT('Ctrl Pts',(0.66,-0.296585103724,1.265125169703));
#422=CARTESIAN_POINT('Ctrl Pts',(0.66,-0.295102339165,1.274626258325));
#423=CARTESIAN_POINT('Ctrl Pts',(0.66,-0.293263240337,1.284139377081));
#424=CARTESIAN_POINT('Ctrl Pts',(0.66,-0.291059628806,1.293647957516));
#425=CARTESIAN_POINT('Ctrl Pts',(0.66,-0.288484130363,1.303133926208));
#426=CARTESIAN_POINT('Ctrl Pts',(0.66,-0.282698083788,1.321631884472));
#427=CARTESIAN_POINT('Ctrl Pts',(0.66,-0.279518227914,1.330647303479));
#428=CARTESIAN_POINT('Ctrl Pts',(0.66,-0.275984860345,1.33960658093));
#429=CARTESIAN_POINT('Ctrl Pts',(0.66,-0.272093455342,1.348491200819));
#430=CARTESIAN_POINT('Ctrl Pts',(0.66,-0.267840708483,1.357281511993));
#431=CARTESIAN_POINT('Ctrl Pts',(0.66,-0.258792476906,1.374285940745));
#432=CARTESIAN_POINT('Ctrl Pts',(0.66,-0.254025481533,1.382509111114));
#433=CARTESIAN_POINT('Ctrl Pts',(0.66,-0.248921768643,1.390607755283));
#434=CARTESIAN_POINT('Ctrl Pts',(0.66,-0.243480982245,1.398562700734));
#435=CARTESIAN_POINT('Ctrl Pts',(0.66,-0.237704192262,1.406354086406));
#436=CARTESIAN_POINT('Ctrl Pts',(0.66,-0.22571513259,1.421280378602));
#437=CARTESIAN_POINT('Ctrl Pts',(0.66,-0.219527706492,1.428429037341));
#438=CARTESIAN_POINT('Ctrl Pts',(0.66,-0.213033892817,1.435388992124));
#439=CARTESIAN_POINT('Ctrl Pts',(0.66,-0.206237433156,1.442141613477));
#440=CARTESIAN_POINT('Ctrl Pts',(0.66,-0.199143534101,1.448667989237));
#441=CARTESIAN_POINT('Ctrl Pts',(0.66,-0.184639374507,1.46100431938));
#442=CARTESIAN_POINT('Ctrl Pts',(0.66,-0.177249666015,1.466831638372));
#443=CARTESIAN_POINT('Ctrl Pts',(0.66,-0.169595736209,1.472413656662));
#444=CARTESIAN_POINT('Ctrl Pts',(0.66,-0.161685054894,1.477733175901));
#445=CARTESIAN_POINT('Ctrl Pts',(0.66,-0.153526567249,1.482773024258));
#446=CARTESIAN_POINT('Ctrl Pts',(0.66,-0.137020407721,1.492097753386));
#447=CARTESIAN_POINT('Ctrl Pts',(0.66,-0.128688747003,1.496402530856));
#448=CARTESIAN_POINT('Ctrl Pts',(0.66,-0.12014499879,1.500414878928));
#449=CARTESIAN_POINT('Ctrl Pts',(0.66,-0.111400259626,1.504119593216));
#450=CARTESIAN_POINT('Ctrl Pts',(0.66,-0.102467435485,1.507501774849));
#451=CARTESIAN_POINT('Ctrl Pts',(0.66,-0.08453493192811,1.513498294635));
#452=CARTESIAN_POINT('Ctrl Pts',(0.66,-0.07554639694304,1.516132890753));
#453=CARTESIAN_POINT('Ctrl Pts',(0.66,-0.0664085144705,1.518437847791));
#454=CARTESIAN_POINT('Ctrl Pts',(0.66,-0.05713783351899,1.520400106432));
#455=CARTESIAN_POINT('Ctrl Pts',(0.66,-0.04775488525608,1.522007764907));
#456=CARTESIAN_POINT('Ctrl Pts',(0.66,-0.02969295309097,1.524379864025));
#457=CARTESIAN_POINT('Ctrl Pts',(0.66,-0.02102888075484,1.525208782901));
#458=CARTESIAN_POINT('Ctrl Pts',(0.66,-0.01231401679426,1.525730893697));
#459=CARTESIAN_POINT('Ctrl Pts',(0.66,-0.003572675622322,1.525941364018));
#460=CARTESIAN_POINT('Ctrl Pts',(0.66,0.005168222805428,1.525838983228));
#461=CARTESIAN_POINT('Ctrl Pts',(0.66,0.02337847467049,1.524978205181));
#462=CARTESIAN_POINT('Ctrl Pts',(0.66,0.03284375814827,1.524161190409));
#463=CARTESIAN_POINT('Ctrl Pts',(0.66,0.04224166817951,1.522980309203));
#464=CARTESIAN_POINT('Ctrl Pts',(0.66,0.05154498116248,1.52144453626));
#465=CARTESIAN_POINT('Ctrl Pts',(0.66,0.06073223707979,1.519565307122));
#466=CARTESIAN_POINT('Ctrl Pts',(0.66,0.07909772773064,1.515080653378));
#467=CARTESIAN_POINT('Ctrl Pts',(0.66,0.08826753248322,1.512456350085));
#468=CARTESIAN_POINT('Ctrl Pts',(0.66,0.09727917108862,1.509494369221));
#469=CARTESIAN_POINT('Ctrl Pts',(0.66,0.106117308319,1.506208374239));
#470=CARTESIAN_POINT('Ctrl Pts',(0.66,0.114768939441,1.502612541932));
#471=CARTESIAN_POINT('Ctrl Pts',(0.66,0.131966117695,1.494697909774));
#472=CARTESIAN_POINT('Ctrl Pts',(0.66,0.140497702999,1.490358571609));
#473=CARTESIAN_POINT('Ctrl Pts',(0.66,0.148806061897,1.485719660214));
#474=CARTESIAN_POINT('Ctrl Pts',(0.66,0.156880650792,1.480797427009));
#475=CARTESIAN_POINT('Ctrl Pts',(0.66,0.164712466725,1.47560826256));
#476=CARTESIAN_POINT('Ctrl Pts',(0.66,0.180151423764,1.464531255078));
#477=CARTESIAN_POINT('Ctrl Pts',(0.66,0.187739958872,1.458624810593));
#478=CARTESIAN_POINT('Ctrl Pts',(0.66,0.195051326582,1.452467732556));
#479=CARTESIAN_POINT('Ctrl Pts',(0.66,0.202078661493,1.446078253645));
#480=CARTESIAN_POINT('Ctrl Pts',(0.66,0.208816558921,1.439474469779));
#481=CARTESIAN_POINT('Ctrl Pts',(0.66,0.221953232148,1.425612904145));
#482=CARTESIAN_POINT('Ctrl Pts',(0.66,0.228328983313,1.41833967682));
#483=CARTESIAN_POINT('Ctrl Pts',(0.66,0.234383958936,1.410874731309));
#484=CARTESIAN_POINT('Ctrl Pts',(0.66,0.240115246881,1.403237638329));
#485=CARTESIAN_POINT('Ctrl Pts',(0.66,0.245521392347,1.395447466144));
#486=CARTESIAN_POINT('Ctrl Pts',(0.66,0.255889855564,1.379276097975));
#487=CARTESIAN_POINT('Ctrl Pts',(0.66,0.260825146013,1.370883681886));
#488=CARTESIAN_POINT('Ctrl Pts',(0.66,0.265408341569,1.362366377835));
#489=CARTESIAN_POINT('Ctrl Pts',(0.66,0.269640849736,1.353744088225));
#490=CARTESIAN_POINT('Ctrl Pts',(0.66,0.273525413156,1.345035772328));
#491=CARTESIAN_POINT('Ctrl Pts',(0.66,0.280757352367,1.327109961101));
#492=CARTESIAN_POINT('Ctrl Pts',(0.66,0.284074759274,1.317886517643));
#493=CARTESIAN_POINT('Ctrl Pts',(0.66,0.287023012024,1.308609403309));
#494=CARTESIAN_POINT('Ctrl Pts',(0.66,0.289607802772,1.299297542852));
#495=CARTESIAN_POINT('Ctrl Pts',(0.66,0.291835834134,1.289968498384));
#496=CARTESIAN_POINT('Ctrl Pts',(0.66,0.295674958709,1.270905470981));
#497=CARTESIAN_POINT('Ctrl Pts',(0.66,0.297255116553,1.261171411794));
#498=CARTESIAN_POINT('Ctrl Pts',(0.66,0.298464074992,1.251454521799));
#499=CARTESIAN_POINT('Ctrl Pts',(0.66,0.299311100714,1.241771401083));
#500=CARTESIAN_POINT('Ctrl Pts',(0.66,0.299805944827,1.232137019844));
#501=CARTESIAN_POINT('Ctrl Pts',(0.66,0.30011808361,1.212595326012));
#502=CARTESIAN_POINT('Ctrl Pts',(0.66,0.299906283631,1.202693348802));
#503=CARTESIAN_POINT('Ctrl Pts',(0.66,0.299334987113,1.192873693594));
#504=CARTESIAN_POINT('Ctrl Pts',(0.66,0.298415571185,1.183149633751));
#505=CARTESIAN_POINT('Ctrl Pts',(0.66,0.297159245916,1.173532809156));
#506=CARTESIAN_POINT('Ctrl Pts',(0.66,0.293937772017,1.154190866917));
#507=CARTESIAN_POINT('Ctrl Pts',(0.66,0.291948568133,1.144474505513));
#508=CARTESIAN_POINT('Ctrl Pts',(0.66,0.289621677512,1.134895129825));
#509=CARTESIAN_POINT('Ctrl Pts',(0.66,0.286968496105,1.125462405282));
#510=CARTESIAN_POINT('Ctrl Pts',(0.66,0.283999580964,1.116184674916));
#511=CARTESIAN_POINT('Ctrl Pts',(0.66,0.277365684897,1.097719334783));
#512=CARTESIAN_POINT('Ctrl Pts',(0.66,0.273684712853,1.08854034335));
#513=CARTESIAN_POINT('Ctrl Pts',(0.66,0.269692176119,1.079539433524));
#514=CARTESIAN_POINT('Ctrl Pts',(0.66,0.265397048483,1.07072335418));
#515=CARTESIAN_POINT('Ctrl Pts',(0.66,0.260806835513,1.062098154612));
#516=CARTESIAN_POINT('Ctrl Pts',(0.66,0.251004164416,1.045163946312));
#517=CARTESIAN_POINT('Ctrl Pts',(0.66,0.245786379559,1.036858764173));
#518=CARTESIAN_POINT('Ctrl Pts',(0.66,0.240280407048,1.028758964174));
#519=CARTESIAN_POINT('Ctrl Pts',(0.66,0.234490342534,1.020870115558));
#520=CARTESIAN_POINT('Ctrl Pts',(0.66,0.228418190257,1.013198030747));
#521=CARTESIAN_POINT('Ctrl Pts',(0.66,0.215801462132,0.998407266407));
#522=CARTESIAN_POINT('Ctrl Pts',(0.66,0.209265037039,0.991282398269));
#523=CARTESIAN_POINT('Ctrl Pts',(0.66,0.202454011648,0.98438004474));
#524=CARTESIAN_POINT('Ctrl Pts',(0.66,0.195365844133,0.977707070031));
#525=CARTESIAN_POINT('Ctrl Pts',(0.66,0.187995125017,0.971271927442));
#526=CARTESIAN_POINT('Ctrl Pts',(0.66,0.173012685338,0.959175110633));
#527=CARTESIAN_POINT('Ctrl Pts',(0.66,0.165426730288,0.953491920673));
#528=CARTESIAN_POINT('Ctrl Pts',(0.66,0.157566473117,0.948044968651));
#529=CARTESIAN_POINT('Ctrl Pts',(0.66,0.149421191466,0.9428457983));
#530=CARTESIAN_POINT('Ctrl Pts',(0.66,0.140976348171,0.937909629891));
#531=CARTESIAN_POINT('Ctrl Pts',(0.66,0.124148062588,0.928975570166));
#532=CARTESIAN_POINT('Ctrl Pts',(0.66,0.115814079383,0.924934455913));
#533=CARTESIAN_POINT('Ctrl Pts',(0.66,0.107194119667,0.921149233675));
#534=CARTESIAN_POINT('Ctrl Pts',(0.66,0.09826941158436,0.91763978502));
#535=CARTESIAN_POINT('Ctrl Pts',(0.66,0.08901687105598,0.914432779149));
#536=CARTESIAN_POINT('Ctrl Pts',(0.66,0.06762842160337,0.908048369916));
#537=CARTESIAN_POINT('Ctrl Pts',(0.66,0.05540310162877,0.905067930004));
#538=CARTESIAN_POINT('Ctrl Pts',(0.66,0.04253150709481,0.902628405907));
#539=CARTESIAN_POINT('Ctrl Pts',(0.66,0.02893757304003,0.900850137762));
#540=CARTESIAN_POINT('Ctrl Pts',(0.66,0.01468319780375,0.899909084997));
#541=CARTESIAN_POINT('Ctrl Pts',(0.66,0.,0.899909083395));
#542=CARTESIAN_POINT('Origin',(0.66,0.,1.25));
#543=CARTESIAN_POINT('',(5.385,-1.125,1.25));
#544=CARTESIAN_POINT('',(0.66,-1.125,1.25));
#545=CARTESIAN_POINT('Origin',(5.385,0.,1.25));
#546=CARTESIAN_POINT('Origin',(0.9,0.,0.35));
#547=CARTESIAN_POINT('',(0.3,0.,0.35));
#548=CARTESIAN_POINT('Origin',(0.9,-3.67394039744206E-17,0.35));
#549=CARTESIAN_POINT('',(-0.3,-3.67394039744206E-17,0.35));
#550=CARTESIAN_POINT('Origin',(0.,0.,0.35));
#551=CARTESIAN_POINT('Origin',(0.,0.,0.35));
#552=CARTESIAN_POINT('Origin',(5.385,1.25,1.25));
#553=CARTESIAN_POINT('',(5.385,-1.25,1.25));
#554=CARTESIAN_POINT('Origin',(5.385,0.,1.25));
#555=CARTESIAN_POINT('Origin',(0.,0.,-3.));
#556=CARTESIAN_POINT('',(-0.3,-3.67394039744206E-17,-3.));
#557=CARTESIAN_POINT('',(-0.3,-3.67394039744206E-17,-3.));
#558=CARTESIAN_POINT('Origin',(0.,0.,-3.));
#559=CARTESIAN_POINT('Origin',(5.385,0.,1.25));
#560=CARTESIAN_POINT('',(6.335,-1.25,1.25));
#561=CARTESIAN_POINT('',(5.385,-1.25,1.25));
#562=CARTESIAN_POINT('Origin',(6.335,0.,1.25));
#563=CARTESIAN_POINT('Origin',(0.3,0.,-3.));
#564=CARTESIAN_POINT('Ctrl Pts',(6.335,-1.25,1.25));
#565=CARTESIAN_POINT('Ctrl Pts',(6.335,-1.25,2.77555756156289E-16));
#566=CARTESIAN_POINT('Ctrl Pts',(6.335,0.,0.));
#567=CARTESIAN_POINT('Ctrl Pts',(6.335,1.25,2.77555756156289E-16));
#568=CARTESIAN_POINT('Ctrl Pts',(6.335,1.25,1.25));
#569=CARTESIAN_POINT('Ctrl Pts',(6.335,1.25,2.5));
#570=CARTESIAN_POINT('Ctrl Pts',(6.335,0.,2.5));
#571=CARTESIAN_POINT('Ctrl Pts',(6.335,-1.25,2.5));
#572=CARTESIAN_POINT('Ctrl Pts',(6.335,-1.25,1.25));
#573=CARTESIAN_POINT('Ctrl Pts',(6.96,-1.25,1.25));
#574=CARTESIAN_POINT('Ctrl Pts',(6.96,-1.25,2.77555756156289E-16));
#575=CARTESIAN_POINT('Ctrl Pts',(6.96,0.,0.));
#576=CARTESIAN_POINT('Ctrl Pts',(6.96,1.25,2.77555756156289E-16));
#577=CARTESIAN_POINT('Ctrl Pts',(6.96,1.25,1.25));
#578=CARTESIAN_POINT('Ctrl Pts',(6.96,1.25,2.5));
#579=CARTESIAN_POINT('Ctrl Pts',(6.96,0.,2.5));
#580=CARTESIAN_POINT('Ctrl Pts',(6.96,-1.25,2.5));
#581=CARTESIAN_POINT('Ctrl Pts',(6.96,-1.25,1.25));
#582=CARTESIAN_POINT('Ctrl Pts',(6.96,-0.625,1.25));
#583=CARTESIAN_POINT('Ctrl Pts',(6.96,-0.625,0.625));
#584=CARTESIAN_POINT('Ctrl Pts',(6.96,0.,0.625));
#585=CARTESIAN_POINT('Ctrl Pts',(6.96,0.625,0.625));
#586=CARTESIAN_POINT('Ctrl Pts',(6.96,0.625,1.25));
#587=CARTESIAN_POINT('Ctrl Pts',(6.96,0.625,1.875));
#588=CARTESIAN_POINT('Ctrl Pts',(6.96,0.,1.875));
#589=CARTESIAN_POINT('Ctrl Pts',(6.96,-0.625,1.875));
#590=CARTESIAN_POINT('Ctrl Pts',(6.96,-0.625,1.25));
#591=CARTESIAN_POINT('',(6.96,-0.625,1.25));
#592=CARTESIAN_POINT('Origin',(6.96,0.,1.25));
#593=CARTESIAN_POINT('Origin',(6.335,-0.625,1.25));
#594=CARTESIAN_POINT('Origin',(6.96,1.25,1.25));
#595=CARTESIAN_POINT('',(6.96,1.102182119233E-16,0.899909083395));
#596=CARTESIAN_POINT('Ctrl Pts',(6.96,0.,0.899909083395));
#597=CARTESIAN_POINT('Ctrl Pts',(6.96,-0.009860167462582,0.89990896861));
#598=CARTESIAN_POINT('Ctrl Pts',(6.96,-0.0196044152314,0.900333777569));
#599=CARTESIAN_POINT('Ctrl Pts',(6.96,-0.02906856746895,0.901162791225));
#600=CARTESIAN_POINT('Ctrl Pts',(6.96,-0.03818494668051,0.902337445313));
#601=CARTESIAN_POINT('Ctrl Pts',(6.96,-0.04697397432956,0.903804960014));
#602=CARTESIAN_POINT('Ctrl Pts',(6.96,-0.0654122858756,0.907588661461));
#603=CARTESIAN_POINT('Ctrl Pts',(6.96,-0.07491985816654,0.909985989386));
#604=CARTESIAN_POINT('Ctrl Pts',(6.96,-0.08408849098391,0.912709553602));
#605=CARTESIAN_POINT('Ctrl Pts',(6.96,-0.09294310465939,0.915726321464));
#606=CARTESIAN_POINT('Ctrl Pts',(6.96,-0.10150496885,0.919011549987));
#607=CARTESIAN_POINT('Ctrl Pts',(6.96,-0.118958221281,0.926453836747));
#608=CARTESIAN_POINT('Ctrl Pts',(6.96,-0.127787715696,0.930666010737));
#609=CARTESIAN_POINT('Ctrl Pts',(6.96,-0.136306161655,0.935155928941));
#610=CARTESIAN_POINT('Ctrl Pts',(6.96,-0.144532121634,0.939904049757));
#611=CARTESIAN_POINT('Ctrl Pts',(6.96,-0.152479877126,0.944895641374));
#612=CARTESIAN_POINT('Ctrl Pts',(6.96,-0.168328600516,0.955672815412));
#613=CARTESIAN_POINT('Ctrl Pts',(6.96,-0.176194773963,0.961488214941));
#614=CARTESIAN_POINT('Ctrl Pts',(6.96,-0.183772608747,0.967551566344));
#615=CARTESIAN_POINT('Ctrl Pts',(6.96,-0.191071765541,0.973851742068));
#616=CARTESIAN_POINT('Ctrl Pts',(6.96,-0.198098606692,0.980379951052));
#617=CARTESIAN_POINT('Ctrl Pts',(6.96,-0.211800202804,0.994065659178));
#618=CARTESIAN_POINT('Ctrl Pts',(6.96,-0.218460270558,1.001234983766));
#619=CARTESIAN_POINT('Ctrl Pts',(6.96,-0.224839910615,1.00863041136));
#620=CARTESIAN_POINT('Ctrl Pts',(6.96,-0.230940211566,1.016245364777));
#621=CARTESIAN_POINT('Ctrl Pts',(6.96,-0.236759839456,1.024073990789));
#622=CARTESIAN_POINT('Ctrl Pts',(6.96,-0.247832003876,1.040150861324));
#623=CARTESIAN_POINT('Ctrl Pts',(6.96,-0.253084568675,1.048398903269));
#624=CARTESIAN_POINT('Ctrl Pts',(6.96,-0.258049049185,1.05685004652));
#625=CARTESIAN_POINT('Ctrl Pts',(6.96,-0.2627200155,1.065498685566));
#626=CARTESIAN_POINT('Ctrl Pts',(6.96,-0.267090290802,1.074338848812));
#627=CARTESIAN_POINT('Ctrl Pts',(6.96,-0.275134913375,1.092219064394));
#628=CARTESIAN_POINT('Ctrl Pts',(6.96,-0.278821000575,1.10125194666));
#629=CARTESIAN_POINT('Ctrl Pts',(6.96,-0.282200788118,1.110456818481));
#630=CARTESIAN_POINT('Ctrl Pts',(6.96,-0.285264726102,1.119826534893));
#631=CARTESIAN_POINT('Ctrl Pts',(6.96,-0.288002139566,1.129352832871));
#632=CARTESIAN_POINT('Ctrl Pts',(6.96,-0.292725370416,1.148397637921));
#633=CARTESIAN_POINT('Ctrl Pts',(6.96,-0.29473215882,1.157906911838));
#634=CARTESIAN_POINT('Ctrl Pts',(6.96,-0.296410834199,1.16754558505));
#635=CARTESIAN_POINT('Ctrl Pts',(6.96,-0.297750172302,1.177303521997));
#636=CARTESIAN_POINT('Ctrl Pts',(6.96,-0.298738484134,1.187169019587));
#637=CARTESIAN_POINT('Ctrl Pts',(6.96,-0.29996489055,1.20670853133));
#638=CARTESIAN_POINT('Ctrl Pts',(6.96,-0.300230362775,1.216375375657));
#639=CARTESIAN_POINT('Ctrl Pts',(6.96,-0.300149187552,1.22611747583));
#640=CARTESIAN_POINT('Ctrl Pts',(6.96,-0.299710732489,1.235921267953));
#641=CARTESIAN_POINT('Ctrl Pts',(6.96,-0.298904577874,1.245771488577));
#642=CARTESIAN_POINT('Ctrl Pts',(6.96,-0.296585075031,1.265125180201));
#643=CARTESIAN_POINT('Ctrl Pts',(6.96,-0.295102319855,1.27462625024));
#644=CARTESIAN_POINT('Ctrl Pts',(6.96,-0.293263243612,1.284139361954));
#645=CARTESIAN_POINT('Ctrl Pts',(6.96,-0.29105964956,1.293647958229));
#646=CARTESIAN_POINT('Ctrl Pts',(6.96,-0.288484151749,1.303133947704));
#647=CARTESIAN_POINT('Ctrl Pts',(6.96,-0.282698057797,1.321631888118));
#648=CARTESIAN_POINT('Ctrl Pts',(6.96,-0.279518212828,1.330647292743));
#649=CARTESIAN_POINT('Ctrl Pts',(6.96,-0.275984865526,1.339606568389));
#650=CARTESIAN_POINT('Ctrl Pts',(6.96,-0.27209347283,1.348491205415));
#651=CARTESIAN_POINT('Ctrl Pts',(6.96,-0.26784072321,1.357281534804));
#652=CARTESIAN_POINT('Ctrl Pts',(6.96,-0.258792456003,1.374285939199));
#653=CARTESIAN_POINT('Ctrl Pts',(6.96,-0.254025471274,1.382509099941));
#654=CARTESIAN_POINT('Ctrl Pts',(6.96,-0.248921774536,1.390607746147));
#655=CARTESIAN_POINT('Ctrl Pts',(6.96,-0.24348099529,1.398562707415));
#656=CARTESIAN_POINT('Ctrl Pts',(6.96,-0.237704200488,1.406354107177));
#657=CARTESIAN_POINT('Ctrl Pts',(6.96,-0.225715116467,1.421280374005));
#658=CARTESIAN_POINT('Ctrl Pts',(6.96,-0.219527700064,1.428429026844));
#659=CARTESIAN_POINT('Ctrl Pts',(6.96,-0.213033898729,1.435388985848));
#660=CARTESIAN_POINT('Ctrl Pts',(6.96,-0.206237442407,1.442141620875));
#661=CARTESIAN_POINT('Ctrl Pts',(6.96,-0.199143537578,1.448668007007));
#662=CARTESIAN_POINT('Ctrl Pts',(6.96,-0.184639358866,1.461004311837));
#663=CARTESIAN_POINT('Ctrl Pts',(6.96,-0.177249661366,1.46683162664));
#664=CARTESIAN_POINT('Ctrl Pts',(6.96,-0.169595743404,1.472413651413));
#665=CARTESIAN_POINT('Ctrl Pts',(6.96,-0.161685063001,1.477733185029));
#666=CARTESIAN_POINT('Ctrl Pts',(6.96,-0.153526567552,1.482773042789));
#667=CARTESIAN_POINT('Ctrl Pts',(6.96,-0.137020377957,1.492097733275));
#668=CARTESIAN_POINT('Ctrl Pts',(6.96,-0.128688741655,1.496402506097));
#669=CARTESIAN_POINT('Ctrl Pts',(6.96,-0.120145015698,1.500414870926));
#670=CARTESIAN_POINT('Ctrl Pts',(6.96,-0.111400273136,1.504119613979));
#671=CARTESIAN_POINT('Ctrl Pts',(6.96,-0.102467429294,1.507501811642));
#672=CARTESIAN_POINT('Ctrl Pts',(6.96,-0.08453487359643,1.513498183633));
#673=CARTESIAN_POINT('Ctrl Pts',(6.96,-0.07554644720911,1.51613308184));
#674=CARTESIAN_POINT('Ctrl Pts',(6.96,-0.06640854708582,1.518437839156));
#675=CARTESIAN_POINT('Ctrl Pts',(6.96,-0.05713780068804,1.520399910874));
#676=CARTESIAN_POINT('Ctrl Pts',(6.96,-0.04775487845774,1.522007893513));
#677=CARTESIAN_POINT('Ctrl Pts',(6.96,-0.02969292548283,1.52437977876));
#678=CARTESIAN_POINT('Ctrl Pts',(6.96,-0.02102889094976,1.525208924822));
#679=CARTESIAN_POINT('Ctrl Pts',(6.96,-0.01231404153143,1.525730890851));
#680=CARTESIAN_POINT('Ctrl Pts',(6.96,-0.003572679276074,1.525941220805));
#681=CARTESIAN_POINT('Ctrl Pts',(6.96,0.005168243033088,1.52583907475));
#682=CARTESIAN_POINT('Ctrl Pts',(6.96,0.02337844678287,1.524978413229));
#683=CARTESIAN_POINT('Ctrl Pts',(6.96,0.03284373024997,1.524160868463));
#684=CARTESIAN_POINT('Ctrl Pts',(6.96,0.04224172239025,1.522980299422));
#685=CARTESIAN_POINT('Ctrl Pts',(6.96,0.05154503802108,1.521444853212));
#686=CARTESIAN_POINT('Ctrl Pts',(6.96,0.06073215666605,1.519565119195));
#687=CARTESIAN_POINT('Ctrl Pts',(6.96,0.07909771199475,1.515080715405));
#688=CARTESIAN_POINT('Ctrl Pts',(6.96,0.0882675531125,1.512456387335));
#689=CARTESIAN_POINT('Ctrl Pts',(6.96,0.09727920151967,1.509494357792));
#690=CARTESIAN_POINT('Ctrl Pts',(6.96,0.106117302403,1.506208331254));
#691=CARTESIAN_POINT('Ctrl Pts',(6.96,0.114768890523,1.502612503667));
#692=CARTESIAN_POINT('Ctrl Pts',(6.96,0.1319661163,1.494697932395));
#693=CARTESIAN_POINT('Ctrl Pts',(6.96,0.140497712216,1.490358583428));
#694=CARTESIAN_POINT('Ctrl Pts',(6.96,0.148806071355,1.485719654426));
#695=CARTESIAN_POINT('Ctrl Pts',(6.96,0.156880646133,1.480797412311));
#696=CARTESIAN_POINT('Ctrl Pts',(6.96,0.164712447986,1.475608252032));
#697=CARTESIAN_POINT('Ctrl Pts',(6.96,0.180151425777,1.46453127229));
#698=CARTESIAN_POINT('Ctrl Pts',(6.96,0.187739967164,1.45862481836));
#699=CARTESIAN_POINT('Ctrl Pts',(6.96,0.195051332691,1.452467727028));
#700=CARTESIAN_POINT('Ctrl Pts',(6.96,0.20207865613,1.446078243141));
#701=CARTESIAN_POINT('Ctrl Pts',(6.96,0.208816543867,1.439474464151));
#702=CARTESIAN_POINT('Ctrl Pts',(6.96,0.221953238059,1.425612923524));
#703=CARTESIAN_POINT('Ctrl Pts',(6.96,0.228328994524,1.418339683896));
#704=CARTESIAN_POINT('Ctrl Pts',(6.96,0.234383964852,1.410874723556));
#705=CARTESIAN_POINT('Ctrl Pts',(6.96,0.240115238483,1.403237627432));
#706=CARTESIAN_POINT('Ctrl Pts',(6.96,0.245521373748,1.395447463058));
#707=CARTESIAN_POINT('Ctrl Pts',(6.96,0.25588986733,1.379276120213));
#708=CARTESIAN_POINT('Ctrl Pts',(6.96,0.260825161615,1.370883687614));
#709=CARTESIAN_POINT('Ctrl Pts',(6.96,0.265408347201,1.362366366749));
#710=CARTESIAN_POINT('Ctrl Pts',(6.96,0.269640836772,1.353744077057));
#711=CARTESIAN_POINT('Ctrl Pts',(6.96,0.273525389215,1.345035773446));
#712=CARTESIAN_POINT('Ctrl Pts',(6.96,0.280757370989,1.327109983642));
#713=CARTESIAN_POINT('Ctrl Pts',(6.96,0.284074778857,1.317886520225));
#714=CARTESIAN_POINT('Ctrl Pts',(6.96,0.28702301626,1.308609389122));
#715=CARTESIAN_POINT('Ctrl Pts',(6.96,0.289607785113,1.29929753334));
#716=CARTESIAN_POINT('Ctrl Pts',(6.96,0.291835806202,1.289968505808));
#717=CARTESIAN_POINT('Ctrl Pts',(6.96,0.295674983107,1.270905490066));
#718=CARTESIAN_POINT('Ctrl Pts',(6.96,0.297255138129,1.261171409814));
#719=CARTESIAN_POINT('Ctrl Pts',(6.96,0.298464076807,1.251454505978));
#720=CARTESIAN_POINT('Ctrl Pts',(6.96,0.299311079865,1.241771395371));
#721=CARTESIAN_POINT('Ctrl Pts',(6.96,0.299805916194,1.232137034265));
#722=CARTESIAN_POINT('Ctrl Pts',(6.96,0.300118111197,1.212595339038));
#723=CARTESIAN_POINT('Ctrl Pts',(6.96,0.299906304864,1.202693342182));
#724=CARTESIAN_POINT('Ctrl Pts',(6.96,0.299334986276,1.192873677979));
#725=CARTESIAN_POINT('Ctrl Pts',(6.96,0.298415549391,1.183149632812));
#726=CARTESIAN_POINT('Ctrl Pts',(6.96,0.29715921972,1.173532829284));
#727=CARTESIAN_POINT('Ctrl Pts',(6.96,0.293937801394,1.154190874));
#728=CARTESIAN_POINT('Ctrl Pts',(6.96,0.291948588365,1.144474495238));
#729=CARTESIAN_POINT('Ctrl Pts',(6.96,0.28962167445,1.134895115228));
#730=CARTESIAN_POINT('Ctrl Pts',(6.96,0.286968474246,1.125462408515));
#731=CARTESIAN_POINT('Ctrl Pts',(6.96,0.283999557728,1.116184698885));
#732=CARTESIAN_POINT('Ctrl Pts',(6.96,0.277365720041,1.097719338125));
#733=CARTESIAN_POINT('Ctrl Pts',(6.96,0.273684735103,1.088540329457));
#734=CARTESIAN_POINT('Ctrl Pts',(6.96,0.269692170683,1.079539418357));
#735=CARTESIAN_POINT('Ctrl Pts',(6.96,0.265397023465,1.070723360764));
#736=CARTESIAN_POINT('Ctrl Pts',(6.96,0.260806811571,1.062098183552));
#737=CARTESIAN_POINT('Ctrl Pts',(6.96,0.251004219697,1.045163947022));
#738=CARTESIAN_POINT('Ctrl Pts',(6.96,0.245786411547,1.036858741787));
#739=CARTESIAN_POINT('Ctrl Pts',(6.96,0.240280395782,1.028758943151));
#740=CARTESIAN_POINT('Ctrl Pts',(6.96,0.234490304979,1.02087012779));
#741=CARTESIAN_POINT('Ctrl Pts',(6.96,0.22841815861,1.013198074729));
#742=CARTESIAN_POINT('Ctrl Pts',(6.96,0.215801547815,0.998407234883));
#743=CARTESIAN_POINT('Ctrl Pts',(6.96,0.209264913083,0.99128247471));
#744=CARTESIAN_POINT('Ctrl Pts',(6.96,0.202454000094,0.984380026053));
#745=CARTESIAN_POINT('Ctrl Pts',(6.96,0.195365961507,0.977706983911));
#746=CARTESIAN_POINT('Ctrl Pts',(6.96,0.187995061392,0.971271997058));
#747=CARTESIAN_POINT('Ctrl Pts',(6.96,0.173012837564,0.959175029375));
#748=CARTESIAN_POINT('Ctrl Pts',(6.96,0.165426529007,0.953492099376));
#749=CARTESIAN_POINT('Ctrl Pts',(6.96,0.157566437944,0.948044934321));
#750=CARTESIAN_POINT('Ctrl Pts',(6.96,0.149421373308,0.942845601948));
#751=CARTESIAN_POINT('Ctrl Pts',(6.96,0.140976264593,0.937909781461));
#752=CARTESIAN_POINT('Ctrl Pts',(6.96,0.124148131162,0.928975627958));
#753=CARTESIAN_POINT('Ctrl Pts',(6.96,0.115814071992,0.924934439518));
#754=CARTESIAN_POINT('Ctrl Pts',(6.96,0.107194037794,0.921149181784));
#755=CARTESIAN_POINT('Ctrl Pts',(6.96,0.09826937450524,0.917639774974));
#756=CARTESIAN_POINT('Ctrl Pts',(6.96,0.08901696421491,0.914432828225));
#757=CARTESIAN_POINT('Ctrl Pts',(6.96,0.06762356037127,0.908046964389));
#758=CARTESIAN_POINT('Ctrl Pts',(6.96,0.05540377745077,0.905068595899));
#759=CARTESIAN_POINT('Ctrl Pts',(6.96,0.04253681255711,0.902629529668));
#760=CARTESIAN_POINT('Ctrl Pts',(6.96,0.02893994360873,0.900849442899));
#761=CARTESIAN_POINT('Ctrl Pts',(6.96,0.0146772221458,0.899909046356));
#762=CARTESIAN_POINT('Ctrl Pts',(6.96,0.,0.899909083395));
#763=CARTESIAN_POINT('Origin',(6.72,0.,0.35));
#764=CARTESIAN_POINT('',(7.32,0.,0.35));
#765=CARTESIAN_POINT('',(7.92,-3.67394039744206E-17,0.35));
#766=CARTESIAN_POINT('Origin',(7.62,0.,0.35));
#767=CARTESIAN_POINT('Origin',(7.62,0.,0.35));
#768=CARTESIAN_POINT('Origin',(6.72,-3.67394039744206E-17,0.35));
#769=CARTESIAN_POINT('Origin',(7.62,0.,0.35));
#770=CARTESIAN_POINT('',(7.92,-3.67394039744206E-17,-3.));
#771=CARTESIAN_POINT('Origin',(7.62,0.,-3.));
#772=CARTESIAN_POINT('',(7.92,-3.67394039744206E-17,0.35));
#773=CARTESIAN_POINT('Origin',(7.32,0.,-3.));
#774=UNCERTAINTY_MEASURE_WITH_UNIT(LENGTH_MEASURE(0.01),#778,
'DISTANCE_ACCURACY_VALUE',
'Maximum model space distance between geometric entities at asserted c
onnectivities');
#775=UNCERTAINTY_MEASURE_WITH_UNIT(LENGTH_MEASURE(0.01),#778,
'DISTANCE_ACCURACY_VALUE',
'Maximum model space distance between geometric entities at asserted c
onnectivities');
#776=(
GEOMETRIC_REPRESENTATION_CONTEXT(3)
GLOBAL_UNCERTAINTY_ASSIGNED_CONTEXT((#774))
GLOBAL_UNIT_ASSIGNED_CONTEXT((#778,#780,#781))
REPRESENTATION_CONTEXT('','3D')
);
#777=(
GEOMETRIC_REPRESENTATION_CONTEXT(3)
GLOBAL_UNCERTAINTY_ASSIGNED_CONTEXT((#775))
GLOBAL_UNIT_ASSIGNED_CONTEXT((#778,#780,#781))
REPRESENTATION_CONTEXT('','3D')
);
#778=(
LENGTH_UNIT()
NAMED_UNIT(*)
SI_UNIT(.MILLI.,.METRE.)
);
#779=(
LENGTH_UNIT()
NAMED_UNIT(*)
SI_UNIT($,.METRE.)
);
#780=(
NAMED_UNIT(*)
PLANE_ANGLE_UNIT()
SI_UNIT($,.RADIAN.)
);
#781=(
NAMED_UNIT(*)
SI_UNIT($,.STERADIAN.)
SOLID_ANGLE_UNIT()
);
#782=SHAPE_DEFINITION_REPRESENTATION(#783,#784);
#783=PRODUCT_DEFINITION_SHAPE('',$,#786);
#784=SHAPE_REPRESENTATION('',(#232),#776);
#785=PRODUCT_DEFINITION_CONTEXT('part definition',#790,'design');
#786=PRODUCT_DEFINITION('2026-06-03-18-27-44-080',
'R_Axial_DIN0207_L6.3mm_D2.5mm_P7.62mm_Horizontal',#787,#785);
#787=PRODUCT_DEFINITION_FORMATION('',$,#792);
#788=PRODUCT_RELATED_PRODUCT_CATEGORY(
'R_Axial_DIN0207_L6.3mm_D2.5mm_P7.62mm_Horizontal',
'R_Axial_DIN0207_L6.3mm_D2.5mm_P7.62mm_Horizontal',(#792));
#789=APPLICATION_PROTOCOL_DEFINITION('international standard',
'automotive_design',2009,#790);
#790=APPLICATION_CONTEXT(
'Core Data for Automotive Mechanical Design Process');
#791=PRODUCT_CONTEXT('part definition',#790,'mechanical');
#792=PRODUCT('2026-06-03-18-27-44-080',
'R_Axial_DIN0207_L6.3mm_D2.5mm_P7.62mm_Horizontal',$,(#791));
#793=PRESENTATION_STYLE_ASSIGNMENT((#796));
#794=PRESENTATION_STYLE_ASSIGNMENT((#797));
#795=PRESENTATION_STYLE_ASSIGNMENT((#798));
#796=SURFACE_STYLE_USAGE(.BOTH.,#799);
#797=SURFACE_STYLE_USAGE(.BOTH.,#800);
#798=SURFACE_STYLE_USAGE(.BOTH.,#801);
#799=SURFACE_SIDE_STYLE('',(#802));
#800=SURFACE_SIDE_STYLE('',(#803));
#801=SURFACE_SIDE_STYLE('',(#804));
#802=SURFACE_STYLE_FILL_AREA(#805);
#803=SURFACE_STYLE_FILL_AREA(#806);
#804=SURFACE_STYLE_FILL_AREA(#807);
#805=FILL_AREA_STYLE('Steel - Satin',(#808));
#806=FILL_AREA_STYLE('Opaque(225,181,125)',(#809));
#807=FILL_AREA_STYLE('Opaque(210,209,199)',(#810));
#808=FILL_AREA_STYLE_COLOUR('Steel - Satin',#811);
#809=FILL_AREA_STYLE_COLOUR('Opaque(225,181,125)',#812);
#810=FILL_AREA_STYLE_COLOUR('Opaque(210,209,199)',#813);
#811=COLOUR_RGB('Steel - Satin',0.627450980392157,0.627450980392157,0.627450980392157);
#812=COLOUR_RGB('Opaque(225,181,125)',0.882352941176471,0.709803921568627,
0.490196078431373);
#813=COLOUR_RGB('Opaque(210,209,199)',0.823529411764706,0.819607843137255,
0.780392156862745);
ENDSEC;
END-ISO-10303-21;
